SplineFontDB: 3.0
FontName: TengwarFormal12b
FullName: Tengwar Formal
FamilyName: Tengwar Formal
Weight: Book
Copyright: Copyright (c) September 2009, Michal Nowakowski (http://tengwarformal.limes.com.pl),\nwith Reserved Font Names "Tengwar Formal" and "Tengwar Formal A".\n\nThis Font Software is licensed under the SIL Open Font License, Version 1.1.\nThis license is provided in a separate file, LICENSE, supplied with the fonts,\nand is also available with a FAQ at: http://scripts.sil.org/OFL
Version: 1.2c
ItalicAngle: 0
UnderlinePosition: -272
UnderlineWidth: 41
Ascent: 1290
Descent: 758
LayerCount: 2
Layer: 0 1 "Warstwa t+AUIA-a"  1
Layer: 1 1 "Plan pierwszy"  0
NeedsXUIDChange: 1
XUID: [1021 134 475744448 7942774]
FSType: 0
OS2Version: 0
OS2_WeightWidthSlopeOnly: 0
OS2_UseTypoMetrics: 0
CreationTime: 1139823472
ModificationTime: 1252787551
PfmFamily: 81
TTFWeight: 400
TTFWidth: 5
LineGap: 0
VLineGap: 0
Panose: 0 0 4 0 0 0 0 0 0 0
OS2TypoAscent: 35
OS2TypoAOffset: 1
OS2TypoDescent: 0
OS2TypoDOffset: 1
OS2TypoLinegap: 0
OS2WinAscent: 35
OS2WinAOffset: 1
OS2WinDescent: 0
OS2WinDOffset: 1
HheadAscent: 35
HheadAOffset: 1
HheadDescent: 0
HheadDOffset: 1
OS2SubXSize: 1433
OS2SubYSize: 1329
OS2SubXOff: 0
OS2SubYOff: 292
OS2SupXSize: 1433
OS2SupYSize: 1329
OS2SupXOff: 0
OS2SupYOff: 927
OS2StrikeYSize: 100
OS2StrikeYPos: 528
OS2Vendor: 'PfEd'
Lookup: 258 0 0 "'kern' Kerning poziomy w tablicy 0"  {"Podtablica 'kern' Kerning poziomy w tablicy 0"  } ['kern' ('DFLT' <'dflt' > ) ]
DEI: 91125
TtTable: prep
MPPEM
PUSHW_1
 3
LT
IF
PUSHB_2
 1
 1
INSTCTRL
EIF
PUSHW_1
 511
SCANCTRL
PUSHB_1
 1
SCVTCI
EndTTInstrs
LangName: 1033 "" "" "Regular" "FontTengwarFormal12c" "" "1.2c" "" "" "" "Micha+AUIA Nowakowski" "" "" "http://tengwarformal.limes.com.pl" "" "http://scripts.sil.org/OFL" 
Encoding: win
UnicodeInterp: none
NameList: Adobe Glyph List
DisplaySize: -24
AntiAlias: 1
FitToEm: 1
WinInfo: 16 16 15
BeginChars: 256 219

StartChar: .notdef
Encoding: 0 -1 0
AltUni2: 000000.ffffffff.0
Width: 1533
Flags: MW
LayerCount: 2
Fore
SplineSet
256 0 m 1,0,-1
 256 1268 l 1,1,-1
 1280 1268 l 1,2,-1
 1280 0 l 1,3,-1
 256 0 l 1,0,-1
293 37 m 1,4,-1
 1241 37 l 1,5,-1
 1241 1231 l 1,6,-1
 293 1231 l 1,7,-1
 293 37 l 1,4,-1
EndSplineSet
EndChar

StartChar: exclam
Encoding: 33 33 2
Width: 806
VWidth: 1000
Flags: MW
LayerCount: 2
Fore
SplineSet
190 471 m 1,0,1
 359 645 359 645 502 645 c 0,2,3
 667 645 667 645 721 497 c 0,4,5
 743 438 743 438 743 360 c 0,6,7
 743 218 743 218 671 101 c 0,8,9
 589.769 -31 589.769 -31 475 -31 c 0,10,11
 401 -31 401 -31 353 28 c 0,12,13
 340 44 340 44 340 51 c 0,14,15
 340 64 340 64 384 96 c 0,16,17
 413 117 413 117 426 117 c 0,18,19
 432 117 432 117 456 94 c 0,20,21
 496 55 496 55 537 55 c 0,22,23
 619 55 619 55 647 188 c 0,24,25
 657 238 657 238 657 297 c 0,26,27
 657 423 657 423 571 495 c 0,28,29
 508 547 508 547 422 547 c 0,30,31
 306 547 306 547 228 458 c 0,32,33
 193 419 193 419 193 401 c 1,34,35
 184 301 184 301 190 63 c 2,36,-1
 199 -289 l 2,37,38
 205 -533 205 -533 195 -600 c 0,39,40
 185 -662 185 -662 63 -731 c 1,41,42
 55 -734 55 -734 55 -725 c 1,43,44
 88 -663 88 -663 95 -609 c 0,45,46
 108.468 -491.152 108.468 -491.152 95 56 c 0,47,48
 87 340 87 340 90 713 c 0,49,50
 93 1128 93 1128 86 1143 c 0,51,52
 80 1158 80 1158 53 1170 c 0,53,54
 37 1176 37 1176 37 1184 c 0,55,56
 37 1200 37 1200 66 1236 c 0,57,58
 97 1274 97 1274 123 1274 c 0,59,60
 182.171 1274 182.171 1274 190 1137 c 1,61,62
 194 1026 194 1026 190 471 c 1,0,1
EndSplineSet
EndChar

StartChar: quotedbl
Encoding: 34 34 3
Width: 0
VWidth: 1000
Flags: MW
LayerCount: 2
Fore
SplineSet
-414 -256 m 1,0,-1
 -854 -242 l 1,1,2
 -1016 -242 -1016 -242 -1143 -256 c 1,3,4
 -1099 -170 -1099 -170 -942 -155 c 0,5,6
 -894 -150 -894 -150 -819 -150 c 0,7,8
 -783 -150 -783 -150 -574 -161 c 0,9,10
 -476 -166 -476 -166 -387 -166 c 0,11,12
 -231 -166 -231 -166 -86 -154 c 1,13,14
 -122 -238 -122 -238 -289 -252 c 0,15,16
 -335 -256 -335 -256 -414 -256 c 1,0,-1
EndSplineSet
EndChar

StartChar: dollar
Encoding: 36 36 5
Width: 0
VWidth: 1000
Flags: MW
LayerCount: 2
Fore
SplineSet
-432 1270 m 0,0,1
 -403 1270 -403 1270 -403 1237 c 0,2,3
 -403 1219 -403 1219 -426 1196 c 0,4,5
 -456 1164 -456 1164 -627 1030 c 0,6,7
 -723 955 -723 955 -733 954 c 2,8,-1
 -737 954 l 2,9,10
 -741 954 -741 954 -745 963 c 1,11,12
 -745 981 -745 981 -551 1179 c 0,13,14
 -485 1246 -485 1246 -477 1251 c 0,15,16
 -452 1270 -452 1270 -432 1270 c 0,0,1
EndSplineSet
EndChar

StartChar: percent
Encoding: 37 37 6
Width: 0
VWidth: 1000
Flags: MW
LayerCount: 2
Fore
SplineSet
-662 1087 m 0,0,1
 -662 1096.33 -662 1096.33 -618 1155 c 1,2,3
 -601 1175 -601 1175 -594 1176 c 0,4,5
 -582 1176 -582 1176 -521 1126 c 2,6,-1
 -516 1122 l 2,7,8
 -498 1108 -498 1108 -496 1096 c 1,9,10
 -496 1076 -496 1076 -537 1030 c 0,11,12
 -556 1008 -556 1008 -561 1008 c 0,13,14
 -569 1008 -569 1008 -625 1051 c 0,15,16
 -657.8 1075.6 -657.8 1075.6 -660 1080 c 0,17,18
 -662 1083 -662 1083 -662 1087 c 0,0,1
EndSplineSet
EndChar

StartChar: ampersand
Encoding: 38 38 7
Width: 0
VWidth: 1000
Flags: MW
LayerCount: 2
Fore
SplineSet
-512 1325 m 1,0,1
 -451 1325 -451 1325 -451 1264 c 0,2,3
 -451 1182 -451 1182 -613 1047 c 0,4,5
 -712 964 -712 964 -774 935 c 0,6,7
 -784 930 -784 930 -788 930 c 0,8,9
 -793 930 -793 930 -793 934 c 0,10,11
 -793 943 -793 943 -723 999 c 0,12,13
 -599 1097 -599 1097 -562 1149 c 0,14,15
 -537 1184 -537 1184 -537 1210 c 0,16,17
 -537 1257 -537 1257 -567 1260 c 1,18,19
 -601 1260 -601 1260 -669 1193 c 0,20,21
 -706 1157 -706 1157 -713 1157 c 0,22,23
 -717 1157 -717 1157 -717 1161 c 0,24,25
 -717 1178 -717 1178 -660 1234 c 1,26,27
 -567 1321 -567 1321 -512 1325 c 1,0,1
EndSplineSet
EndChar

StartChar: quotesingle
Encoding: 39 39 8
Width: 0
VWidth: 1000
Flags: MW
LayerCount: 2
Fore
SplineSet
-713 -244 m 1,0,1
 -660.595 -154 -660.595 -154 -489 -154 c 1,2,-1
 -307 -162 l 1,3,-1
 -303 -162 l 2,4,5
 -213 -162 -213 -162 -90 -150 c 1,6,7
 -121 -226 -121 -226 -219 -242 c 0,8,9
 -257 -248 -257 -248 -313 -248 c 2,10,-1
 -594 -242 l 1,11,-1
 -598 -242 l 2,12,13
 -672 -242 -672 -242 -713 -244 c 1,0,1
EndSplineSet
EndChar

StartChar: parenright
Encoding: 41 41 10
Width: 0
VWidth: 1000
Flags: MW
LayerCount: 2
Fore
SplineSet
-762 1401 m 0,0,1
 -665 1401 -665 1401 -496 1364 c 0,2,3
 -342 1331 -342 1331 -264 1331 c 0,4,5
 -169 1331 -169 1331 -45 1391 c 1,6,7
 -104 1307 -104 1307 -163 1275 c 0,8,9
 -232 1239 -232 1239 -348 1239 c 0,10,11
 -426 1239 -426 1239 -565 1275 c 128,-1,12
 -704 1311 -704 1311 -782 1311 c 0,13,14
 -890 1311 -890 1311 -1030 1279 c 0,15,16
 -844 1322 -844 1322 -1124 1257 c 1,17,18
 -946 1401 -946 1401 -762 1401 c 0,0,1
EndSplineSet
EndChar

StartChar: asterisk
Encoding: 42 42 11
Width: 806
VWidth: 1000
Flags: MW
LayerCount: 2
Fore
SplineSet
705 297 m 0,0,1
 705 230 705 230 636 133 c 0,2,3
 555 19 555 19 453 -23 c 0,4,5
 409 -41 409 -41 367 -41 c 0,6,7
 221 -41 221 -41 138 112 c 0,8,9
 68 240 68 240 68 420 c 0,10,11
 68 644 68 644 137 782 c 1,12,13
 192 899 192 899 296 1001 c 0,14,15
 439 1141 439 1141 575 1141 c 0,16,17
 660 1141 660 1141 701 1056 c 0,18,19
 721 1015 721 1015 721 973 c 0,20,21
 721 927 721 927 668 896 c 0,22,23
 657 889 657 889 653 889 c 0,24,25
 646 889 646 889 638 922 c 0,26,27
 621 995 621 995 583 1022 c 0,28,29
 549 1047 549 1047 494 1047 c 0,30,31
 426 1047 426 1047 356 991 c 1,32,33
 209 882 209 882 174 602 c 0,34,35
 164 527 164 527 164 444 c 0,36,37
 164 188 164 188 288 96 c 0,38,39
 346 53 346 53 428 53 c 0,40,41
 520 53 520 53 587 134 c 0,42,43
 633 188 633 188 633 233 c 0,44,45
 633 263 633 263 592 273 c 0,46,47
 555 281 555 281 551 284 c 0,48,49
 545 288 545 288 545 295 c 0,50,51
 545 320 545 320 594 374 c 0,52,53
 629 412 629 412 643 412 c 1,54,55
 705 367 705 367 705 297 c 0,0,1
EndSplineSet
EndChar

StartChar: plus
Encoding: 43 43 12
Width: 331
VWidth: 1000
Flags: MW
LayerCount: 2
Fore
SplineSet
55 -106 m 1,0,1
 193 -111 193 -111 195 -39 c 0,2,3
 195 10 195 10 125 44 c 0,4,5
 78 66 78 66 31 66 c 0,6,7
 5 66 5 66 -45 41 c 0,8,9
 -119 3 -119 3 -196 0 c 2,10,-1
 -211 0 l 2,11,12
 -291 0 -291 0 -293 61 c 1,13,-1
 -293 66 l 1,14,15
 -55 114 -55 114 -39 117 c 0,16,17
 48 131 48 131 104 131 c 0,18,19
 209 131 209 131 275 73 c 0,20,21
 322 30 322 30 322 -25 c 0,22,23
 322 -92 322 -92 264 -142 c 0,24,25
 220 -180 220 -180 170 -180 c 0,26,27
 116 -180 116 -180 55 -106 c 1,0,1
EndSplineSet
EndChar

StartChar: comma
Encoding: 44 44 13
Width: 806
VWidth: 1000
Flags: MW
LayerCount: 2
Fore
SplineSet
125 412 m 0,0,1
 125 393 125 393 154 385 c 0,2,3
 195 373.469 195 373.469 195 354 c 0,4,5
 195 330 195 330 163 293 c 0,6,7
 141 268 141 268 125 268 c 0,8,9
 93 268 93 268 76 312 c 0,10,11
 68 333 68 333 68 356 c 0,12,13
 68 426 68 426 128 504 c 0,14,15
 234.966 645 234.966 645 418 645 c 0,16,17
 542 645 542 645 608 558 c 0,18,19
 655 497 655 497 655 410 c 0,20,21
 655 291 655 291 504 129 c 1,22,23
 637 123 637 123 694 30 c 0,24,25
 725 -21 725 -21 725 -90 c 0,26,27
 725 -240 725 -240 630 -373 c 0,28,29
 534 -507 534 -507 392 -546 c 0,30,31
 345 -559 345 -559 297 -559 c 0,32,33
 203 -559 203 -559 158 -498 c 0,34,35
 131 -462 131 -462 131 -410 c 0,36,37
 131 -363 131 -363 170 -317 c 0,38,39
 185 -299 185 -299 193 -299 c 0,40,41
 204 -299 204 -299 209 -328 c 0,42,43
 218 -386 218 -386 239 -411 c 0,44,45
 279 -459 279 -459 381 -459 c 0,46,47
 519 -459 519 -459 586 -341 c 0,48,49
 631 -264 631 -264 631 -156 c 0,50,51
 631 -40 631 -40 556 11 c 0,52,53
 515 39 515 39 459 39 c 0,54,55
 415 39 415 39 368 3 c 0,56,57
 335 -23 335 -23 319 -23 c 0,58,59
 315 -23 315 -23 313 -16 c 1,60,61
 313 -0 313 -0 456 127 c 1,62,63
 563 212.6 563 212.6 563 336 c 0,64,65
 563 473 563 473 462 527 c 0,66,67
 413 553 413 553 350 553 c 0,68,69
 249 553 249 553 177 498 c 0,70,71
 125 458 125 458 125 412 c 0,0,1
EndSplineSet
EndChar

StartChar: period
Encoding: 46 46 15
Width: 806
VWidth: 1000
Flags: MW
LayerCount: 2
Fore
SplineSet
78 299 m 1,0,1
 78 468 78 468 187 578 c 1,2,3
 291 674 291 674 420 678 c 1,4,5
 539 678 539 678 611 627 c 0,6,7
 643 604 643 604 680 563 c 0,8,9
 750 487 750 487 750 354 c 0,10,11
 750 161 750 161 624 60 c 0,12,13
 527 -18 527 -18 379 -18 c 0,14,15
 253 -18 253 -18 175 63 c 1,16,17
 82.0096 155.99 82.0096 155.99 78 299 c 1,0,1
668 303 m 0,18,19
 668 424 668 424 570 511 c 0,20,21
 485 587 485 587 382 592 c 2,22,-1
 371 592 l 2,23,24
 281 592 281 592 218 523 c 0,25,26
 156 455 156 455 156 348 c 128,-1,27
 156 241 156 241 234 156 c 0,28,29
 315 68 315 68 428 66 c 0,30,31
 558 66 558 66 625 162 c 0,32,33
 668 224 668 224 668 303 c 0,18,19
EndSplineSet
EndChar

StartChar: slash
Encoding: 47 47 16
Width: 0
VWidth: 1000
Flags: MW
LayerCount: 2
Fore
SplineSet
-745 -588 m 1,0,1
 -671.245 -449 -671.245 -449 -535 -449 c 0,2,3
 -459 -449 -459 -449 -368 -479 c 0,4,5
 -309 -498 -309 -498 -274 -498 c 0,6,7
 -200 -498 -200 -498 -100 -444 c 1,8,9
 -174 -582 -174 -582 -260 -582 c 0,10,11
 -349 -582 -349 -582 -434 -557 c 0,12,13
 -501 -537 -501 -537 -559 -537 c 0,14,15
 -603 -537 -603 -537 -745 -588 c 1,0,1
EndSplineSet
EndChar

StartChar: one
Encoding: 49 49 18
Width: 806
VWidth: 1000
Flags: MW
LayerCount: 2
Fore
SplineSet
190 473 m 1,0,1
 362 645 362 645 502 645 c 0,2,3
 666 645 666 645 721 499 c 0,4,5
 745 436 745 436 745 352 c 0,6,7
 745 209 745 209 670 96 c 0,8,9
 587.026 -29 587.026 -29 467 -29 c 0,10,11
 417 -29 417 -29 366 14 c 0,12,13
 340 37 340 37 340 51 c 0,14,15
 340 64 340 64 384 96 c 0,16,17
 413 117 413 117 426 117 c 0,18,19
 432 117 432 117 457 94 c 0,20,21
 498 55 498 55 539 55 c 0,22,23
 632 55 632 55 652 219 c 0,24,25
 657 256 657 256 657 297 c 0,26,27
 657 424 657 424 573 496 c 0,28,29
 511 549 511 549 426 549 c 0,30,31
 313 549 313 549 233 463 c 0,32,33
 195 422 195 422 195 401 c 1,34,35
 186 303 186 303 192 54 c 0,36,37
 206.312 -524.209 206.312 -524.209 195 -600 c 0,38,39
 185 -664 185 -664 63 -731 c 1,40,41
 54 -734 54 -734 57 -725 c 1,42,43
 89 -660 89 -660 95 -602 c 0,44,45
 99 -569 99 -569 102 -385 c 0,46,47
 108 -62 108 -62 98 391 c 0,48,49
 95 523 95 523 92 528 c 0,50,51
 78 553 78 553 48 565 c 0,52,53
 35 571 35 571 35 580 c 0,54,55
 35 599 35 599 64 633 c 0,56,57
 94 668 94 668 121 668 c 0,58,59
 192 668 192 668 192 541 c 1,60,-1
 190 473 l 1,0,1
EndSplineSet
EndChar

StartChar: two
Encoding: 50 50 19
Width: 1232
VWidth: 1000
Flags: MW
LayerCount: 2
Fore
SplineSet
195 481 m 1,0,1
 368 645 368 645 492 645 c 0,2,3
 583 645 583 645 641 585 c 0,4,5
 663 561 663 561 696 512 c 1,6,7
 752 570 752 570 838 612 c 0,8,9
 908 645 908 645 963 645 c 0,10,11
 1112 645 1112 645 1167 513 c 0,12,13
 1194 449 1194 449 1194 360 c 0,14,15
 1194 243 1194 243 1138 129 c 0,16,17
 1060.32 -31 1060.32 -31 938 -31 c 0,18,19
 867 -31 867 -31 819 27 c 0,20,21
 805 44 805 44 805 51 c 0,22,23
 805 61 805 61 845 92 c 0,24,25
 877 117 877 117 891 117 c 0,26,27
 897 117 897 117 921 93 c 0,28,29
 959 55 959 55 995 55 c 0,30,31
 1061 55 1061 55 1092 152 c 0,32,33
 1110 209 1110 209 1110 281 c 0,34,35
 1110 439 1110 439 1020 509 c 0,36,37
 967 551 967 551 891 551 c 0,38,39
 804 551 804 551 748 501 c 0,40,41
 732 486 732 486 713 463 c 1,42,43
 719 408 719 408 719 362 c 0,44,45
 719 234 719 234 661 119 c 0,46,47
 583.826 -31 583.826 -31 461 -31 c 0,48,49
 388 -31 388 -31 340 37 c 0,50,51
 332 49 332 49 332 51 c 0,52,53
 332 61 332 61 372 92 c 0,54,55
 404 117 404 117 418 117 c 0,56,57
 424 117 424 117 445 94 c 0,58,59
 481 55 481 55 520 55 c 0,60,61
 580 55 580 55 615 133 c 0,62,63
 639 189 639 189 639 264 c 0,64,65
 639 411 639 411 561 490 c 0,66,67
 502 549 502 549 412 549 c 0,68,69
 323 549 323 549 236 465 c 0,70,71
 199 429 199 429 197 416 c 0,72,73
 188 310 188 310 193 32 c 0,74,75
 197 -170 197 -170 199 -289 c 0,76,77
 205 -533 205 -533 195 -600 c 0,78,79
 185 -664 185 -664 63 -731 c 1,80,81
 54 -734 54 -734 57 -725 c 1,82,83
 89 -660 89 -660 95 -602 c 0,84,85
 99 -569 99 -569 102 -385 c 0,86,87
 108 -62 108 -62 98 391 c 0,88,89
 95 523 95 523 92 528 c 0,90,91
 78 553 78 553 48 565 c 0,92,93
 35 571 35 571 35 580 c 0,94,95
 35 599 35 599 64 633 c 0,96,97
 94 668 94 668 121 668 c 0,98,99
 194 668 194 668 196 543 c 0,100,101
 195 586 195 586 195 481 c 1,0,1
EndSplineSet
EndChar

StartChar: three
Encoding: 51 51 20
Width: 806
VWidth: 1000
Flags: MW
LayerCount: 2
Fore
SplineSet
123 1274 m 0,0,1
 182.171 1274 182.171 1274 190 1137 c 1,2,-1
 188 593 l 1,3,-1
 190 477 l 1,4,5
 353.747 645 353.747 645 502 645 c 0,6,7
 667 645 667 645 721 497 c 0,8,9
 743 438 743 438 743 360 c 0,10,11
 743 218 743 218 671 101 c 0,12,13
 589.769 -31 589.769 -31 475 -31 c 0,14,15
 401 -31 401 -31 353 28 c 0,16,17
 340 44 340 44 340 51 c 0,18,19
 340 64 340 64 384 96 c 0,20,21
 413 117 413 117 426 117 c 0,22,23
 432 117 432 117 456 94 c 0,24,25
 496 55 496 55 537 55 c 0,26,27
 619 55 619 55 647 188 c 0,28,29
 657 238 657 238 657 297 c 0,30,31
 657 423 657 423 571 495 c 0,32,33
 508 547 508 547 422 547 c 0,34,35
 304 547 304 547 224 466 c 0,36,37
 190 432 190 432 190 416 c 1,38,-1
 197 133 l 1,39,40
 197 115 197 115 195 104 c 0,41,42
 185 39 185 39 63 -39 c 1,43,44
 55 -39 55 -39 55 -33 c 1,45,46
 92 40 92 40 98 109 c 0,47,48
 100 138 100 138 102 317 c 1,49,-1
 92 713 l 1,50,51
 95 1124 95 1124 86 1143 c 0,52,53
 80 1158 80 1158 53 1170 c 0,54,55
 37 1176 37 1176 37 1184 c 0,56,57
 37 1200 37 1200 66 1236 c 0,58,59
 97 1274 97 1274 123 1274 c 0,0,1
EndSplineSet
EndChar

StartChar: four
Encoding: 52 52 21
Width: 1232
VWidth: 1000
Flags: MW
LayerCount: 2
Fore
SplineSet
123 1274 m 0,0,1
 182.171 1274 182.171 1274 190 1137 c 1,2,-1
 190 644 l 1,3,4
 191 560 191 560 193 479 c 1,5,6
 372 645 372 645 492 645 c 0,7,8
 583 645 583 645 641 585 c 0,9,10
 663 561 663 561 696 512 c 1,11,12
 752 570 752 570 838 612 c 0,13,14
 908 645 908 645 963 645 c 0,15,16
 1112 645 1112 645 1167 513 c 0,17,18
 1194 449 1194 449 1194 360 c 0,19,20
 1194 243 1194 243 1138 129 c 0,21,22
 1060.32 -31 1060.32 -31 938 -31 c 0,23,24
 867 -31 867 -31 819 27 c 0,25,26
 805 44 805 44 805 51 c 0,27,28
 805 61 805 61 845 92 c 0,29,30
 877 117 877 117 891 117 c 0,31,32
 897 117 897 117 921 93 c 0,33,34
 959 55 959 55 995 55 c 0,35,36
 1061 55 1061 55 1092 152 c 0,37,38
 1110 209 1110 209 1110 281 c 0,39,40
 1110 439 1110 439 1020 509 c 0,41,42
 967 551 967 551 891 551 c 0,43,44
 804 551 804 551 748 501 c 0,45,46
 732 486 732 486 713 463 c 1,47,48
 719 408 719 408 719 362 c 0,49,50
 719 234 719 234 661 119 c 0,51,52
 583.826 -31 583.826 -31 461 -31 c 0,53,54
 388 -31 388 -31 340 37 c 0,55,56
 332 49 332 49 332 51 c 0,57,58
 332 61 332 61 372 92 c 0,59,60
 404 117 404 117 418 117 c 0,61,62
 424 117 424 117 445 94 c 0,63,64
 481 55 481 55 520 55 c 0,65,66
 580 55 580 55 615 133 c 0,67,68
 639 189 639 189 639 264 c 0,69,70
 639 411 639 411 561 490 c 0,71,72
 502 549 502 549 412 549 c 0,73,74
 324 549 324 549 234 468 c 0,75,76
 193 431 193 431 193 418 c 1,77,-1
 197 125 l 1,78,79
 196 112 196 112 195 104 c 0,80,81
 185 39 185 39 63 -39 c 1,82,83
 55 -39 55 -39 55 -33 c 1,84,85
 92 40 92 40 98 109 c 0,86,87
 100 138 100 138 102 317 c 1,88,-1
 92 713 l 1,89,90
 95 1124 95 1124 86 1143 c 0,91,92
 80 1158 80 1158 53 1170 c 0,93,94
 37 1176 37 1176 37 1184 c 0,95,96
 37 1200 37 1200 66 1236 c 0,97,98
 97 1274 97 1274 123 1274 c 0,0,1
EndSplineSet
EndChar

StartChar: five
Encoding: 53 53 22
Width: 1232
VWidth: 1000
Flags: MW
LayerCount: 2
Fore
SplineSet
197 483 m 1,0,1
 356.635 645 356.635 645 489 645 c 0,2,3
 584 645 584 645 642 582 c 0,4,5
 664 558 664 558 694 512 c 1,6,7
 750 570 750 570 836 612 c 0,8,9
 906 645 906 645 963 645 c 0,10,11
 1095 645 1095 645 1157 529 c 0,12,13
 1196 458 1196 458 1196 360 c 0,14,15
 1196 247 1196 247 1140 132 c 0,16,17
 1059.7 -31.0001 1059.7 -31.0001 938 -31 c 0,18,19
 879 -31 879 -31 829 14 c 0,20,21
 805 37 805 37 805 51 c 0,22,23
 805 63 805 63 845 94 c 0,24,25
 875 117 875 117 889 117 c 0,26,27
 895 117 895 117 920 93 c 0,28,29
 959 55 959 55 995 55 c 0,30,31
 1062 55 1062 55 1093 152 c 0,32,33
 1110 208 1110 208 1110 279 c 0,34,35
 1110 433 1110 433 1022 506 c 0,36,37
 967 551 967 551 889 551 c 0,38,39
 805 551 805 551 750 503 c 0,40,41
 733 488 733 488 711 463 c 1,42,43
 719 411 719 411 719 356 c 0,44,45
 719 226 719 226 657 112 c 0,46,47
 580.588 -31 580.588 -31 461 -31 c 0,48,49
 403 -31 403 -31 354 17 c 0,50,51
 332 39 332 39 332 51 c 0,52,53
 332 61 332 61 372 92 c 0,54,55
 404 117 404 117 418 117 c 0,56,57
 424 117 424 117 445 94 c 0,58,59
 481 55 481 55 520 55 c 0,60,61
 576 55 576 55 612 130 c 0,62,63
 639 188 639 188 639 264 c 0,64,65
 639 416 639 416 557 494 c 0,66,67
 498 549 498 549 410 549 c 0,68,69
 319 549 319 549 234 467 c 0,70,71
 201 435 201 435 199 422 c 1,72,73
 202 155 202 155 195 104 c 0,74,75
 185 38 185 38 61 -39 c 1,76,77
 52 -42 52 -42 55 -33 c 1,78,79
 91 39 91 39 97 108 c 0,80,81
 98 129 98 129 100 317 c 0,82,83
 103 491 103 491 93 523 c 0,84,85
 92 525 92 525 92 528 c 1,86,87
 80 552 80 552 50 564 c 0,88,89
 35 571 35 571 35 580 c 0,90,91
 35 599 35 599 64 633 c 0,92,93
 94 668 94 668 121 668 c 0,94,95
 195 668 195 668 197 540 c 0,96,-1
 197 483 l 1,0,1
EndSplineSet
EndChar

StartChar: six
Encoding: 54 54 23
Width: 806
VWidth: 1000
Flags: MW
LayerCount: 2
Fore
SplineSet
197 483 m 1,0,1
 361 645 361 645 500 645 c 0,2,3
 681 645 681 645 727 470 c 0,4,5
 741 417 741 417 741 350 c 0,6,7
 741 222 741 222 675 110 c 0,8,9
 594.936 -29 594.936 -29 473 -29 c 0,10,11
 406 -29 406 -29 358 21 c 0,12,13
 340 40 340 40 340 51 c 0,14,15
 340 65 340 65 382 96 c 0,16,17
 411 117 411 117 424 117 c 0,18,19
 430 117 430 117 456 93 c 0,20,21
 498 55 498 55 537 55 c 0,22,23
 605 55 605 55 637 155 c 0,24,25
 655 211 655 211 655 281 c 0,26,27
 655 427 655 427 568 500 c 0,28,29
 509 549 509 549 424 549 c 0,30,31
 312 549 312 549 230 465 c 0,32,33
 198 433 198 433 199 422 c 0,34,35
 202 155 202 155 195 104 c 0,36,37
 185 38 185 38 61 -39 c 1,38,39
 52 -42 52 -42 55 -33 c 1,40,41
 91 39 91 39 97 108 c 0,42,43
 98 129 98 129 100 317 c 0,44,45
 103 491 103 491 93 523 c 0,46,47
 92 525 92 525 92 528 c 1,48,49
 80 552 80 552 50 564 c 0,50,51
 35 571 35 571 35 580 c 0,52,53
 35 599 35 599 64 633 c 0,54,55
 94 668 94 668 121 668 c 0,56,57
 195 668 195 668 197 540 c 0,58,-1
 197 483 l 1,0,1
EndSplineSet
EndChar

StartChar: seven
Encoding: 55 55 24
Width: 806
VWidth: 1000
Flags: MW
LayerCount: 2
Fore
SplineSet
477 102 m 1,0,1
 651 356.529 651 356.529 651 463 c 0,2,3
 651 528 651 528 585 547 c 0,4,5
 565 553 565 553 541 553 c 0,6,7
 493 553 493 553 441 514 c 0,8,9
 416 494 416 494 406 494 c 0,10,11
 392 494 392 494 389 506 c 1,12,13
 389 515 389 515 424 550 c 0,14,15
 510 639 510 639 606 639 c 0,16,17
 711 639 711 639 734 566 c 0,18,19
 741 541 741 541 741 506 c 0,20,21
 739 421 739 421 575 173 c 1,22,-1
 384 -112 l 1,23,24
 291 -257 291 -257 291 -305 c 0,25,26
 291 -398 291 -398 374 -461 c 0,27,28
 439 -510 439 -510 512 -510 c 0,29,30
 565 -510 565 -510 629 -473 c 0,31,32
 643 -465 643 -465 647 -465 c 128,-1,33
 651 -465 651 -465 651 -471 c 0,34,35
 651 -488 651 -488 605 -541 c 0,36,37
 531 -625 531 -625 477 -625 c 0,38,39
 398 -625 398 -625 321 -572 c 0,40,41
 207 -493 207 -493 207 -356 c 0,42,43
 207 -281 207 -281 268 -194 c 1,44,-1
 389 -31 l 1,45,46
 337 123 337 123 256 288 c 0,47,48
 142 520 142 520 74 520 c 0,49,50
 55 520 55 520 10 493 c 0,51,52
 -15 477 -15 477 -27 477 c 0,53,54
 -44 477 -44 477 -45 492 c 0,55,56
 -45 506 -45 506 37 569 c 0,57,58
 126 637 126 637 150 637 c 0,59,60
 200 637 200 637 382 285 c 0,61,62
 473 109 473 109 477 102 c 1,0,1
EndSplineSet
EndChar

StartChar: eight
Encoding: 56 56 25
Width: 806
VWidth: 1000
Flags: MW
LayerCount: 2
Fore
SplineSet
737 401 m 0,0,1
 737 310 737 310 657 190 c 0,2,3
 571 59 571 59 457 1 c 0,4,5
 393 -31 393 -31 332 -31 c 0,6,7
 211 -31 211 -31 130 58 c 0,8,9
 59 138 59 138 59 246 c 0,10,11
 59 461 59 461 374 969 c 2,12,-1
 504 1169 l 1,13,14
 581 1288 581 1288 616 1288 c 0,15,16
 623 1288 623 1288 623 1280 c 0,17,18
 623 1277 623 1277 527 1132 c 0,19,20
 135 537 135 537 135 305 c 0,21,22
 135 208 135 208 210 141 c 0,23,24
 276 82 276 82 365 82 c 0,25,26
 455 82 455 82 541 142 c 0,27,28
 645 214 645 214 651 319 c 2,29,-1
 651 330 l 2,30,31
 651 409 651 409 577 441 c 2,32,-1
 535 459 l 1,33,34
 528 464 528 464 528 469 c 0,35,36
 528 484 528 484 564 518 c 0,37,38
 600 551 600 551 623 551 c 0,39,40
 654 551 654 551 690 515 c 0,41,42
 737 469 737 469 737 401 c 0,0,1
EndSplineSet
EndChar

StartChar: nine
Encoding: 57 57 26
Width: 806
VWidth: 1000
Flags: MW
LayerCount: 2
Fore
SplineSet
246 977 m 0,0,1
 295 977 295 977 413 731 c 1,2,-1
 609 303 l 1,3,4
 710 94 710 94 752 94 c 0,5,6
 784 94 784 94 822 144 c 0,7,8
 852.857 184 852.857 184 864 184 c 0,9,10
 877 184 877 184 877 172 c 0,11,12
 877 154 877 154 835 91 c 0,13,14
 766 -12 766 -12 717 -12 c 0,15,16
 642 -12 642 -12 508 288 c 1,17,-1
 420 489 l 1,18,-1
 235 113 l 1,19,20
 175 -1 175 -1 129 -25 c 0,21,22
 111 -35 111 -35 90 -35 c 0,23,24
 56 -35 56 -35 24 -1 c 0,25,26
 2 23 2 23 2 47 c 0,27,28
 2 85 2 85 46 136 c 0,29,30
 67 160 67 160 76 160 c 0,31,32
 81 160 81 160 87 129 c 0,33,34
 98 74 98 74 129 74 c 0,35,36
 165 74 165 74 203 145 c 0,37,38
 215 168 215 168 292 346 c 0,39,40
 340 456 340 456 385 547 c 1,41,42
 363 610 363 610 305 719 c 0,43,44
 227 866 227 866 186 866 c 0,45,46
 172 866 172 866 151 836 c 0,47,48
 134 813 134 813 125 813 c 1,49,50
 114 821 114 821 113 825 c 0,51,52
 113 846 113 846 166 910 c 0,53,54
 222 977 222 977 246 977 c 0,0,1
EndSplineSet
EndChar

StartChar: less
Encoding: 60 60 29
Width: 806
VWidth: 1000
Flags: MW
LayerCount: 2
Fore
SplineSet
197 229 m 1,0,-1
 233 240 l 1,1,2
 256 240 256 240 232 196 c 0,3,4
 207 148 207 148 174 129 c 0,5,6
 164 123 164 123 156 123 c 0,7,8
 112 123 112 123 83 170 c 0,9,10
 63 202 63 202 63 242 c 0,11,12
 63 331 63 331 138 452 c 0,13,14
 220 583 220 583 326 639 c 0,15,16
 384 670 384 670 440 670 c 0,17,18
 503 670 503 670 547 649 c 1,19,20
 610 737 610 737 610 838 c 0,21,22
 610 955 610 955 528 1022 c 0,23,24
 463 1075 463 1075 365 1075 c 0,25,26
 262 1075 262 1075 175 1006 c 0,27,28
 106 952 106 952 104 897 c 0,29,30
 104 876 104 876 135 862 c 0,31,32
 168 846.111 168 846.111 168 831 c 0,33,34
 168 809 168 809 148 774 c 0,35,36
 125 735 125 735 98 735 c 0,37,38
 45 735 45 735 45 829 c 0,39,40
 45 921 45 921 137 1024 c 0,41,42
 228 1127 228 1127 339 1164 c 0,43,44
 381 1178 381 1178 420 1178 c 0,45,46
 538 1178 538 1178 621 1101 c 0,47,48
 700 1027 700 1027 700 922 c 0,49,50
 700 852 700 852 631 695 c 0,51,52
 626 685 626 685 602 631 c 1,53,54
 754 536.311 754 536.311 754 403 c 0,55,56
 754 171 754 171 456 -245 c 0,57,58
 368 -369 368 -369 272 -481 c 1,59,60
 158.6 -616 158.6 -616 135 -616 c 0,61,62
 127 -616 127 -616 127 -608 c 0,63,64
 127 -589 127 -589 219 -475 c 0,65,66
 384 -272 384 -272 456 -167 c 0,67,68
 657 128 657 128 657 330 c 0,69,70
 657 463 657 463 551 526 c 0,71,72
 486 565 486 565 401 565 c 0,73,74
 302 565 302 565 217 494 c 1,75,76
 136 416 136 416 131 334 c 1,77,78
 131 287 131 287 159 251 c 0,79,80
 177 229 177 229 197 229 c 1,0,-1
EndSplineSet
EndChar

StartChar: at
Encoding: 64 64 33
Width: 1232
VWidth: 1000
Flags: MW
LayerCount: 2
Fore
SplineSet
190 471 m 1,0,1
 348.182 645 348.182 645 489 645 c 0,2,3
 584 645 584 645 642 582 c 0,4,5
 664 558 664 558 694 512 c 1,6,7
 750 570 750 570 836 612 c 0,8,9
 906 645 906 645 963 645 c 0,10,11
 1095 645 1095 645 1157 529 c 0,12,13
 1196 458 1196 458 1196 360 c 0,14,15
 1196 247 1196 247 1140 132 c 0,16,17
 1059.7 -31.0001 1059.7 -31.0001 938 -31 c 0,18,19
 879 -31 879 -31 829 14 c 0,20,21
 805 37 805 37 805 51 c 0,22,23
 805 63 805 63 845 94 c 0,24,25
 875 117 875 117 889 117 c 0,26,27
 895 117 895 117 920 93 c 0,28,29
 959 55 959 55 995 55 c 0,30,31
 1062 55 1062 55 1093 152 c 0,32,33
 1110 208 1110 208 1110 279 c 0,34,35
 1110 434 1110 434 1021 506 c 0,36,37
 967 549 967 549 889 549 c 0,38,39
 804 549 804 549 750 503 c 0,40,41
 732 488 732 488 711 463 c 1,42,43
 719 411 719 411 719 356 c 0,44,45
 719 226 719 226 657 112 c 0,46,47
 580.588 -31 580.588 -31 461 -31 c 0,48,49
 403 -31 403 -31 354 17 c 0,50,51
 332 39 332 39 332 51 c 0,52,53
 332 61 332 61 372 92 c 0,54,55
 404 117 404 117 418 117 c 0,56,57
 424 117 424 117 445 94 c 0,58,59
 481 55 481 55 520 55 c 0,60,61
 576 55 576 55 612 130 c 0,62,63
 639 188 639 188 639 264 c 0,64,65
 639 416 639 416 557 494 c 0,66,67
 498 549 498 549 410 549 c 0,68,69
 324 549 324 549 246 477 c 0,70,71
 197 433 197 433 193 401 c 1,72,73
 184 301 184 301 190 63 c 2,74,-1
 199 -289 l 2,75,76
 205 -533 205 -533 195 -600 c 0,77,78
 185 -662 185 -662 63 -731 c 1,79,80
 55 -734 55 -734 55 -725 c 1,81,82
 88 -663 88 -663 95 -609 c 0,83,84
 108.468 -491.152 108.468 -491.152 95 56 c 0,85,86
 87 340 87 340 90 713 c 0,87,88
 93 1128 93 1128 86 1143 c 0,89,90
 80 1158 80 1158 53 1170 c 0,91,92
 37 1176 37 1176 37 1184 c 0,93,94
 37 1200 37 1200 66 1236 c 0,95,96
 97 1274 97 1274 123 1274 c 0,97,98
 182.171 1274 182.171 1274 190 1137 c 1,99,100
 194 1026 194 1026 190 471 c 1,0,1
EndSplineSet
EndChar

StartChar: A
Encoding: 65 65 34
Width: 806
VWidth: 1000
Flags: MW
LayerCount: 2
Fore
SplineSet
625 254 m 1,0,1
 559 140 559 140 533 105 c 0,2,3
 435 -25 435 -25 307 -25 c 0,4,5
 180 -25 180 -25 102 79 c 0,6,7
 37 165 37 165 37 279 c 0,8,9
 37 422 37 422 139 538 c 0,10,11
 170 574 170 574 207 600 c 0,12,13
 283 652 283 652 315 655 c 1,14,15
 336 655 336 655 380 630 c 0,16,17
 426 603 426 603 426 578 c 0,18,19
 426 552 426 552 373 510 c 0,20,21
 354 496 354 496 350 496 c 0,22,23
 344 496 344 496 315 521 c 0,24,25
 275 557 275 557 242 557 c 0,26,27
 180 557 180 557 146 469 c 0,28,29
 123 411 123 411 123 340 c 0,30,31
 123 211 123 211 209 137 c 0,32,33
 274 80 274 80 367 80 c 0,34,35
 451 80 451 80 534 193 c 0,36,37
 604 288 604 288 625 391 c 1,38,39
 625 987 625 987 643 1098 c 1,40,41
 654 1187 654 1187 697 1238 c 0,42,43
 725 1270 725 1270 760 1270 c 0,44,45
 791 1270 791 1270 811 1213 c 0,46,47
 819 1191 819 1191 819 1176 c 0,48,49
 819 1151 819 1151 803 1149 c 2,50,-1
 788 1149 l 2,51,52
 730 1149 730 1149 727 870 c 1,53,54
 723.272 681.132 723.272 681.132 731 -223 c 0,55,56
 733 -470 733 -470 714 -560 c 0,57,58
 696 -643 696 -643 655 -666 c 1,59,60
 626 -688 626 -688 588 -703 c 0,61,62
 565 -711 565 -711 561 -705 c 0,63,64
 554 -696 554 -696 575 -666 c 1,65,66
 626 -604 626 -604 631 -459 c 1,67,-1
 635 -292 l 1,68,-1
 635 -287 l 2,69,70
 638 -235 638 -235 633 -130 c 0,71,72
 625 10 625 10 625 254 c 1,0,1
EndSplineSet
EndChar

StartChar: I
Encoding: 73 73 42
Width: 806
VWidth: 1000
Flags: MW
LayerCount: 2
Fore
SplineSet
92 283 m 0,0,1
 92 352 92 352 162 451 c 0,2,3
 243 564 243 564 342 605 c 0,4,5
 384 623 384 623 424 623 c 0,6,7
 583 623 583 623 666 458 c 0,8,9
 729 334 729 334 729 164 c 0,10,11
 729 -50.25 729 -50.25 662 -201 c 1,12,13
 602 -325 602 -325 491 -429 c 0,14,15
 352 -561 352 -561 227 -561 c 0,16,17
 149 -561 149 -561 105 -495 c 0,18,19
 76 -451 76 -451 76 -393 c 0,20,21
 76 -342 76 -342 130 -314 c 0,22,23
 140 -309 140 -309 143 -309 c 0,24,25
 151 -309 151 -309 159 -341 c 0,26,27
 177 -411 177 -411 213 -438 c 0,28,29
 248 -465 248 -465 307 -465 c 0,30,31
 363 -465 363 -465 440 -410 c 1,32,33
 631 -267.354 631 -267.354 631 139 c 0,34,35
 631 503 631 503 398 525 c 0,36,37
 383 526 383 526 367 526 c 0,38,39
 273 526 273 526 205 440 c 0,40,41
 164 387 164 387 164 348 c 0,42,43
 164 317 164 317 206 308 c 0,44,45
 243 300 243 300 248 297 c 0,46,47
 254 292 254 292 254 285 c 0,48,49
 254 260 254 260 203 207 c 0,50,51
 168 170 168 170 154 170 c 0,52,53
 138 170 138 170 116 205 c 0,54,55
 92 243 92 243 92 283 c 0,0,1
EndSplineSet
EndChar

StartChar: K
Encoding: 75 75 44
Width: 806
VWidth: 1000
Flags: MW
LayerCount: 2
Fore
SplineSet
106 207 m 0,0,1
 106 355.333 106 355.333 266 494 c 1,2,3
 180 501 180 501 126 567 c 0,4,5
 82 620 82 620 82 692 c 0,6,7
 82 833 82 833 197 972 c 0,8,9
 295 1090 295 1090 419 1138 c 0,10,11
 476 1161 476 1161 526 1161 c 0,12,13
 619 1161 619 1161 667 1102 c 0,14,15
 696 1065 696 1065 696 1014 c 0,16,17
 696 975 696 975 666 927 c 0,18,19
 648 899 648 899 635 899 c 0,20,21
 627 899 627 899 622 928 c 0,22,23
 611 992 611 992 578 1020 c 0,24,25
 533 1059 533 1059 440 1059 c 0,26,27
 325 1059 325 1059 245 951 c 1,28,29
 180 853 180 853 176 752 c 1,30,31
 176 649 176 649 246 606 c 0,32,33
 282 584 282 584 330 584 c 0,34,35
 380 584 380 584 446 629 c 0,36,37
 470 645 470 645 477 645 c 0,38,39
 483 645 483 645 483 639 c 0,40,41
 483 614 483 614 322 488 c 0,42,43
 315 482 315 482 311 479 c 0,44,45
 233 417 233 417 211 351 c 0,46,47
 199 315 199 315 199 270 c 0,48,49
 199 114 199 114 314 66 c 0,50,51
 358 47 358 47 416 47 c 0,52,53
 503 47 503 47 574 96 c 0,54,55
 635 139 635 139 635 193 c 0,56,57
 635 209 635 209 608 215 c 0,58,59
 577 223 577 223 571 232 c 0,60,61
 567 238 567 238 567 246 c 0,62,63
 567 269 567 269 597 305 c 0,64,65
 620 332 620 332 637 332 c 0,66,67
 670 332 670 332 687 284 c 0,68,69
 694 264 694 264 694 244 c 0,70,71
 694 164 694 164 627 84 c 0,72,73
 520.411 -43 520.411 -43 340 -43 c 0,74,75
 212 -43 212 -43 148 52 c 0,76,77
 106 115 106 115 106 207 c 0,0,1
EndSplineSet
EndChar

StartChar: Q
Encoding: 81 81 50
Width: 806
VWidth: 1000
Flags: MW
LayerCount: 2
Fore
SplineSet
188 84 m 1,0,1
 219 99 219 99 408 103 c 0,2,3
 521 106 521 106 629 100 c 1,4,5
 657 236 657 236 657 295 c 0,6,7
 657 431 657 431 568 502 c 0,8,9
 508 549 508 549 426 549 c 0,10,11
 314 549 314 549 232 463 c 0,12,13
 195 423 195 423 193 401 c 0,14,15
 189 328 189 328 191 177 c 0,16,17
 192 130 192 130 188 84 c 1,0,1
743 356 m 0,18,19
 743 257.5 743 257.5 680 100 c 1,20,21
 732 105 732 105 793 119 c 0,22,23
 822 126 822 126 818 112 c 0,24,25
 816 102 816 102 799 82 c 0,26,27
 737 12 737 12 667 -2 c 0,28,29
 637 -8 637 -8 594 -8 c 1,30,-1
 356 5 l 1,31,32
 193 9 193 9 193 -37 c 1,33,-1
 201 -404 l 1,34,35
 202 -556 202 -556 195 -600 c 0,36,37
 185 -662 185 -662 63 -731 c 1,38,39
 55 -734 55 -734 55 -725 c 1,40,41
 88 -663 88 -663 95 -609 c 0,42,43
 108.468 -491.152 108.468 -491.152 95 56 c 0,44,45
 87 340 87 340 90 713 c 0,46,47
 92 987 92 987 86 1143 c 1,48,49
 80 1158 80 1158 53 1170 c 0,50,51
 37 1176 37 1176 37 1184 c 0,52,53
 37 1200 37 1200 66 1236 c 0,54,55
 97 1274 97 1274 123 1274 c 0,56,57
 168 1274 168 1274 184 1191 c 0,58,59
 189 1167 189 1167 190 1137 c 1,60,-1
 190 471 l 1,61,62
 359 645 359 645 502 645 c 0,63,64
 662 645 662 645 718 505 c 0,65,66
 743 441 743 441 743 356 c 0,18,19
EndSplineSet
EndChar

StartChar: S
Encoding: 83 83 52
Width: 1232
VWidth: 1000
Flags: MW
LayerCount: 2
Fore
SplineSet
508 190 m 1,0,1
 498.313 220.07 498.313 220.07 498 260 c 0,2,3
 498 390 498 390 583 517 c 0,4,5
 650 619 650 619 725 647 c 0,6,7
 745 655 745 655 764 655 c 0,8,9
 801 655 801 655 843 619 c 0,10,11
 872 595 872 595 872 575 c 0,12,13
 872 554 872 554 825 514 c 0,14,15
 804 496 804 496 797 496 c 128,-1,16
 790 496 790 496 760 523 c 0,17,18
 721 559 721 559 694 559 c 0,19,20
 649 559 649 559 615 483 c 0,21,22
 584 415 584 415 584 336 c 0,23,24
 584 199 584 199 670 128 c 0,25,26
 728 80 728 80 813 80 c 0,27,28
 916 80 916 80 997 231 c 0,29,30
 1037 305 1037 305 1059 391 c 1,31,32
 1050.28 929.872 1050.28 929.872 1073 1098 c 1,33,34
 1084 1192 1084 1192 1128 1241 c 0,35,36
 1155 1270 1155 1270 1188 1270 c 0,37,38
 1219 1270 1219 1270 1239 1213 c 0,39,40
 1247 1191 1247 1191 1247 1176 c 0,41,42
 1247 1151 1247 1151 1231 1149 c 2,43,-1
 1217 1149 l 2,44,45
 1158 1149 1158 1149 1155 870 c 0,46,47
 1154 645 1154 645 1162 -144 c 0,48,49
 1163 -184 1163 -184 1163 -223 c 0,50,51
 1169 -473 1169 -473 1144 -569 c 0,52,53
 1125 -643 1125 -643 1087 -666 c 1,54,55
 1057 -689 1057 -689 1019 -703 c 0,56,57
 998 -711 998 -711 993 -705 c 0,58,59
 985 -696 985 -696 1008 -666 c 1,60,61
 1059 -603 1059 -603 1063 -460 c 1,62,63
 1063.39 -371.497 1063.39 -371.497 1067 -287 c 0,64,65
 1070 -239 1070 -239 1064 -122 c 0,66,67
 1057 25 1057 25 1057 254 c 1,68,69
 984 111 984 111 914 47 c 0,70,71
 835 -25 835 -25 745 -25 c 0,72,73
 613 -25 613 -25 539 127 c 1,74,75
 465 40 465 40 422 12 c 0,76,77
 364 -27 364 -27 285 -27 c 0,78,79
 186 -27 186 -27 113 70 c 0,80,81
 42 165 42 165 41 287 c 0,82,83
 41 398 41 398 115 510 c 0,84,85
 154 570 154 570 197 600 c 1,86,87
 271.8 655 271.8 655 305 655 c 0,88,89
 328 655 328 655 371 630 c 0,90,91
 416 603 416 603 416 578 c 0,92,93
 416 554 416 554 366 513 c 0,94,95
 346 496 346 496 340 496 c 128,-1,96
 334 496 334 496 305 522 c 0,97,98
 264 559 264 559 231 559 c 0,99,100
 171 559 171 559 141 453 c 0,101,102
 125 395 125 395 125 334 c 0,103,104
 125 205 125 205 205 134 c 0,105,106
 266 80 266 80 356 80 c 0,107,108
 431 80 431 80 485 147 c 0,109,110
 508 176 508 176 508 190 c 1,0,1
EndSplineSet
EndChar

StartChar: W
Encoding: 87 87 56
Width: 1232
VWidth: 1000
Flags: MW
LayerCount: 2
Fore
SplineSet
188 471 m 1,0,1
 357 645 357 645 489 645 c 0,2,3
 584 645 584 645 642 582 c 0,4,5
 664 558 664 558 694 512 c 1,6,7
 750 570 750 570 836 612 c 0,8,9
 906 645 906 645 963 645 c 0,10,11
 1111 645 1111 645 1167 509 c 0,12,13
 1194 442 1194 442 1194 352 c 0,14,15
 1194 259.478 1194 259.478 1114 96 c 1,16,17
 1155 101 1155 101 1227 113 c 0,18,19
 1266 119 1266 119 1266 105 c 0,20,21
 1266 98 1266 98 1255 84 c 0,22,23
 1195 13 1195 13 1052 -15 c 0,24,25
 993 -27 993 -27 932 -27 c 0,26,27
 886 -27 886 -27 671 -11 c 0,28,29
 553 -2 553 -2 471 -2 c 0,30,31
 222 -2 222 -2 194 -37 c 0,32,33
 189 -42 189 -42 190 -49 c 0,34,35
 198 -160 198 -160 200 -422 c 0,36,37
 200 -559 200 -559 195 -600 c 0,38,39
 185 -663 185 -663 61 -731 c 0,40,41
 55 -734 55 -734 55 -725 c 1,42,43
 88 -661 88 -661 94 -607 c 0,44,45
 106.041 -486.594 106.041 -486.594 93 66 c 0,46,47
 87 345 87 345 90 713 c 0,48,49
 93 1128 93 1128 86 1143 c 0,50,51
 80 1158 80 1158 53 1170 c 0,52,53
 37 1176 37 1176 37 1184 c 0,54,55
 37 1200 37 1200 66 1236 c 0,56,57
 97 1274 97 1274 123 1274 c 0,58,59
 175.828 1274 175.828 1274 190 1137 c 0,60,61
 194 1099 194 1099 190 880 c 0,62,63
 187 681 187 681 188 471 c 1,0,1
719 352 m 0,64,65
 719 257.091 719 257.091 657 88 c 1,66,67
 745 80 745 80 854 80 c 0,68,69
 968 80 968 80 1077 92 c 1,70,71
 1108 209 1108 209 1108 293 c 0,72,73
 1108 429 1108 429 1030 499 c 0,74,75
 975 549 975 549 891 549 c 0,76,77
 805 549 805 549 753 506 c 0,78,79
 734 490 734 490 711 463 c 1,80,81
 719 406 719 406 719 352 c 0,64,65
188 70 m 1,82,83
 343 122 343 122 604 100 c 1,84,85
 637 183 637 183 637 276 c 0,86,87
 637 418 637 418 557 494 c 0,88,89
 498 549 498 549 410 549 c 0,90,91
 323 549 323 549 245 475 c 0,92,93
 199 433 199 433 193 401 c 1,94,95
 184 303 184 303 190 172 c 0,96,97
 193 114 193 114 188 70 c 1,82,83
EndSplineSet
EndChar

StartChar: X
Encoding: 88 88 57
Width: 1232
VWidth: 1000
Flags: MW
LayerCount: 2
Fore
SplineSet
1061 254 m 1,0,1
 1005 138 1005 138 986 107 c 0,2,3
 901.71 -27 901.71 -27 766 -27 c 0,4,5
 637 -27 637 -27 571 68 c 0,6,7
 552 95 552 95 541 127 c 1,8,9
 474 34 474 34 412 1 c 0,10,11
 362 -25 362 -25 301 -25 c 0,12,13
 173 -25 173 -25 100 83 c 0,14,15
 47 163 47 163 47 268 c 0,16,17
 47 375 47 375 121 512 c 1,18,19
 91 506 91 506 39 500 c 1,20,21
 -5 492 -5 492 2 513 c 0,22,23
 3 516 3 516 6 520 c 0,24,25
 40 570 40 570 150 609 c 0,26,27
 246 643 246 643 340 643 c 0,28,29
 388 643 388 643 612 627 c 0,30,31
 735 618 735 618 821 618 c 0,32,33
 952 618 952 618 1061 637 c 1,34,35
 1061 893 1061 893 1071 1098 c 0,36,37
 1076 1174 1076 1174 1115 1227 c 0,38,39
 1145 1270 1145 1270 1186 1270 c 0,40,41
 1217 1270 1217 1270 1237 1213 c 0,42,43
 1245 1191 1245 1191 1245 1176 c 0,44,45
 1245 1151 1245 1151 1229 1149 c 2,46,-1
 1214 1149 l 2,47,48
 1156 1149 1156 1149 1153 870 c 1,49,-1
 1165 -223 l 1,50,51
 1171 -484 1171 -484 1144 -580 c 0,52,53
 1126 -644 1126 -644 1092 -666 c 1,54,-1
 1036 -698 l 1,55,56
 1002 -714 1002 -714 995 -705 c 1,57,58
 989 -694 989 -694 1010 -666 c 0,59,60
 1061 -601 1061 -601 1066 -447 c 0,61,62
 1072.16 -297.68 1072.16 -297.68 1068 -130 c 1,63,64
 1061 16 1061 16 1061 254 c 1,0,1
502 260 m 0,65,66
 502 397.231 502 397.231 586 520 c 1,67,68
 391 550 391 550 166 520 c 1,69,70
 131 369 131 369 129 319 c 1,71,72
 129 203 129 203 206 134 c 0,73,74
 267 80 267 80 358 80 c 0,75,76
 433 80 433 80 487 147 c 0,77,78
 510 176 510 176 510 190 c 1,79,80
 502.818 221.324 502.818 221.324 502 260 c 0,65,66
1061 532 m 1,81,82
 923 494 923 494 635 512 c 1,83,84
 588 382 588 382 588 311 c 0,85,86
 588 198 588 198 665 132 c 0,87,88
 726 80 726 80 815 80 c 0,89,90
 916 80 916 80 997 227 c 0,91,92
 1040 305 1040 305 1061 391 c 1,93,-1
 1061 532 l 1,81,82
EndSplineSet
EndChar

StartChar: Z
Encoding: 90 90 59
Width: 806
VWidth: 1000
Flags: MW
LayerCount: 2
Fore
SplineSet
37 281 m 0,0,1
 37 449 37 449 141 514 c 1,2,3
 79 511 79 511 31 496 c 1,4,5
 -22 482 -22 482 25 535 c 0,6,7
 97 616 97 616 172 616 c 0,8,9
 215 617 215 617 376 612 c 0,10,11
 492 608 492 608 623 623 c 1,12,13
 629 661 629 661 632 864 c 0,14,15
 634 989 634 989 639 1094 c 0,16,17
 641 1166 641 1166 682 1223 c 0,18,19
 716 1270 716 1270 760 1270 c 0,20,21
 791 1270 791 1270 811 1213 c 0,22,23
 819 1191 819 1191 819 1176 c 0,24,25
 819 1151 819 1151 803 1149 c 2,26,-1
 788 1149 l 2,27,28
 730 1149 730 1149 727 870 c 0,29,30
 721.283 496.086 721.283 496.086 731 -223 c 0,31,32
 733 -470 733 -470 714 -560 c 0,33,34
 696 -643 696 -643 655 -666 c 1,35,36
 626 -688 626 -688 588 -703 c 0,37,38
 565 -711 565 -711 561 -705 c 0,39,40
 554 -696 554 -696 575 -666 c 1,41,42
 626 -606 626 -606 631 -455 c 1,43,-1
 635 -293 l 1,44,-1
 635 -287 l 0,45,46
 638 -235 638 -235 633 -130 c 0,47,48
 625 10 625 10 625 254 c 1,49,50
 563 131 563 131 534 90 c 0,51,52
 448 -31 448 -31 322 -31 c 0,53,54
 195 -31 195 -31 111 73 c 0,55,56
 37 164 37 164 37 281 c 0,0,1
195 514 m 1,57,58
 119 463.333 119 463.333 119 340 c 0,59,60
 119 230 119 230 190 154 c 0,61,62
 259 80 259 80 367 80 c 0,63,64
 461 80 461 80 537 190 c 0,65,66
 623 313.189 623 313.189 623 463 c 0,67,68
 623 491 623 491 618 524 c 1,69,70
 445 499 445 499 195 514 c 1,57,58
EndSplineSet
EndChar

StartChar: backslash
Encoding: 92 92 61
Width: 753
VWidth: 1000
Flags: MW
LayerCount: 2
Fore
SplineSet
707 442 m 1,0,1
 633.473 270 633.473 270 516 270 c 0,2,3
 458 270 458 270 387 298 c 1,4,5
 309 327 309 327 252 328 c 0,6,7
 204 328 204 328 61 262 c 1,8,9
 94 342 94 342 164 394 c 0,10,11
 224 438 224 438 289 438 c 0,12,13
 349 438 349 438 424 407 c 1,14,15
 499 378 499 378 549 377 c 0,16,17
 612 377 612 377 707 442 c 1,0,1
EndSplineSet
EndChar

StartChar: bracketright
Encoding: 93 93 62
Width: 806
VWidth: 1000
Flags: MW
LayerCount: 2
Fore
SplineSet
700 203 m 0,0,1
 700 158 700 158 639 95 c 0,2,3
 534.955 -14 534.955 -14 408 -14 c 0,4,5
 273 -14 273 -14 186 90 c 0,6,7
 111 179 111 179 111 295 c 0,8,9
 111 428 111 428 194 534 c 0,10,11
 300.128 668 300.128 668 475 668 c 0,12,13
 531 668 531 668 563 657 c 1,14,15
 696 604 696 604 698 557 c 0,16,17
 698 525 698 525 623 492 c 0,18,19
 604 483 604 483 600 483 c 0,20,21
 590 483 590 483 574 506 c 0,22,23
 546 548 546 548 510 564 c 128,-1,24
 474 580 474 580 420 580 c 0,25,26
 275 580 275 580 221 469 c 0,27,28
 197 419 197 419 197 352 c 0,29,30
 197 229 197 229 282 154 c 0,31,32
 354 92 354 92 457 92 c 0,33,34
 552 92 552 92 618 166 c 2,35,-1
 659 214 l 1,36,37
 673 227 673 227 686 227 c 0,38,39
 700 227 700 227 700 203 c 0,0,1
EndSplineSet
EndChar

StartChar: asciicircum
Encoding: 94 94 63
Width: 0
VWidth: 1000
Flags: MW
LayerCount: 2
Fore
SplineSet
-408 1300 m 0,0,1
 -360 1300 -360 1300 -360 1237 c 0,2,3
 -360 1183 -360 1183 -420 1133 c 0,4,5
 -455 1102 -455 1102 -469 1102 c 0,6,7
 -479 1102 -479 1102 -479 1110 c 0,8,9
 -479 1114 -479 1114 -460 1132 c 0,10,11
 -438 1155 -438 1155 -438 1176 c 0,12,13
 -438 1203 -438 1203 -456 1214 c 0,14,15
 -461 1217 -461 1217 -465 1217 c 0,16,17
 -507 1217 -507 1217 -673 1028 c 2,18,-1
 -700 997 l 2,19,20
 -754 934 -754 934 -772 934 c 0,21,22
 -780 934 -780 934 -780 940 c 0,23,24
 -780 957 -780 957 -699 1056 c 0,25,26
 -565 1222 -565 1222 -470 1278 c 0,27,28
 -433 1300 -433 1300 -408 1300 c 0,0,1
EndSplineSet
EndChar

StartChar: underscore
Encoding: 95 95 64
Width: 0
VWidth: 1000
Flags: MW
LayerCount: 2
Fore
SplineSet
-213 -408 m 0,0,1
 -143 -408 -143 -408 -143 -332 c 0,2,3
 -143 -245 -143 -245 -242 -146 c 2,4,-1
 -355 -44 l 2,5,6
 -361 -38 -361 -38 -367 -33 c 0,7,8
 -414 12 -414 12 -414 31 c 0,9,10
 -414 40 -414 40 -406 43 c 1,11,12
 -217 -101 -217 -101 -160 -153 c 0,13,14
 -71 -234 -71 -234 -51 -289 c 0,15,16
 -33 -342 -33 -342 -33 -387 c 0,17,18
 -33 -463 -33 -463 -99 -498 c 0,19,20
 -132 -516 -132 -516 -172 -516 c 0,21,22
 -258 -516 -258 -516 -295 -458 c 0,23,24
 -313 -430 -313 -430 -313 -391 c 0,25,26
 -313 -364 -313 -364 -307 -334 c 1,27,28
 -248 -408 -248 -408 -213 -408 c 0,0,1
EndSplineSet
EndChar

StartChar: grave
Encoding: 96 96 65
Width: 274
VWidth: 1000
Flags: MW
LayerCount: 2
Fore
SplineSet
102 322 m 0,0,1
 104 469 104 469 103 477 c 0,2,3
 99 529 99 529 69 549 c 0,4,5
 59 555 59 555 45 561 c 1,6,7
 18 559 18 559 57 612 c 0,8,9
 116.129 694.124 116.129 694.124 175 634 c 0,10,11
 190 618 190 618 193 608 c 0,12,13
 200 581 200 581 197 483 c 1,14,15
 208 215 208 215 196 115 c 0,16,17
 195 113 195 113 195 111 c 0,18,19
 184 46 184 46 63 -31 c 1,20,21
 55 -34 55 -34 55 -25 c 1,22,23
 92 47 92 47 98 118 c 0,24,25
 100 146 100 146 102 322 c 0,0,1
EndSplineSet
EndChar

StartChar: a
Encoding: 97 97 66
Width: 806
VWidth: 1000
Flags: MW
LayerCount: 2
Fore
SplineSet
625 274 m 1,0,1
 561 124 561 124 509 63 c 0,2,3
 431 -29 431 -29 319 -29 c 0,4,5
 205 -29 205 -29 122 59 c 0,6,7
 37 150 37 150 37 281 c 0,8,9
 37 436 37 436 158 558 c 0,10,11
 209 609 209 609 274 643 c 0,12,13
 296 655 296 655 317 655 c 0,14,15
 350 655 350 655 395 620 c 0,16,17
 426 596 426 596 426 578 c 0,18,19
 426 552 426 552 373 510 c 0,20,21
 354 496 354 496 350 496 c 0,22,23
 344 496 344 496 315 521 c 0,24,25
 275 557 275 557 242 557 c 0,26,27
 179 557 179 557 144 462 c 0,28,29
 121 400 121 400 121 328 c 0,30,31
 121 224 121 224 189 152 c 128,-1,32
 257 80 257 80 367 80 c 0,33,34
 470 80 470 80 556 234 c 0,35,36
 605 322 605 322 625 412 c 1,37,38
 615.513 558.514 615.513 558.514 655 598 c 1,39,40
 688 634 688 634 728 650 c 0,41,42
 744 657 744 657 756 657 c 0,43,44
 783 657 783 657 802 616 c 0,45,46
 811 596 811 596 811 580 c 0,47,48
 811 543 811 543 793 543 c 0,49,50
 742 543 742 543 729 505 c 0,51,52
 722 485 722 485 721 426 c 1,53,54
 713 398 713 398 719 245 c 0,55,56
 743.03 -422.491 743.03 -422.491 714 -560 c 0,57,58
 696 -643 696 -643 655 -666 c 1,59,60
 626 -688 626 -688 588 -703 c 0,61,62
 565 -711 565 -711 561 -705 c 0,63,64
 554 -696 554 -696 575 -666 c 1,65,66
 626 -604 626 -604 631 -459 c 1,67,-1
 635 -292 l 1,68,-1
 635 -287 l 2,69,70
 637 -249 637 -249 631 -98 c 0,71,72
 625 56 625 56 625 274 c 1,0,1
EndSplineSet
EndChar

StartChar: b
Encoding: 98 98 67
Width: 1232
VWidth: 1000
Flags: MW
LayerCount: 2
Fore
SplineSet
516 190 m 1,0,1
 508.675 229.429 508.675 229.429 508 276 c 0,2,3
 508 349 508 349 550 437 c 2,4,-1
 592 520 l 1,5,6
 410 548 410 548 172 520 c 1,7,8
 137 373 137 373 137 317 c 0,9,10
 137 201 137 201 214 133 c 0,11,12
 275 80 275 80 365 80 c 0,13,14
 440 80 440 80 493 146 c 0,15,16
 516 175 516 175 516 190 c 1,0,1
1067 532 m 1,17,18
 929 494 929 494 641 512 c 1,19,20
 597 381 597 381 594 325 c 0,21,-1
 594 313 l 0,22,23
 594 203 594 203 669 135 c 0,24,25
 731 80 731 80 823 80 c 0,26,27
 907 80 907 80 988 208 c 0,28,29
 1044 295 1044 295 1067 391 c 1,30,-1
 1067 532 l 1,17,18
1067 254 m 1,31,32
 983 70 983 70 884 8 c 0,33,34
 822 -31 822 -31 748 -29 c 0,35,36
 653 -27 653 -27 587 65 c 0,37,38
 570 89 570 89 549 127 c 1,39,40
 477 23 477 23 378 -14 c 0,41,42
 338 -29 338 -29 299 -29 c 0,43,44
 200 -29 200 -29 126 64 c 1,45,46
 53 160 53 160 51 279 c 0,47,48
 51 352 51 352 93 443 c 2,49,-1
 127 512 l 1,50,51
 94 506 94 506 35 500 c 1,52,53
 -8 494 -8 494 -5 512 c 0,54,55
 -4 519 -4 519 6 530 c 1,56,57
 57 594 57 594 197 626 c 0,58,59
 272 643 272 643 348 643 c 0,60,61
 413 643 413 643 669 622 c 0,62,63
 800 612 800 612 870 612 c 0,64,65
 909 612 909 612 1084 636 c 0,66,67
 1232 656 1232 656 1239 635 c 0,68,69
 1244 623 1244 623 1210 596 c 1,70,71
 1166 557 1166 557 1163 494 c 1,72,73
 1165.85 301.568 1165.85 301.568 1171 121 c 1,74,75
 1175 59 1175 59 1202 20 c 0,76,77
 1233 -25 1233 -25 1221 -43 c 1,78,79
 1210 -64 1210 -64 1151 -14 c 128,-1,80
 1092 36 1092 36 1078 118 c 0,81,82
 1072 154 1072 154 1067 254 c 1,31,32
EndSplineSet
EndChar

StartChar: c
Encoding: 99 99 68
Width: 806
VWidth: 1000
Flags: MW
LayerCount: 2
Fore
SplineSet
195 514 m 1,0,1
 119 463.333 119 463.333 119 340 c 0,2,3
 119 230 119 230 190 154 c 0,4,5
 259 80 259 80 367 80 c 0,6,7
 461 80 461 80 537 190 c 0,8,9
 623 313.189 623 313.189 623 463 c 0,10,11
 623 491 623 491 618 524 c 1,12,13
 518 509 518 509 195 514 c 1,0,1
625 254 m 1,14,15
 542 89 542 89 455 25 c 0,16,17
 383 -27 383 -27 299 -27 c 0,18,19
 172 -27 172 -27 97 84 c 0,20,21
 37 172 37 172 37 283 c 0,22,23
 37 405 37 405 101 480 c 0,24,25
 120 501 120 501 141 514 c 1,26,27
 79 511 79 511 31 496 c 1,28,29
 -22 482 -22 482 25 535 c 0,30,31
 97 616 97 616 172 616 c 0,32,33
 206 617 206 617 409 614 c 0,34,35
 525 612 525 612 623 623 c 1,36,37
 628 656 628 656 632 903 c 0,38,39
 634 1044 634 1044 641 1096 c 0,40,41
 651 1178 651 1178 692 1231 c 0,42,43
 722 1270 722 1270 760 1270 c 0,44,45
 791 1270 791 1270 811 1213 c 0,46,47
 819 1191 819 1191 819 1176 c 0,48,49
 819 1151 819 1151 803 1149 c 2,50,-1
 788 1149 l 2,51,52
 731 1149 731 1149 725 870 c 1,53,54
 722 347 722 347 729 115 c 0,55,56
 730 69 730 69 766 11 c 0,57,58
 787 -25 787 -25 780 -43 c 1,59,60
 769 -63 769 -63 711 -14 c 0,61,62
 656 31 656 31 641 87 c 0,63,64
 630 130 630 130 625 254 c 1,14,15
EndSplineSet
EndChar

StartChar: d
Encoding: 100 100 69
Width: 806
VWidth: 1000
Flags: MW
LayerCount: 2
Fore
SplineSet
625 274 m 1,0,1
 570 147 570 147 536 98 c 0,2,3
 449 -25 449 -25 303 -25 c 0,4,5
 203 -25 203 -25 126 55 c 0,6,7
 37 146 37 146 37 285 c 0,8,9
 37 436 37 436 155 556 c 0,10,11
 207 609 207 609 272 643 c 1,12,13
 298 655 298 655 315 655 c 0,14,15
 350 655 350 655 395 620 c 0,16,17
 426 596 426 596 426 578 c 0,18,19
 426 551 426 551 374 511 c 0,20,21
 354 496 354 496 348 496 c 128,-1,22
 342 496 342 496 313 521 c 0,23,24
 273 557 273 557 242 557 c 0,25,26
 182 557 182 557 146 475 c 0,27,28
 119 416 119 416 119 344 c 0,29,30
 119 214 119 214 202 139 c 0,31,32
 267 80 267 80 365 80 c 0,33,34
 472 80 472 80 558 239 c 0,35,36
 603 323 603 323 625 414 c 1,37,38
 625 971 625 971 641 1098 c 1,39,40
 655 1195 655 1195 701 1242 c 0,41,42
 728 1270 728 1270 760 1270 c 0,43,44
 791 1270 791 1270 811 1213 c 0,45,46
 819 1191 819 1191 819 1176 c 0,47,48
 819 1151 819 1151 803 1149 c 2,49,-1
 788 1149 l 2,50,51
 731 1149 731 1149 725 870 c 1,52,53
 723 511 723 511 729 121 c 0,54,55
 730 70 730 70 765 11 c 0,56,57
 788.565 -27.1527 788.565 -27.1527 778 -43 c 1,58,59
 769 -65 769 -65 709 -14 c 0,60,61
 653 33 653 33 638 102 c 0,62,63
 628 149 628 149 625 274 c 1,0,1
EndSplineSet
EndChar

StartChar: e
Encoding: 101 101 70
Width: 806
VWidth: 1000
Flags: MW
LayerCount: 2
Fore
SplineSet
188 84 m 1,0,1
 228 103 228 103 627 100 c 1,2,3
 655 236 655 236 655 297 c 0,4,5
 655 421 655 421 576 493 c 0,6,7
 514 549 514 549 422 549 c 0,8,9
 334 549 334 549 257 485 c 0,10,11
 201 438 201 438 201 401 c 1,12,13
 192 309 192 309 192 170 c 0,14,15
 191 124 191 124 188 84 c 1,0,1
123 1274 m 0,16,17
 182.171 1274 182.171 1274 190 1137 c 1,18,-1
 190 644 l 1,19,20
 191 560 191 560 193 479 c 1,21,22
 351.783 645 351.783 645 500 645 c 0,23,24
 671 645 671 645 722 487 c 0,25,26
 741 429 741 429 741 352 c 0,27,28
 741 249.111 741 249.111 680 100 c 1,29,30
 735 105 735 105 791 119 c 0,31,32
 818 125 818 125 818 114 c 0,33,34
 818 105 818 105 799 82 c 0,35,36
 737 12 737 12 667 -2 c 0,37,38
 637 -8 637 -8 594 -8 c 1,39,-1
 303 8 l 1,40,41
 213 8 213 8 78 -14 c 1,42,43
 54 -21 54 -21 55 1 c 0,44,45
 55 6 55 6 57 14 c 1,46,47
 100 64 100 64 100 317 c 1,48,-1
 92 713 l 1,49,50
 95 1124 95 1124 86 1143 c 0,51,52
 80 1158 80 1158 53 1170 c 0,53,54
 37 1176 37 1176 37 1184 c 0,55,56
 37 1200 37 1200 66 1236 c 0,57,58
 97 1274 97 1274 123 1274 c 0,16,17
EndSplineSet
EndChar

StartChar: f
Encoding: 102 102 71
Width: 1232
VWidth: 1000
Flags: MW
LayerCount: 2
Fore
SplineSet
1153 870 m 1,0,-1
 1163 121 l 1,1,2
 1163 70 1163 70 1199 10 c 0,3,4
 1220.55 -25.909 1220.55 -25.909 1212 -43 c 0,5,6
 1201 -63 1201 -63 1143 -14 c 0,7,8
 1083 36 1083 36 1068 114 c 0,9,10
 1062 151 1062 151 1057 254 c 1,11,12
 984 111 984 111 914 47 c 0,13,14
 835 -25 835 -25 745 -25 c 0,15,16
 613 -25 613 -25 539 127 c 1,17,18
 465 40 465 40 422 12 c 0,19,20
 364 -27 364 -27 285 -27 c 0,21,22
 186 -27 186 -27 113 70 c 0,23,24
 42 165 42 165 41 287 c 0,25,26
 41 398 41 398 115 510 c 0,27,28
 154 570 154 570 197 600 c 1,29,30
 271.8 655 271.8 655 305 655 c 0,31,32
 328 655 328 655 371 630 c 0,33,34
 416 603 416 603 416 578 c 0,35,36
 416 554 416 554 366 513 c 0,37,38
 346 496 346 496 340 496 c 128,-1,39
 334 496 334 496 305 522 c 0,40,41
 264 559 264 559 231 559 c 0,42,43
 171 559 171 559 141 453 c 0,44,45
 125 395 125 395 125 334 c 0,46,47
 125 205 125 205 205 134 c 0,48,49
 266 80 266 80 356 80 c 0,50,51
 431 80 431 80 485 147 c 0,52,53
 508 176 508 176 508 190 c 1,54,55
 498.313 220.07 498.313 220.07 498 260 c 0,56,57
 498 390 498 390 583 517 c 0,58,59
 650 619 650 619 725 647 c 0,60,61
 745 655 745 655 764 655 c 0,62,63
 801 655 801 655 843 619 c 0,64,65
 872 595 872 595 872 575 c 0,66,67
 872 554 872 554 825 514 c 0,68,69
 804 496 804 496 797 496 c 128,-1,70
 790 496 790 496 760 523 c 0,71,72
 721 559 721 559 694 559 c 0,73,74
 649 559 649 559 615 483 c 0,75,76
 584 415 584 415 584 336 c 0,77,78
 584 199 584 199 670 128 c 0,79,80
 728 80 728 80 813 80 c 0,81,82
 916 80 916 80 997 231 c 0,83,84
 1037 305 1037 305 1059 391 c 1,85,86
 1054 698 1054 698 1064 978 c 0,87,88
 1067 1062 1067 1062 1071 1098 c 0,89,90
 1082 1192 1082 1192 1126 1241 c 0,91,92
 1153 1270 1153 1270 1186 1270 c 0,93,94
 1217 1270 1217 1270 1237 1213 c 0,95,96
 1245 1191 1245 1191 1245 1176 c 0,97,98
 1245 1151 1245 1151 1229 1149 c 2,99,-1
 1214 1149 l 2,100,101
 1156 1149 1156 1149 1153 870 c 1,0,-1
EndSplineSet
EndChar

StartChar: g
Encoding: 103 103 72
Width: 1232
VWidth: 1000
Flags: MW
LayerCount: 2
Fore
SplineSet
522 190 m 1,0,1
 512.313 220.07 512.313 220.07 512 260 c 0,2,3
 512 390 512 390 597 517 c 0,4,5
 665 619 665 619 739 647 c 0,6,7
 760 655 760 655 778 655 c 0,8,9
 814 655 814 655 857 620 c 0,10,11
 887 595 887 595 887 575 c 0,12,13
 887 554 887 554 839 514 c 0,14,15
 818 496 818 496 811 496 c 0,16,17
 805 496 805 496 774 524 c 0,18,19
 736 559 736 559 709 559 c 0,20,21
 663 559 663 559 629 482 c 0,22,23
 598 414 598 414 598 336 c 0,24,25
 598 199 598 199 684 128 c 0,26,27
 742 80 742 80 827 80 c 0,28,29
 925 80 925 80 1005 219 c 0,30,31
 1051 299 1051 299 1073 391 c 1,32,33
 1064 558 1064 558 1104 598 c 1,34,35
 1129 628 1129 628 1168 647 c 0,36,37
 1189 657 1189 657 1204 657 c 0,38,39
 1232 657 1232 657 1251 616 c 0,40,41
 1260 596 1260 596 1260 580 c 0,42,43
 1260 543 1260 543 1241 543 c 0,44,45
 1182 543 1182 543 1168 495 c 0,46,47
 1161 471 1161 471 1161 428 c 0,48,49
 1161 87.1429 1161 87.1429 1208 20 c 0,50,51
 1239 -25 1239 -25 1227 -43 c 0,52,53
 1215 -63 1215 -63 1157 -14 c 0,54,55
 1097 36 1097 36 1082 114 c 0,56,57
 1076 151 1076 151 1071 254 c 1,58,59
 1009 130 1009 130 974 84 c 0,60,61
 888 -27 888 -27 766 -27 c 0,62,63
 622 -27 622 -27 553 127 c 1,64,65
 481 38 481 38 435 7 c 0,66,67
 379 -29 379 -29 307 -29 c 0,68,69
 203 -29 203 -29 127 72 c 1,70,71
 57 171 57 171 55 287 c 0,72,73
 55 398 55 398 129 510 c 0,74,75
 168 570 168 570 211 600 c 0,76,77
 287 652 287 652 319 655 c 1,78,79
 342 655 342 655 385 630 c 0,80,81
 430 603 430 603 430 578 c 0,82,83
 430 554 430 554 381 513 c 0,84,85
 360 496 360 496 354 496 c 128,-1,86
 348 496 348 496 320 521 c 0,87,88
 279 559 279 559 246 559 c 0,89,90
 185 559 185 559 155 453 c 0,91,92
 139 395 139 395 139 334 c 0,93,94
 139 205 139 205 220 134 c 0,95,96
 280 80 280 80 371 80 c 0,97,98
 445 80 445 80 499 147 c 0,99,100
 522 176 522 176 522 190 c 1,0,1
EndSplineSet
EndChar

StartChar: h
Encoding: 104 104 73
Width: 806
VWidth: 1000
Flags: MW
LayerCount: 2
Fore
SplineSet
625 274 m 1,0,1
 559 123 559 123 502 61 c 0,2,3
 421 -27 421 -27 299 -27 c 0,4,5
 182 -27 182 -27 106 71 c 0,6,7
 37 159 37 159 37 281 c 0,8,9
 37 436 37 436 158 558 c 0,10,11
 209 609 209 609 274 643 c 0,12,13
 296 655 296 655 317 655 c 0,14,15
 350 655 350 655 395 620 c 0,16,17
 426 596 426 596 426 578 c 0,18,19
 426 552 426 552 373 510 c 0,20,21
 354 496 354 496 350 496 c 0,22,23
 344 496 344 496 315 521 c 0,24,25
 275 557 275 557 242 557 c 0,26,27
 179 557 179 557 144 462 c 0,28,29
 121 400 121 400 121 328 c 0,30,31
 121 224 121 224 189 152 c 128,-1,32
 257 80 257 80 367 80 c 0,33,34
 470 80 470 80 555 233 c 0,35,36
 605 322 605 322 625 414 c 1,37,38
 616.556 557.556 616.556 557.556 657 598 c 1,39,40
 690 634 690 634 730 650 c 0,41,42
 746 657 746 657 758 657 c 0,43,44
 785 657 785 657 804 616 c 0,45,46
 813 596 813 596 813 580 c 0,47,48
 813 543 813 543 795 543 c 0,49,50
 736 543 736 543 722 496 c 0,51,52
 715 472 715 472 715 428 c 0,53,54
 715 87.1429 715 87.1429 762 20 c 0,55,56
 792 -25 792 -25 780 -43 c 0,57,58
 769 -63 769 -63 711 -14 c 0,59,60
 649 37 649 37 635 136 c 0,61,62
 629 173 629 173 625 274 c 1,0,1
EndSplineSet
EndChar

StartChar: i
Encoding: 105 105 74
Width: 806
VWidth: 1000
Flags: MW
LayerCount: 2
Fore
SplineSet
59 246 m 0,0,1
 59 341 59 341 141 460 c 0,2,3
 229 590 229 590 347 645 c 0,4,5
 411 676 411 676 473 676 c 0,6,7
 591 676 591 676 666 597 c 0,8,9
 737 522 737 522 737 399 c 0,10,11
 737 191 737 191 442 -294 c 0,12,13
 251.312 -607.459 251.312 -607.459 200 -634 c 0,14,15
 192 -639 192 -639 184 -639 c 128,-1,16
 176 -639 176 -639 176 -633 c 0,17,18
 176 -628 176 -628 272 -482 c 1,19,20
 656 109 656 109 662 342 c 1,21,22
 662 445 662 445 582 511 c 0,23,24
 516 565 516 565 430 565 c 0,25,26
 310 565 310 565 224 479 c 0,27,28
 148 404 148 404 147 311 c 0,29,30
 147 246 147 246 218 212 c 2,31,-1
 263 191 l 1,32,33
 270 185 270 185 270 180 c 0,34,35
 270 162 270 162 232 128 c 0,36,37
 199 98 199 98 176 98 c 0,38,39
 148 98 148 98 111 131 c 0,40,41
 59 177 59 177 59 246 c 0,0,1
EndSplineSet
EndChar

StartChar: j
Encoding: 106 106 75
Width: 1232
VWidth: 1000
Flags: MW
LayerCount: 2
Fore
SplineSet
872 481 m 1,0,1
 649.333 481 649.333 481 524 528 c 1,2,-1
 365 387 l 1,3,4
 249 278 249 278 212 183 c 0,5,6
 188 119 188 119 188 45 c 0,7,8
 188 -133 188 -133 287 -228 c 0,9,10
 318 -259 318 -259 365 -287 c 0,11,12
 451 -340 451 -340 626 -361 c 0,13,14
 691 -369 691 -369 750 -369 c 0,15,16
 925 -369 925 -369 996 -294 c 0,17,18
 1034 -253 1034 -253 1034 -195 c 0,19,20
 1034 -161 1034 -161 1007 -136 c 0,21,22
 997 -128 997 -128 997 -123 c 0,23,24
 997 -106 997 -106 1042 -78 c 0,25,26
 1068 -61 1068 -61 1079 -61 c 0,27,28
 1108 -61 1108 -61 1108 -152 c 0,29,30
 1108 -262 1108 -262 993 -354 c 1,31,32
 863 -463 863 -463 651 -469 c 0,33,-1
 629 -469 l 0,34,35
 343 -469 343 -469 192 -289 c 0,36,37
 86 -162.978 86 -162.978 86 -20 c 0,38,39
 86 145 86 145 210 285 c 0,40,41
 243 322 243 322 346 416 c 0,42,43
 430 493 430 493 463 543 c 1,44,45
 412 557 412 557 315 557 c 0,46,47
 169 557 169 557 104 506 c 1,48,49
 91 487 91 487 88 510 c 1,50,51
 77 554 77 554 180 627 c 1,52,53
 223 655 223 655 311 655 c 0,54,55
 397 655 397 655 634 615 c 0,56,57
 870 575 870 575 973 575 c 0,58,59
 1104 575 1104 575 1186 625 c 0,60,61
 1208 638 1208 638 1208 618 c 1,62,63
 1211 588 1211 588 1151 550 c 1,64,65
 1036 483 1036 483 872 481 c 1,0,1
EndSplineSet
EndChar

StartChar: k
Encoding: 107 107 76
Width: 806
VWidth: 1000
Flags: MW
LayerCount: 2
Fore
SplineSet
600 422 m 1,0,-1
 565 412 l 1,1,2
 543 412 543 412 565 454 c 0,3,4
 590 500 590 500 623 520 c 0,5,6
 634 526 634 526 643 526 c 0,7,8
 689 526 689 526 716 476 c 0,9,10
 733 446 733 446 733 410 c 0,11,12
 733 293 733 293 639 165 c 0,13,14
 552 47 552 47 446 1 c 0,15,16
 399 -20 399 -20 356 -20 c 0,17,18
 300 -20 300 -20 252 0 c 1,19,20
 186 -87 186 -87 186 -186 c 0,21,22
 186 -297 186 -297 264 -366 c 0,23,24
 331 -424 331 -424 430 -424 c 128,-1,25
 529 -424 529 -424 616 -361 c 0,26,27
 692 -306 692 -306 694 -246 c 0,28,29
 694 -226 694 -226 664 -212 c 0,30,31
 636 -198 636 -198 632 -189 c 0,32,33
 631 -186 631 -186 631 -182 c 0,34,35
 631 -160 631 -160 650 -124 c 0,36,37
 671 -84 671 -84 698 -84 c 0,38,39
 752 -84 752 -84 752 -178 c 0,40,41
 752 -258 752 -258 670 -359 c 0,42,43
 582 -469 582 -469 470 -510 c 0,44,45
 422 -528 422 -528 377 -528 c 0,46,47
 258 -528 258 -528 175 -451 c 0,48,49
 96 -377 96 -377 96 -270 c 0,50,51
 96 -197.8 96 -197.8 195 20 c 1,52,53
 79 91 79 91 53 177 c 0,54,55
 43 210 43 210 43 248 c 0,56,57
 43 474 43 474 332 883 c 0,58,59
 427 1016 427 1016 526 1133 c 0,60,61
 642.379 1268 642.379 1268 664 1268 c 0,62,63
 672 1268 672 1268 672 1260 c 0,64,65
 672 1240 672 1240 579 1127 c 0,66,67
 414 925 414 925 344 823 c 0,68,69
 139 525 139 525 139 322 c 0,70,71
 139 191 139 191 242 127 c 0,72,73
 308 86 308 86 395 86 c 0,74,75
 494 86 494 86 580 158 c 1,76,77
 661 236 661 236 666 317 c 1,78,79
 666 364 666 364 638 400 c 0,80,81
 620 422 620 422 600 422 c 1,0,-1
EndSplineSet
EndChar

StartChar: l
Encoding: 108 108 77
Width: 806
VWidth: 1000
Flags: MW
LayerCount: 2
Fore
SplineSet
125 78 m 1,0,1
 186 78 186 78 305 343 c 0,2,3
 332 403 332 403 348 444 c 1,4,5
 287 557 287 557 256 557 c 0,6,7
 242 557 242 557 217 532 c 0,8,9
 205 520 205 520 199 520 c 0,10,11
 190 520 190 520 188 530 c 1,12,13
 188 550 188 550 229 599 c 0,14,15
 276 655 276 655 309 655 c 0,16,17
 363 655 363 655 501 364 c 2,18,-1
 512 342 l 2,19,20
 559 243 559 243 621 161 c 0,21,22
 668 98 668 98 694 98 c 0,23,24
 715 98 715 98 752 149 c 0,25,26
 782 188 782 188 793 190 c 0,27,28
 801 190 801 190 801 178 c 0,29,30
 801 153 801 153 761 84 c 0,31,32
 706 -8 706 -8 666 -8 c 0,33,34
 605 -8 605 -8 483 206 c 2,35,-1
 383 381 l 1,36,37
 285 194 285 194 238 122 c 0,38,39
 137 -33 137 -33 76 -33 c 0,40,41
 42 -33 42 -33 15 8 c 0,42,43
 2 28 2 28 2 43 c 0,44,45
 2 81 2 81 55 137 c 0,46,47
 73 156 73 156 78 156 c 0,48,49
 84 156 84 156 87 129 c 1,50,51
 97 81 97 81 125 78 c 1,0,1
EndSplineSet
EndChar

StartChar: m
Encoding: 109 109 78
Width: 1232
VWidth: 1000
Flags: MW
LayerCount: 2
Fore
SplineSet
522 -8 m 0,0,1
 248 -8 248 -8 248 197 c 0,2,3
 248 321 248 321 455 477 c 2,4,-1
 520 524 l 1,5,6
 408 553 408 553 354 555 c 0,7,-1
 336 555 l 0,8,9
 183 555 183 555 123 504 c 1,10,-1
 96 477 l 1,11,12
 89 477 89 477 86 489 c 1,13,-1
 86 496 l 2,14,15
 86 527 86 527 168 593 c 0,16,17
 187 607 187 607 190 610 c 0,18,19
 257 659 257 659 383 659 c 0,20,21
 456 659 456 659 593 629 c 0,22,23
 770 591 770 591 908 588 c 0,24,-1
 934 588 l 0,25,26
 1106 588 1106 588 1171 643 c 0,27,28
 1180 651 1180 651 1188 651 c 0,29,30
 1193 651 1193 651 1196 641 c 1,31,-1
 1196 637 l 2,32,33
 1196 608.714 1196 608.714 1130 571 c 1,34,35
 993.2 487 993.2 487 791 487 c 0,36,37
 654 487 654 487 578 502 c 1,38,39
 502 463 502 463 473 443 c 0,40,41
 344 353 344 353 344 240 c 0,42,43
 344 134 344 134 422 100 c 0,44,45
 475 76 475 76 592 76 c 0,46,47
 633 76 633 76 791 95 c 0,48,49
 871 104 871 104 920 104 c 0,50,51
 1051 104 1051 104 1079 23 c 0,52,53
 1087 -2 1087 -2 1087 -35 c 0,54,55
 1087 -119.667 1087 -119.667 991 -221 c 1,56,57
 805 -432 805 -432 532 -432 c 0,58,59
 429 -432 429 -432 338 -396 c 0,60,61
 246 -359 246 -359 246 -303 c 0,62,63
 246 -274 246 -274 298 -218 c 0,64,65
 334 -180 334 -180 348 -180 c 0,66,67
 354 -180 354 -180 354 -188 c 1,68,-1
 344 -242 l 1,69,-1
 344 -244 l 1,70,71
 344 -325 344 -325 519 -342 c 0,72,73
 557 -346 557 -346 598 -346 c 0,74,75
 817 -346 817 -346 893 -270 c 0,76,77
 981 -182 981 -182 981 -84 c 0,78,79
 981 -14 981 -14 942 4 c 0,80,81
 919 14 919 14 864 14 c 0,82,83
 831 14 831 14 656 -1 c 0,84,85
 575 -8 575 -8 522 -8 c 0,0,1
EndSplineSet
EndChar

StartChar: n
Encoding: 110 110 79
Width: 806
VWidth: 1000
Flags: MW
LayerCount: 2
Fore
SplineSet
618 528 m 1,0,1
 462 504 462 504 195 528 c 1,2,3
 121 458 121 458 121 338 c 0,4,5
 121 225 121 225 194 150 c 0,6,7
 262 80 262 80 367 80 c 0,8,9
 461 80 461 80 537 190 c 0,10,11
 623 313.189 623 313.189 623 463 c 0,12,13
 623 495 623 495 618 528 c 1,0,1
37 283 m 0,14,15
 37 440.421 37 440.421 141 528 c 1,16,17
 94 526 94 526 31 502 c 0,18,19
 -5 489 -5 489 5 513 c 0,20,21
 10 525 10 525 25 545 c 1,22,23
 84 604 84 604 145 619 c 0,24,25
 185 629 185 629 244 629 c 1,26,-1
 506 621 l 1,27,-1
 508 621 l 2,28,29
 600 621 600 621 677 641 c 0,30,31
 714 651 714 651 745 651 c 0,32,33
 792 651 792 651 797 631 c 1,34,35
 797 619 797 619 768 596 c 0,36,37
 715 553 715 553 715 397 c 0,38,39
 715 367 715 367 726 179 c 0,40,41
 728 142 728 142 729 115 c 0,42,43
 730 69 730 69 766 11 c 0,44,45
 787 -25 787 -25 780 -43 c 1,46,47
 769 -63 769 -63 711 -14 c 0,48,49
 656 31 656 31 641 87 c 0,50,51
 630 130 630 130 625 254 c 1,52,53
 542 89 542 89 455 25 c 0,54,55
 383 -27 383 -27 299 -27 c 0,56,57
 172 -27 172 -27 97 84 c 0,58,59
 37 172 37 172 37 283 c 0,14,15
EndSplineSet
EndChar

StartChar: o
Encoding: 111 111 80
Width: 806
VWidth: 1000
Flags: MW
LayerCount: 2
Fore
SplineSet
623 172 m 1,0,1
 577 56 577 56 475 4 c 0,2,3
 413 -28 413 -28 340 -27 c 0,4,5
 205 -27 205 -27 128 81 c 0,6,7
 68 165 68 165 68 285 c 0,8,9
 68 408 68 408 151 517 c 0,10,11
 253 653 253 653 387 653 c 0,12,13
 511 653 511 653 573 618 c 0,14,15
 599 603 599 603 621 580 c 1,16,-1
 624 923 l 1,17,18
 632.491 1166.4 632.491 1166.4 701 1241 c 0,19,20
 728 1270 728 1270 760 1270 c 0,21,22
 791 1270 791 1270 811 1213 c 0,23,24
 819 1191 819 1191 819 1176 c 0,25,26
 819 1151 819 1151 803 1149 c 2,27,-1
 788 1149 l 2,28,29
 732 1149 732 1149 723 868 c 1,30,31
 721 419 721 419 725 -121 c 1,32,33
 787 -106 787 -106 836 -119 c 0,34,35
 916.413 -138.751 916.413 -138.751 1030 -117 c 0,36,37
 1050 -114 1050 -114 1049 -125 c 0,38,39
 1049 -133 1049 -133 1038 -150 c 1,40,41
 987 -256 987 -256 868 -221 c 0,42,43
 758 -187 758 -187 657 -205 c 1,44,45
 612 -208 612 -208 618 -143 c 1,46,-1
 623 172 l 1,0,1
614 342 m 0,47,48
 614 471 614 471 507 530 c 0,49,50
 444 565 444 565 362 565 c 0,51,52
 230 565 230 565 175 457 c 0,53,54
 145 399 145 399 145 319 c 0,55,56
 145 178 145 178 237 116 c 0,57,58
 291 80 291 80 369 80 c 0,59,60
 470 80 470 80 543 162 c 0,61,62
 614 240 614 240 614 342 c 0,47,48
EndSplineSet
EndChar

StartChar: q
Encoding: 113 113 82
Width: 806
VWidth: 1000
Flags: MW
LayerCount: 2
Fore
SplineSet
741 352 m 0,0,1
 741 249.111 741 249.111 680 100 c 1,2,3
 735 105 735 105 791 119 c 0,4,5
 818 125 818 125 818 114 c 0,6,7
 818 105 818 105 799 82 c 1,8,9
 719 -5 719 -5 608 -10 c 0,10,-1
 592 -10 l 2,11,-1
 402 3 l 1,12,13
 193 10 193 10 193 -39 c 1,14,15
 203 -460 203 -460 196 -587 c 1,16,17
 196 -657.959 196 -657.959 63 -731 c 1,18,19
 54 -734 54 -734 57 -725 c 1,20,21
 89 -660 89 -660 95 -602 c 0,22,23
 99 -569 99 -569 102 -385 c 0,24,25
 108 -39 108 -39 99 368 c 0,26,27
 95 521 95 521 90 528 c 0,28,29
 75 549 75 549 47 564 c 0,30,31
 35 570 35 570 35 580 c 0,32,33
 35 599 35 599 64 633 c 0,34,35
 94 668 94 668 121 668 c 0,36,37
 192 668 192 668 192 541 c 1,38,-1
 190 473 l 1,39,40
 362 645 362 645 500 645 c 0,41,42
 671 645 671 645 722 487 c 0,43,44
 741 429 741 429 741 352 c 0,0,1
188 84 m 1,45,46
 228 103 228 103 627 100 c 1,47,48
 655 236 655 236 655 297 c 0,49,50
 655 434 655 434 564 503 c 0,51,52
 505 549 505 549 424 549 c 0,53,54
 308 549 308 549 230 461 c 0,55,56
 195 421 195 421 195 401 c 1,57,58
 186 304 186 304 191 184 c 0,59,60
 193 131 193 131 188 84 c 1,45,46
EndSplineSet
EndChar

StartChar: r
Encoding: 114 114 83
Width: 1232
VWidth: 1000
Flags: MW
LayerCount: 2
Fore
SplineSet
719 352 m 0,0,1
 719 257.091 719 257.091 657 88 c 1,2,3
 879 69 879 69 1077 92 c 1,4,5
 1108 209 1108 209 1108 293 c 0,6,7
 1108 428 1108 428 1032 499 c 0,8,9
 976 551 976 551 891 551 c 128,-1,10
 806 551 806 551 753 506 c 0,11,12
 735 490 735 490 711 463 c 1,13,14
 719 406 719 406 719 352 c 0,0,1
188 70 m 1,15,16
 343 122 343 122 604 100 c 1,17,18
 637 183 637 183 637 276 c 0,19,20
 637 418 637 418 557 494 c 0,21,22
 498 549 498 549 410 549 c 0,23,24
 323 549 323 549 245 475 c 0,25,26
 199 433 199 433 193 401 c 1,27,28
 184 303 184 303 190 172 c 0,29,30
 193 114 193 114 188 70 c 1,15,16
123 1274 m 0,31,32
 182.171 1274 182.171 1274 190 1137 c 1,33,-1
 190 642 l 1,34,35
 191 558 191 558 193 477 c 1,36,37
 354 645 354 645 489 645 c 0,38,39
 584 645 584 645 642 582 c 0,40,41
 664 558 664 558 694 512 c 1,42,43
 750 570 750 570 836 612 c 0,44,45
 906 645 906 645 963 645 c 0,46,47
 1111 645 1111 645 1167 509 c 0,48,49
 1194 442 1194 442 1194 352 c 0,50,51
 1194 259.478 1194 259.478 1114 96 c 1,52,53
 1155 101 1155 101 1227 113 c 0,54,55
 1266 119 1266 119 1266 105 c 0,56,57
 1266 98 1266 98 1255 84 c 0,58,59
 1191 8 1191 8 1038 -18 c 0,60,61
 983 -27 983 -27 926 -27 c 0,62,63
 860 -27 860 -27 583 -6 c 0,64,65
 441 4 441 4 365 4 c 0,66,67
 211 4 211 4 63 -45 c 1,68,69
 55 -45 55 -45 55 -41 c 1,70,71
 91 58 91 58 97 125 c 1,72,73
 100.276 382.569 100.276 382.569 92 713 c 1,74,75
 95 1124 95 1124 86 1143 c 0,76,77
 80 1158 80 1158 53 1170 c 0,78,79
 37 1176 37 1176 37 1184 c 0,80,81
 37 1200 37 1200 66 1236 c 0,82,83
 97 1274 97 1274 123 1274 c 0,31,32
EndSplineSet
EndChar

StartChar: s
Encoding: 115 115 84
Width: 1232
VWidth: 1000
Flags: MW
LayerCount: 2
Fore
SplineSet
508 190 m 1,0,1
 498.313 220.07 498.313 220.07 498 260 c 0,2,3
 498 354 498 354 532 434 c 0,4,5
 551 480 551 480 612 551 c 0,6,7
 701 655 701 655 764 655 c 0,8,9
 801 655 801 655 843 619 c 0,10,11
 872 595 872 595 872 575 c 0,12,13
 872 554 872 554 825 514 c 0,14,15
 804 496 804 496 797 496 c 128,-1,16
 790 496 790 496 760 523 c 0,17,18
 721 559 721 559 694 559 c 0,19,20
 646 559 646 559 612 476 c 0,21,22
 584 408 584 408 584 338 c 0,23,24
 584 218 584 218 656 144 c 0,25,26
 718 80 718 80 813 80 c 0,27,28
 909 80 909 80 992 215 c 0,29,30
 1042 297 1042 297 1065 389 c 1,31,32
 1059 553 1059 553 1104 598 c 1,33,34
 1129 628 1129 628 1168 647 c 0,35,36
 1189 657 1189 657 1204 657 c 0,37,38
 1232 657 1232 657 1251 616 c 0,39,40
 1260 596 1260 596 1260 580 c 0,41,42
 1260 543 1260 543 1241 543 c 0,43,44
 1182 543 1182 543 1168 495 c 0,45,46
 1161 471 1161 471 1161 428 c 0,47,48
 1157 269 1157 269 1163 -223 c 1,49,50
 1169 -473 1169 -473 1144 -569 c 0,51,52
 1125 -643 1125 -643 1087 -666 c 1,53,54
 1057 -689 1057 -689 1019 -703 c 0,55,56
 998 -711 998 -711 993 -705 c 0,57,58
 985 -696 985 -696 1008 -666 c 1,59,60
 1059 -603 1059 -603 1063 -460 c 1,61,62
 1063.39 -371.497 1063.39 -371.497 1067 -287 c 1,63,64
 1071 -234 1071 -234 1067 -94 c 0,65,66
 1063 48 1063 48 1063 252 c 1,67,68
 999 123 999 123 957 73 c 0,69,70
 878 -23 878 -23 766 -23 c 0,71,72
 649 -23 649 -23 581 62 c 0,73,74
 560 88 560 88 539 127 c 1,75,76
 468 27 468 27 394 -5 c 0,77,78
 347 -25 347 -25 291 -25 c 0,79,80
 178 -25 178 -25 103 83 c 0,81,82
 41 174 41 174 41 283 c 0,83,84
 41 406 41 406 129 530 c 0,85,86
 164 579 164 579 221 619 c 0,87,88
 271 655 271 655 309 655 c 0,89,90
 343 655 343 655 385 620 c 0,91,92
 416 595 416 595 416 575 c 0,93,94
 416 554 416 554 366 513 c 0,95,96
 346 496 346 496 340 496 c 128,-1,97
 334 496 334 496 305 522 c 0,98,99
 264 559 264 559 231 559 c 0,100,101
 171 559 171 559 141 452 c 0,102,103
 125 394 125 394 125 334 c 0,104,105
 125 222 125 222 195 148 c 0,106,107
 259 80 259 80 356 80 c 0,108,109
 431 80 431 80 485 147 c 0,110,111
 508 176 508 176 508 190 c 1,0,1
EndSplineSet
EndChar

StartChar: t
Encoding: 116 116 85
Width: 1232
VWidth: 1000
Flags: MW
LayerCount: 2
Fore
SplineSet
193 471 m 1,0,1
 364.323 645 364.323 645 492 645 c 0,2,3
 583 645 583 645 641 585 c 0,4,5
 663 561 663 561 696 512 c 1,6,7
 752 570 752 570 838 612 c 0,8,9
 908 645 908 645 963 645 c 0,10,11
 1105 645 1105 645 1163 520 c 0,12,13
 1194 452 1194 452 1194 358 c 0,14,15
 1194 273 1194 273 1149 168 c 2,16,-1
 1116 96 l 1,17,18
 1155 101 1155 101 1227 113 c 0,19,20
 1268 119 1268 119 1267 105 c 0,21,22
 1267 98 1267 98 1255 84 c 0,23,24
 1193 8 1193 8 1037 -18 c 0,25,26
 982 -27 982 -27 926 -27 c 0,27,28
 862 -27 862 -27 584 -6 c 0,29,30
 442 4 442 4 365 4 c 0,31,32
 206 4 206 4 66 -45 c 1,33,34
 57 -45 57 -45 57 -41 c 1,35,36
 92 53 92 53 95 115 c 0,37,38
 96 129 96 129 92 319 c 1,39,-1
 94 474 l 1,40,41
 93 518 93 518 88 526 c 0,42,43
 75 545 75 545 47 562 c 0,44,45
 35 570 35 570 35 580 c 0,46,47
 35 599 35 599 64 633 c 0,48,49
 94 668 94 668 121 668 c 0,50,51
 194 668 194 668 194 532 c 1,52,-1
 193 471 l 1,0,1
657 88 m 1,53,54
 879 69 879 69 1077 92 c 1,55,56
 1108 201 1108 201 1108 295 c 0,57,58
 1108 431 1108 431 1030 501 c 0,59,60
 975 551 975 551 891 551 c 0,61,62
 805 551 805 551 751 503 c 0,63,64
 734 488 734 488 713 463 c 1,65,66
 721 408 721 408 721 356 c 0,67,68
 721 273 721 273 681 156 c 0,69,70
 673 131 673 131 657 88 c 1,53,54
188 70 m 1,71,72
 343 122 343 122 606 100 c 1,73,74
 639 183 639 183 639 274 c 0,75,76
 639 416 639 416 560 492 c 0,77,78
 501 549 501 549 412 549 c 0,79,80
 341 549 341 549 265 491 c 0,81,82
 206 447 206 447 193 401 c 1,83,84
 185 310 185 310 190 170 c 0,85,86
 193 112 193 112 188 70 c 1,71,72
EndSplineSet
EndChar

StartChar: u
Encoding: 117 117 86
Width: 804
VWidth: 1000
Flags: MW
LayerCount: 2
Fore
SplineSet
279 213 m 1,0,1
 134.028 520 134.028 520 70 520 c 0,2,3
 51 520 51 520 6 493 c 0,4,5
 -19 477 -19 477 -31 477 c 0,6,7
 -46 477 -46 477 -51 492 c 1,8,9
 -51 505 -51 505 30 567 c 0,10,11
 120 637 120 637 145 637 c 0,12,13
 207.5 637 207.5 637 475 102 c 1,14,15
 544 204 544 204 559 230 c 0,16,17
 651 381 651 381 651 463 c 0,18,19
 651 553 651 553 537 553 c 0,20,21
 488 553 488 553 437 514 c 0,22,23
 413 496 413 496 403 496 c 0,24,25
 387 496 387 496 387 508 c 0,26,27
 387 518 387 518 423 554 c 0,28,29
 509 639 509 639 604 639 c 0,30,31
 716 639 716 639 735 556 c 0,32,33
 739 537 739 537 739 512 c 0,34,35
 739 424 739 424 577 181 c 1,36,-1
 381 -108 l 1,37,38
 287 -255 287 -255 287 -305 c 0,39,40
 287 -392 287 -392 366 -456 c 0,41,42
 432 -510 432 -510 508 -510 c 0,43,44
 563 -510 563 -510 627 -473 c 0,45,46
 641 -465 641 -465 645 -465 c 128,-1,47
 649 -465 649 -465 649 -471 c 0,48,49
 649 -488 649 -488 603 -541 c 0,50,51
 529 -625 529 -625 475 -625 c 0,52,53
 390 -625 390 -625 312 -567 c 0,54,55
 203 -487 203 -487 203 -354 c 0,56,57
 203 -285 203 -285 262 -195 c 2,58,-1
 385 -27 l 1,59,60
 374 10 374 10 295 172 c 1,61,62
 219 84 219 84 200 59 c 0,63,64
 137 -30 137 -30 137 -109 c 1,65,-1
 145 -184 l 1,66,67
 145 -223 145 -223 97 -243 c 0,68,69
 79 -250 79 -250 63 -250 c 0,70,71
 43 -250 43 -250 43 -229 c 0,72,73
 43 -115 43 -115 101 -19 c 0,74,75
 137.25 39.75 137.25 39.75 279 213 c 1,0,1
EndSplineSet
EndChar

StartChar: v
Encoding: 118 118 87
Width: 1232
VWidth: 1000
Flags: MW
LayerCount: 2
Fore
SplineSet
500 260 m 0,0,1
 500 397 500 397 582 520 c 1,2,3
 400 548 400 548 164 520 c 1,4,5
 127 382 127 382 127 315 c 0,6,7
 127 205 127 205 201 137 c 0,8,9
 263 80 263 80 356 80 c 0,10,11
 431 80 431 80 485 147 c 0,12,13
 508 176 508 176 508 190 c 1,14,15
 500.403 221.161 500.403 221.161 500 260 c 0,0,1
1059 532 m 1,16,17
 921 494 921 494 633 512 c 1,18,19
 586 382 586 382 586 311 c 0,20,21
 586 198 586 198 663 132 c 0,22,23
 724 80 724 80 813 80 c 0,24,25
 914 80 914 80 995 227 c 0,26,27
 1038 305 1038 305 1059 391 c 1,28,-1
 1059 532 l 1,16,17
1057 254 m 1,29,30
 1001 138 1001 138 982 107 c 0,31,32
 897.71 -27 897.71 -27 762 -27 c 0,33,34
 636 -27 636 -27 570 67 c 0,35,36
 550 94 550 94 539 127 c 1,37,38
 472 34 472 34 410 1 c 0,39,40
 360 -25 360 -25 299 -25 c 0,41,42
 171 -25 171 -25 98 83 c 0,43,44
 45 163 45 163 45 268 c 0,45,46
 45 375 45 375 117 512 c 1,47,48
 84 506 84 506 25 500 c 1,49,50
 -35.533 490.584 -35.533 490.584 -4 530 c 0,51,52
 51 596 51 596 191 627 c 0,53,54
 262 643 262 643 334 643 c 0,55,56
 382 643 382 643 610 627 c 0,57,58
 734 618 734 618 819 618 c 0,59,60
 953 618 953 618 1059 637 c 1,61,-1
 1059 840 l 2,62,63
 1059 1075 1059 1075 1088 1164 c 0,64,65
 1115 1249 1115 1249 1174 1268 c 1,66,67
 1198 1274 1198 1274 1210 1262 c 0,68,69
 1242 1228 1242 1228 1246 1183 c 0,70,71
 1250 1148 1250 1148 1223 1149 c 1,72,73
 1158 1164 1158 1164 1155 870 c 0,74,75
 1154 616 1154 616 1162 183 c 0,76,77
 1163 150 1163 150 1163 121 c 0,78,79
 1163 70 1163 70 1199 10 c 0,80,81
 1220.55 -25.909 1220.55 -25.909 1212 -43 c 0,82,83
 1201 -63 1201 -63 1143 -14 c 0,84,85
 1083 36 1083 36 1068 114 c 0,86,87
 1062 151 1062 151 1057 254 c 1,29,30
EndSplineSet
EndChar

StartChar: w
Encoding: 119 119 88
Width: 1232
VWidth: 1000
Flags: MW
LayerCount: 2
Fore
SplineSet
190 471 m 1,0,1
 354 645 354 645 489 645 c 0,2,3
 584 645 584 645 642 582 c 0,4,5
 664 558 664 558 694 512 c 1,6,7
 750 570 750 570 836 612 c 0,8,9
 906 645 906 645 963 645 c 0,10,11
 1111 645 1111 645 1167 509 c 0,12,13
 1194 442 1194 442 1194 352 c 0,14,15
 1194 259.478 1194 259.478 1114 96 c 1,16,17
 1155 101 1155 101 1227 113 c 0,18,19
 1266 119 1266 119 1266 105 c 0,20,21
 1266 98 1266 98 1255 84 c 0,22,23
 1195 13 1195 13 1052 -15 c 0,24,25
 993 -27 993 -27 932 -27 c 0,26,27
 886 -27 886 -27 671 -11 c 0,28,29
 553 -2 553 -2 471 -2 c 0,30,31
 191 -2 191 -2 193 -49 c 0,32,33
 202 -227 202 -227 200 -466 c 0,34,35
 200 -566 200 -566 195 -600 c 0,36,37
 185 -663 185 -663 61 -731 c 0,38,39
 55 -734 55 -734 55 -725 c 1,40,41
 88 -661 88 -661 94 -607 c 0,42,43
 98 -567 98 -567 100 -385 c 0,44,45
 106 48 106 48 95 399 c 0,46,47
 91 522 91 522 86 528 c 0,48,49
 73 542 73 542 45 562 c 0,50,51
 35 569 35 569 35 580 c 0,52,53
 35 599 35 599 64 633 c 0,54,55
 94 668 94 668 121 668 c 0,56,57
 192 668 192 668 192 539 c 1,58,-1
 190 471 l 1,0,1
719 352 m 0,59,60
 719 257.091 719 257.091 657 88 c 1,61,62
 879 69 879 69 1077 92 c 1,63,64
 1108 209 1108 209 1108 293 c 0,65,66
 1108 428 1108 428 1032 499 c 0,67,68
 976 551 976 551 891 551 c 128,-1,69
 806 551 806 551 753 506 c 0,70,71
 735 490 735 490 711 463 c 1,72,73
 719 406 719 406 719 352 c 0,59,60
190 70 m 1,74,75
 345 122 345 122 604 100 c 1,76,77
 637 183 637 183 637 276 c 0,78,79
 637 418 637 418 557 494 c 0,80,81
 498 549 498 549 410 549 c 0,82,83
 323 549 323 549 246 475 c 0,84,85
 201 433 201 433 195 401 c 1,86,87
 186 303 186 303 192 172 c 0,88,89
 195 114 195 114 190 70 c 1,74,75
EndSplineSet
EndChar

StartChar: x
Encoding: 120 120 89
Width: 1232
VWidth: 1000
Flags: MW
LayerCount: 2
Fore
SplineSet
516 190 m 1,0,1
 508.353 230.127 508.353 230.127 508 279 c 0,2,3
 508 357 508 357 536 418 c 0,4,5
 553 457 553 457 592 520 c 1,6,7
 410 548 410 548 172 520 c 1,8,9
 133 410 133 410 133 330 c 0,10,11
 133 211 133 211 209 139 c 0,12,13
 271 80 271 80 365 80 c 0,14,15
 440 80 440 80 493 146 c 0,16,17
 516 175 516 175 516 190 c 1,0,1
1067 254 m 1,18,19
 1000 130 1000 130 984 105 c 0,20,21
 895.486 -29 895.486 -29 766 -29 c 0,22,23
 609 -29 609 -29 549 127 c 1,24,25
 478 38 478 38 429 7 c 0,26,27
 375 -27 375 -27 307 -27 c 0,28,29
 193 -27 193 -27 118 76 c 0,30,31
 51 169 51 169 51 293 c 0,32,33
 51 377 51 377 94 457 c 0,34,35
 107 480 107 480 127 512 c 1,36,37
 94 506 94 506 35 500 c 1,38,39
 -8 494 -8 494 -5 512 c 0,40,41
 -4 519 -4 519 6 530 c 1,42,43
 57 594 57 594 197 626 c 0,44,45
 272 643 272 643 348 643 c 0,46,47
 413 643 413 643 669 622 c 0,48,49
 800 612 800 612 870 612 c 0,50,51
 909 612 909 612 1084 636 c 0,52,53
 1232 656 1232 656 1239 635 c 0,54,55
 1244 623 1244 623 1210 596 c 0,56,57
 1170 562 1170 562 1164 490 c 0,58,59
 1161 458 1161 458 1165 269 c 2,60,-1
 1165 248 l 2,61,62
 1185 -494 1185 -494 1151 -584 c 0,63,64
 1127 -642 1127 -642 1100 -663 c 0,65,66
 1085 -676 1085 -676 1040 -698 c 0,67,68
 1001 -718 1001 -718 1001 -699 c 0,69,70
 1001 -687 1001 -687 1018 -666 c 0,71,72
 1069 -603 1069 -603 1073 -458 c 1,73,-1
 1075 -288 l 1,74,-1
 1075 -287 l 2,75,76
 1079 -231 1079 -231 1074 -130 c 0,77,78
 1067 16 1067 16 1067 254 c 1,18,19
1067 532 m 1,79,80
 933 496 933 496 641 512 c 1,81,82
 594 386 594 386 594 315 c 0,83,84
 594 211 594 211 666 142 c 0,85,86
 729 80 729 80 823 80 c 0,87,88
 907 80 907 80 988 208 c 0,89,90
 1044 295 1044 295 1067 391 c 1,91,-1
 1067 532 l 1,79,80
EndSplineSet
EndChar

StartChar: y
Encoding: 121 121 90
Width: 806
VWidth: 1000
Flags: MW
LayerCount: 2
Fore
SplineSet
92 270 m 1,0,-1
 92 493 l 1,1,2
 91 523 91 523 88 526 c 0,3,4
 78 537 78 537 48 560 c 0,5,6
 35 569 35 569 35 580 c 0,7,8
 35 599 35 599 64 633 c 0,9,10
 94 668 94 668 121 668 c 0,11,12
 196 668 196 668 197 534 c 0,13,-1
 197 479 l 1,14,15
 355.622 645 355.622 645 502 645 c 0,16,17
 662 645 662 645 718 505 c 0,18,19
 743 441 743 441 743 356 c 0,20,21
 743 257.5 743 257.5 680 100 c 1,22,23
 732 105 732 105 793 119 c 0,24,25
 822 126 822 126 818 112 c 0,26,27
 816 102 816 102 799 82 c 0,28,29
 737 13 737 13 668 -2 c 0,30,31
 614 -14 614 -14 463 -2 c 2,32,-1
 444 0 l 2,33,34
 271.313 16.9301 271.313 16.9301 78 -14 c 1,35,36
 50 -23 50 -23 59 14 c 1,37,38
 91 54 91 54 92 270 c 1,0,-1
188 84 m 1,39,40
 228 103 228 103 629 100 c 1,41,42
 657 236 657 236 657 295 c 0,43,44
 657 416 657 416 581 488 c 0,45,46
 518 549 518 549 422 549 c 0,47,48
 330 549 330 549 252 479 c 0,49,50
 201 434 201 434 201 401 c 1,51,52
 192 312 192 312 192 177 c 0,53,54
 192 127 192 127 188 84 c 1,39,40
EndSplineSet
EndChar

StartChar: z
Encoding: 122 122 91
Width: 806
VWidth: 1000
Flags: MW
LayerCount: 2
Fore
SplineSet
618 524 m 1,0,1
 502 507 502 507 195 520 c 1,2,3
 122 461 122 461 119 344 c 1,4,5
 119 230 119 230 192 153 c 0,6,7
 261 80 261 80 367 80 c 0,8,9
 463 80 463 80 540 196 c 0,10,11
 623 321.085 623 321.085 623 465 c 0,12,13
 623 494 623 494 618 524 c 1,0,1
625 254 m 1,14,15
 566 135 566 135 535 92 c 0,16,17
 447 -31 447 -31 324 -31 c 0,18,19
 206 -31 206 -31 122 60 c 0,20,21
 37 153 37 153 37 287 c 0,22,23
 37 425 37 425 124 504 c 0,24,25
 133 513 133 513 143 520 c 1,26,27
 84 520 84 520 31 496 c 0,28,29
 -21.681 473.422 -21.681 473.422 25 545 c 1,30,31
 83 599 83 599 135 614 c 0,32,33
 179 627 179 627 248 627 c 1,34,-1
 495 621 l 1,35,-1
 498 621 l 2,36,37
 604 621 604 621 714 645 c 0,38,39
 743 651 743 651 758 651 c 0,40,41
 797 651 797 651 796 630 c 0,42,43
 796 617 796 617 774 598 c 0,44,45
 736 566 736 566 728 541 c 0,46,47
 717 511 717 511 720 385 c 0,48,49
 723 290 723 290 723 287 c 0,50,51
 742.241 -501.875 742.241 -501.875 709 -584 c 0,52,53
 685 -643 685 -643 660 -663 c 0,54,55
 644 -676 644 -676 598 -698 c 0,56,57
 557 -719 557 -719 559 -697 c 0,58,59
 560 -685 560 -685 575 -666 c 0,60,61
 626 -602 626 -602 631 -452 c 1,62,-1
 635 -292 l 1,63,-1
 635 -287 l 2,64,65
 638 -235 638 -235 633 -130 c 0,66,67
 625 10 625 10 625 254 c 1,14,15
EndSplineSet
EndChar

StartChar: bar
Encoding: 124 124 93
Width: 0
VWidth: 1000
Flags: MW
LayerCount: 2
Fore
SplineSet
-1085 -516 m 0,0,1
 -1160 -516 -1160 -516 -1201 -463 c 0,2,3
 -1227 -430 -1227 -430 -1227 -387 c 0,4,5
 -1227 -268.5 -1227 -268.5 -1122 -174 c 1,6,7
 -1061 -117 -1061 -117 -950 -41 c 0,8,9
 -889 0 -889 0 -854 29 c 1,10,-1
 -823 12 l 1,11,-1
 -956 -91 l 1,12,13
 -1112 -221.195 -1112 -221.195 -1112 -332 c 0,14,15
 -1112 -408 -1112 -408 -1047 -408 c 0,16,17
 -1009 -408 -1009 -408 -950 -334 c 1,18,19
 -944 -364 -944 -364 -944 -389 c 0,20,21
 -944 -476 -944 -476 -1021 -505 c 0,22,23
 -1050 -516 -1050 -516 -1085 -516 c 0,0,1
EndSplineSet
EndChar

StartChar: asciitilde
Encoding: 126 126 95
Width: 274
VWidth: 1000
Flags: MW
LayerCount: 2
Fore
SplineSet
193 471 m 0,0,1
 188.452 380.798 188.452 380.798 199 -289 c 1,2,3
 205 -533 205 -533 195 -600 c 0,4,5
 185 -664 185 -664 63 -731 c 1,6,7
 54 -734 54 -734 57 -725 c 1,8,9
 89 -660 89 -660 95 -602 c 0,10,11
 99 -569 99 -569 102 -385 c 0,12,13
 108 -62 108 -62 98 391 c 0,14,15
 95 523 95 523 92 528 c 0,16,17
 78 553 78 553 48 565 c 0,18,19
 35 571 35 571 35 580 c 0,20,21
 35 599 35 599 64 633 c 0,22,23
 94 668 94 668 121 668 c 0,24,25
 198 668 198 668 195 517 c 0,26,27
 195 540 195 540 193 471 c 0,0,1
EndSplineSet
EndChar

StartChar: daggerdbl
Encoding: 135 8225 101
Width: 806
VWidth: 1000
Flags: MW
LayerCount: 2
Fore
SplineSet
514 8 m 1,0,1
 473.132 -9.40543 473.132 -9.40543 414 -10 c 0,2,3
 269 -10 269 -10 185 96 c 0,4,5
 117 181 117 181 117 303 c 0,6,7
 117 429 117 429 198 532 c 0,8,9
 303.041 668 303.041 668 477 668 c 0,10,11
 574.75 668 574.75 668 657 612 c 0,12,13
 702 582 702 582 702 557 c 0,14,15
 702 526 702 526 630 493 c 0,16,17
 607 483 607 483 602 483 c 0,18,19
 593 483 593 483 578 506 c 0,20,21
 528.667 580 528.667 580 424 580 c 0,22,23
 303 580 303 580 251 512 c 0,24,25
 201 444.143 201 444.143 201 352 c 0,26,27
 201 229 201 229 286 154 c 0,28,29
 358 92 358 92 461 92 c 0,30,31
 559 92 559 92 624 167 c 2,32,-1
 663 215 l 1,33,34
 676 227 676 227 688 227 c 1,35,36
 702 222 702 222 705 205 c 1,37,38
 705 165 705 165 627 51 c 1,39,40
 612 33 612 33 571 -55 c 0,41,42
 521 -160 521 -160 476 -190 c 0,43,44
 451 -207 451 -207 422 -207 c 0,45,46
 414 -207 414 -207 414 -199 c 0,47,48
 414 -193 414 -193 459 -123 c 0,49,50
 518 -33 518 -33 518 0 c 0,51,52
 518 8 518 8 514 8 c 1,0,1
EndSplineSet
EndChar

StartChar: OE
Encoding: 140 338 106
Width: 679
VWidth: 1000
Flags: MW
LayerCount: 2
Fore
SplineSet
291 489 m 0,0,1
 291 178 291 178 380 -31 c 0,2,3
 433 -156 433 -156 545 -307 c 1,4,-1
 506 -346 l 1,5,6
 387 -231 387 -231 320 -126 c 0,7,8
 152 135 152 135 152 485 c 0,9,10
 152 947 152 947 502 1276 c 0,11,-1
 512 1286 l 1,12,-1
 545 1241 l 1,13,14
 391 1056 391 1056 335 858 c 0,15,16
 291 700 291 700 291 489 c 0,0,1
EndSplineSet
EndChar

StartChar: quoteleft
Encoding: 145 8216 107
Width: 0
VWidth: 1000
Flags: MW
LayerCount: 2
Fore
SplineSet
-1030 -723 m 0,0,1
 -1165 -723 -1165 -723 -1165 -645 c 0,2,3
 -1165 -582.417 -1165 -582.417 -1047 -489 c 1,4,5
 -1061 -522 -1061 -522 -1061 -549 c 0,6,7
 -1061 -590 -1061 -590 -1014 -620 c 0,8,9
 -987 -637 -987 -637 -963 -637 c 0,10,11
 -798 -637 -798 -637 -542 -310 c 1,12,-1
 -365 -73 l 1,13,14
 -340 -43 -340 -43 -332 -43 c 0,15,16
 -318 -43 -318 -43 -317 -59 c 0,17,18
 -317 -94 -317 -94 -423 -233 c 0,19,20
 -577 -436 -577 -436 -743 -576 c 0,21,22
 -919 -723 -919 -723 -1030 -723 c 0,0,1
EndSplineSet
EndChar

StartChar: quotedblleft
Encoding: 147 8220 109
Width: 0
VWidth: 1000
Flags: MW
LayerCount: 2
Fore
SplineSet
-43 -98 m 0,0,1
 -182 -343 -182 -343 -339 -510 c 0,2,3
 -529 -713 -529 -713 -682 -713 c 0,4,5
 -793 -713 -793 -713 -793 -643 c 0,6,7
 -793 -586.417 -793 -586.417 -690 -492 c 1,8,9
 -698 -513 -698 -513 -698 -537 c 0,10,11
 -698 -584 -698 -584 -650 -610 c 0,12,13
 -625 -623 -625 -623 -596 -623 c 0,14,15
 -445 -623 -445 -623 -235 -318 c 0,16,17
 -212 -284 -212 -284 -95 -100 c 0,18,19
 -35 -6 -35 -6 -20 -6 c 0,20,21
 -8 -6 -8 -6 -8 -18 c 0,22,23
 -8 -31 -8 -31 -39 -90 c 0,24,25
 -41 -95 -41 -95 -43 -98 c 0,0,1
EndSplineSet
EndChar

StartChar: quotedblright
Encoding: 148 8221 110
Width: 0
VWidth: 1000
Flags: MW
LayerCount: 2
Fore
SplineSet
-354 -567 m 0,0,1
 -354 -606 -354 -606 -315 -634 c 0,2,3
 -290 -653 -290 -653 -262 -653 c 0,4,5
 -175 -653 -175 -653 -111 -339 c 1,6,-1
 -59 -59 l 1,7,8
 -50 -18 -50 -18 -35 -18 c 0,9,10
 -19 -18 -19 -18 -18 -35 c 1,11,12
 -18 -18.3333 -18 -18.3333 -64 -325 c 0,13,14
 -81 -439 -81 -439 -94 -500 c 0,15,16
 -114 -602 -114 -602 -174 -676 c 0,17,18
 -238 -754 -238 -754 -324 -754 c 1,19,20
 -437 -745 -437 -745 -442 -659 c 1,21,22
 -442 -589 -442 -589 -348 -520 c 1,23,24
 -354 -535 -354 -535 -354 -567 c 0,0,1
EndSplineSet
EndChar

StartChar: bullet
Encoding: 149 8226 111
Width: 808
VWidth: 1000
Flags: MW
LayerCount: 2
Fore
SplineSet
199 483 m 1,0,1
 368 645 368 645 504 645 c 0,2,3
 675 645 675 645 726 490 c 0,4,5
 745 432 745 432 745 356 c 0,6,7
 745 207 745 207 651 42 c 0,8,9
 632 7 632 7 565 -98 c 0,10,11
 444 -289 444 -289 166 -567 c 1,12,13
 314 -527 314 -527 438 -549 c 2,14,-1
 536 -567 l 1,15,16
 554 -569 554 -569 571 -569 c 0,17,18
 652 -569 652 -569 745 -518 c 1,19,20
 672 -655 672 -655 586 -655 c 0,21,22
 544 -655 544 -655 417 -640 c 0,23,24
 282.335 -624.212 282.335 -624.212 113 -655 c 1,25,26
 43 -673 43 -673 50 -645 c 0,27,28
 56.1348 -626.596 56.1348 -626.596 186 -488 c 0,29,30
 443.882 -211.363 443.882 -211.363 530 -59 c 1,31,32
 604 65 604 65 626 121 c 0,33,34
 659 206 659 206 659 297 c 0,35,36
 659 422 659 422 576 494 c 0,37,38
 513 549 513 549 426 549 c 0,39,40
 313 549 313 549 229 460 c 0,41,42
 201 430 201 430 201 422 c 0,43,44
 207 175 207 175 197 104 c 0,45,46
 187 39 187 39 66 -39 c 1,47,48
 57 -39 57 -39 57 -33 c 1,49,50
 94 38 94 38 99 108 c 0,51,52
 100 121 100 121 104 317 c 1,53,54
 107 778 107 778 96 1067 c 0,55,56
 93 1137 93 1137 90 1141 c 0,57,58
 81 1152 81 1152 50 1169 c 0,59,60
 37 1176 37 1176 37 1184 c 0,61,62
 37 1200 37 1200 66 1236 c 0,63,64
 97 1274 97 1274 123 1274 c 0,65,66
 156 1274 156 1274 177 1214 c 0,67,68
 189 1179 189 1179 190 1141 c 0,69,70
 192 1097 192 1097 188 944 c 0,71,72
 186 870 186 870 190 784 c 1,73,74
 195 704 195 704 199 483 c 1,0,1
EndSplineSet
EndChar

StartChar: endash
Encoding: 150 8211 112
Width: 1232
VWidth: 1000
Flags: MW
LayerCount: 2
Fore
SplineSet
1057 254 m 1,0,1
 984 111 984 111 914 47 c 0,2,3
 835 -25 835 -25 745 -25 c 0,4,5
 613 -25 613 -25 539 127 c 1,6,7
 465 40 465 40 422 12 c 0,8,9
 364 -27 364 -27 285 -27 c 0,10,11
 186 -27 186 -27 113 70 c 0,12,13
 42 165 42 165 41 287 c 0,14,15
 41 470 41 470 272 729 c 1,16,17
 519.541 1002.15 519.541 1002.15 852 1153 c 1,18,19
 1040.57 1241 1040.57 1241 1149 1241 c 0,20,21
 1204 1241 1204 1241 1220 1222 c 0,22,23
 1223 1218 1223 1218 1223 1214 c 0,24,25
 1223 1208 1223 1208 1202 1194 c 0,26,27
 1158 1166 1158 1166 1155 870 c 0,28,29
 1154 616 1154 616 1162 183 c 0,30,31
 1163 150 1163 150 1163 121 c 0,32,33
 1163 70 1163 70 1199 10 c 0,34,35
 1220.55 -25.909 1220.55 -25.909 1212 -43 c 0,36,37
 1201 -63 1201 -63 1143 -14 c 0,38,39
 1083 36 1083 36 1068 114 c 0,40,41
 1062 151 1062 151 1057 254 c 1,0,1
508 190 m 1,42,43
 498.313 220.07 498.313 220.07 498 260 c 0,44,45
 498 390 498 390 583 517 c 0,46,47
 650 619 650 619 725 647 c 0,48,49
 745 655 745 655 764 655 c 0,50,51
 801 655 801 655 843 619 c 0,52,53
 872 595 872 595 872 575 c 0,54,55
 872 554 872 554 825 514 c 0,56,57
 804 496 804 496 797 496 c 128,-1,58
 790 496 790 496 760 523 c 0,59,60
 721 559 721 559 694 559 c 0,61,62
 649 559 649 559 615 483 c 0,63,64
 584 415 584 415 584 336 c 0,65,66
 584 199 584 199 670 128 c 0,67,68
 728 80 728 80 813 80 c 0,69,70
 908 80 908 80 993 232 c 0,71,72
 1039 313 1039 313 1059 391 c 1,73,74
 1063 946 1063 946 1065 1010 c 0,75,76
 1068 1091 1068 1091 1073 1116 c 0,77,78
 1082.64 1157.3 1082.64 1157.3 967 1120 c 0,79,80
 704 1038 704 1038 481 862 c 0,81,82
 364 770 364 770 285 670 c 0,83,84
 208 573 208 573 187 539 c 0,85,86
 125 440 125 440 125 342 c 0,87,88
 125 195 125 195 214 125 c 0,89,90
 272 80 272 80 356 80 c 0,91,92
 431 80 431 80 485 147 c 0,93,94
 508 176 508 176 508 190 c 1,42,43
EndSplineSet
EndChar

StartChar: emdash
Encoding: 151 8212 113
Width: 806
VWidth: 1000
Flags: MW
LayerCount: 2
Fore
SplineSet
305 -256 m 1,0,1
 215 -262.164 215 -262.164 215 -324 c 0,2,3
 215 -424 215 -424 338 -424 c 0,4,5
 430 -424 430 -424 494 -369 c 0,6,7
 514 -352 514 -352 539 -324 c 0,8,9
 608 -244 608 -244 602 -45 c 0,10,11
 601 -1 601 -1 598 457 c 0,12,13
 597 524 597 524 596 532 c 0,14,15
 590 555 590 555 512 549 c 0,16,17
 447 544 447 544 360 557 c 0,18,19
 226.628 577.994 226.628 577.994 43 549 c 1,20,21
 159 695 159 695 375 664 c 1,22,23
 455.326 647.935 455.326 647.935 611 663 c 0,24,25
 699 671 699 671 708 660 c 0,26,27
 710 657 710 657 709 653 c 0,28,29
 702 592 702 592 703 256 c 0,30,31
 703 37 703 37 696 -43 c 1,32,33
 664 -308 664 -308 469 -438 c 1,34,35
 341 -527 341 -527 264 -502 c 1,36,37
 129 -453.311 129 -453.311 129 -319 c 1,38,39
 135 -214 135 -214 186 -182 c 0,40,41
 203 -172 203 -172 223 -172 c 0,42,43
 249 -172 249 -172 282 -220 c 0,44,45
 291 -234 291 -234 305 -256 c 1,0,1
EndSplineSet
EndChar

StartChar: tilde
Encoding: 152 732 114
Width: 0
VWidth: 1000
Flags: MW
LayerCount: 2
Fore
SplineSet
-918 -98 m 0,0,1
 -850 -98 -850 -98 -802 -156 c 0,2,3
 -770 -195 -770 -195 -770 -236 c 0,4,5
 -770 -353 -770 -353 -872 -387 c 0,6,7
 -907 -399 -907 -399 -952 -399 c 0,8,9
 -1020 -399 -1020 -399 -1068 -343 c 0,10,11
 -1102 -304 -1102 -304 -1102 -260 c 0,12,13
 -1102 -153 -1102 -153 -1009 -115 c 0,14,15
 -970 -98 -970 -98 -918 -98 c 0,0,1
-924 -365 m 0,16,17
 -844 -365 -844 -365 -844 -281 c 0,18,19
 -844 -190 -844 -190 -901 -150 c 0,20,21
 -925 -133 -925 -133 -952 -133 c 0,22,23
 -999 -133 -999 -133 -1020 -176 c 0,24,25
 -1030 -196 -1030 -196 -1030 -219 c 0,26,27
 -1030 -281 -1030 -281 -990 -329 c 0,28,29
 -960 -365 -960 -365 -924 -365 c 0,16,17
EndSplineSet
EndChar

StartChar: scaron
Encoding: 154 353 116
Width: 1232
VWidth: 1000
Flags: MW
LayerCount: 2
Fore
SplineSet
918 -27 m 2,0,-1
 362 0 l 1,1,2
 203 0 203 0 63 -45 c 1,3,4
 55 -45 55 -45 55 -41 c 1,5,6
 91 57 91 57 96 122 c 0,7,8
 99 163 99 163 94 344 c 1,9,-1
 95 478 l 1,10,11
 93 518 93 518 88 526 c 0,12,13
 75 545 75 545 47 562 c 0,14,15
 35 570 35 570 35 580 c 0,16,17
 35 599 35 599 64 633 c 0,18,19
 94 668 94 668 121 668 c 0,20,21
 194 668 194 668 194 532 c 1,22,-1
 193 471 l 1,23,24
 359 645 359 645 492 645 c 0,25,26
 583 645 583 645 641 585 c 0,27,28
 663 561 663 561 696 512 c 1,29,30
 752 570 752 570 838 612 c 0,31,32
 908 645 908 645 963 645 c 0,33,34
 1105 645 1105 645 1163 520 c 0,35,36
 1194 452 1194 452 1194 358 c 0,37,38
 1194 273 1194 273 1149 168 c 2,39,-1
 1116 96 l 1,40,41
 1126 98 1126 98 1143 98 c 0,42,43
 1219 98 1219 98 1256 12 c 0,44,45
 1276 -35 1276 -35 1276 -88 c 0,46,47
 1276 -172 1276 -172 1211 -250 c 1,48,49
 1137 -333 1137 -333 1053 -336 c 1,50,51
 971 -336 971 -336 971 -285 c 0,52,53
 971 -244 971 -244 1013 -195 c 0,54,55
 1026 -180 1026 -180 1030 -180 c 0,56,57
 1039 -180 1039 -180 1052 -205 c 0,58,59
 1075.5 -252 1075.5 -252 1108 -252 c 0,60,61
 1167 -252 1167 -252 1190 -193 c 0,62,63
 1200 -168 1200 -168 1200 -139 c 0,64,65
 1200 -55 1200 -55 1143 -28 c 0,66,67
 1122 -18 1122 -18 1096 -18 c 1,68,-1
 942 -27 l 2,69,-1
 918 -27 l 2,0,-1
721 356 m 0,70,71
 721 260 721 260 657 88 c 1,72,73
 879 69 879 69 1077 92 c 1,74,75
 1108 201 1108 201 1108 295 c 0,76,77
 1108 431 1108 431 1030 501 c 0,78,79
 975 551 975 551 891 551 c 0,80,81
 805 551 805 551 751 503 c 0,82,83
 734 488 734 488 713 463 c 1,84,85
 721 408 721 408 721 356 c 0,70,71
188 70 m 1,86,87
 344 113 344 113 606 100 c 1,88,89
 639 183 639 183 639 274 c 0,90,91
 639 416 639 416 560 492 c 0,92,93
 501 549 501 549 412 549 c 0,94,95
 341 549 341 549 265 491 c 0,96,97
 206 447 206 447 193 401 c 1,98,99
 185 310 185 310 190 170 c 0,100,101
 193 112 193 112 188 70 c 1,86,87
EndSplineSet
EndChar

StartChar: guilsinglright
Encoding: 155 8250 117
Width: 641
VWidth: 1000
Flags: MW
LayerCount: 2
Fore
SplineSet
340 1143 m 0,0,1
 340 1171 340 1171 377 1212 c 0,2,3
 409 1247 409 1247 436 1247 c 0,4,5
 510 1247 510 1247 521 1078 c 0,6,7
 523 1048 523 1048 524 1012 c 0,8,9
 537 233 537 233 521 -203 c 0,10,11
 519 -269 519 -269 516 -293 c 0,12,13
 507 -380 507 -380 383 -481 c 1,14,15
 374 -484 374 -484 377 -475 c 0,16,17
 413 -376 413 -376 422 -299 c 0,18,19
 432 -220 432 -220 426 499 c 0,20,21
 422 941 422 941 414 1018 c 1,22,23
 403 1105 403 1105 360 1125 c 0,24,25
 343 1133 343 1133 341 1137 c 0,26,27
 340 1140 340 1140 340 1143 c 0,0,1
188 1022 m 0,28,29
 180 1022 180 1022 180 1032 c 0,30,31
 180 1056 180 1056 211 1103 c 0,32,33
 242 1151 242 1151 268 1151 c 0,34,35
 309 1151 309 1151 328 1101 c 0,36,37
 338 1074 338 1074 338 1038 c 1,38,-1
 341 -460 l 1,39,40
 340 -476 340 -476 340 -479 c 0,41,42
 331 -555 331 -555 277 -598 c 2,43,-1
 225 -637 l 1,44,45
 188 -671 188 -671 188 -729 c 0,46,47
 188 -814 188 -814 252 -876 c 0,48,49
 305 -926 305 -926 367 -926 c 0,50,51
 411 -926 411 -926 460 -891 c 0,52,53
 471 -883 471 -883 475 -883 c 128,-1,54
 479 -883 479 -883 479 -887 c 0,55,56
 479 -907 479 -907 439 -962 c 0,57,58
 383 -1042 383 -1042 340 -1042 c 0,59,60
 248 -1042 248 -1042 181 -959 c 0,61,62
 119 -881 119 -881 119 -778 c 0,63,64
 119 -692 119 -692 163 -651 c 1,65,-1
 209 -611 l 1,66,67
 245 -573 245 -573 246 -496 c 0,68,69
 249 -22 249 -22 243 220 c 0,70,71
 238 411 238 411 238 918 c 0,72,73
 238 978 238 978 214 1008 c 0,74,75
 202 1022 202 1022 188 1022 c 0,28,29
EndSplineSet
EndChar

StartChar: exclamdown
Encoding: 161 161 121
Width: 440
VWidth: 1000
Flags: MW
LayerCount: 2
Fore
SplineSet
156 47 m 1,0,1
 206 37 206 37 233 37 c 0,2,3
 295 37 295 37 313 90 c 0,4,5
 319 105 319 105 319 123 c 1,6,7
 311 221 311 221 227 225 c 1,8,9
 163 225 163 225 88 125 c 1,10,11
 16 19 16 19 -188 -2 c 1,12,13
 -155 93 -155 93 -86 96 c 0,14,15
 -27 99 -27 99 34 158 c 2,16,-1
 100 225 l 1,17,18
 165 283 165 283 240 283 c 0,19,20
 372.71 283 372.71 283 416 180 c 0,21,22
 432 143 432 143 432 102 c 0,23,24
 432 17 432 17 361 -25 c 0,25,26
 320 -49 320 -49 270 -49 c 0,27,28
 205 -49 205 -49 156 47 c 1,0,1
EndSplineSet
EndChar

StartChar: cent
Encoding: 162 162 122
Width: 438
VWidth: 1000
Flags: MW
LayerCount: 2
Fore
SplineSet
231 406 m 0,0,1
 301 406 301 406 301 465 c 0,2,3
 301 494 301 494 270 530 c 0,4,5
 218 592 218 592 35 609 c 2,6,-1
 -108 622 l 1,7,8
 -159 629 -159 629 -158 647 c 0,9,10
 -158 651 -158 651 -156 655 c 1,11,12
 97 657 97 657 152 653 c 0,13,14
 295 642 295 642 364 584 c 0,15,16
 430 527.429 430 527.429 430 467 c 0,17,18
 430 400 430 400 373 355 c 0,19,20
 331 322 331 322 274 319 c 2,21,-1
 266 319 l 2,22,23
 200 319 200 319 152 418 c 1,24,25
 200 406 200 406 231 406 c 0,0,1
EndSplineSet
EndChar

StartChar: sterling
Encoding: 163 163 123
Width: 620
VWidth: 1000
Flags: MW
LayerCount: 2
Fore
SplineSet
569 238 m 0,0,1
 569 274 569 274 529 299 c 0,2,3
 507 313 507 313 485 313 c 0,4,5
 420 313 420 313 329 168 c 0,6,7
 305 129 305 129 287 92 c 1,8,9
 405 82 405 82 497 140 c 0,10,11
 569 185 569 185 569 238 c 0,0,1
-170 94 m 1,12,13
 193 94 193 94 236 92 c 1,14,15
 301 214 301 214 389 305 c 0,16,17
 480 399 480 399 553 399 c 0,18,19
 633 399 633 399 652 341 c 0,20,21
 657 326 657 326 657 309 c 0,22,23
 657 216 657 216 543 125 c 0,24,25
 402.23 13.1384 402.23 13.1384 238 0 c 1,26,-1
 107 -251 l 1,27,28
 -96 -621 -96 -621 -240 -625 c 1,29,30
 -295 -625 -295 -625 -305 -583 c 0,31,32
 -307 -578 -307 -578 -307 -571 c 0,33,34
 -307 -513 -307 -513 -257 -453 c 0,35,36
 -230 -421 -230 -421 -223 -432 c 1,37,38
 -223 -436 -223 -436 -234 -459 c 0,39,40
 -240 -471 -240 -471 -240 -481 c 0,41,42
 -240 -515 -240 -515 -213 -535 c 0,43,44
 -199 -545 -199 -545 -184 -545 c 0,45,46
 -76 -545 -76 -545 183 -22 c 2,47,-1
 193 -2 l 1,48,49
 108 -1 108 -1 -207 -4 c 1,50,-1
 -170 94 l 1,12,13
EndSplineSet
EndChar

StartChar: currency
Encoding: 164 164 124
Width: 768
VWidth: 1000
Flags: MW
LayerCount: 2
Fore
SplineSet
229 555 m 0,0,1
 229 476 229 476 291 427 c 0,2,3
 335 393 335 393 391 393 c 0,4,5
 470 393 470 393 519 455 c 0,6,7
 553 499 553 499 553 555 c 0,8,9
 553 633 553 633 491 681 c 0,10,11
 447 715 447 715 391 715 c 0,12,13
 312 715 312 715 263 653 c 0,14,15
 229 610 229 610 229 555 c 0,0,1
518 711 m 1,16,-1
 561 754 l 1,17,-1
 590 725 l 1,18,-1
 547 682 l 1,19,20
 592 628 592 628 592 555 c 0,21,22
 592 480 592 480 547 426 c 1,23,-1
 590 385 l 1,24,-1
 561 354 l 1,25,-1
 518 397 l 1,26,27
 459 352 459 352 391 352 c 128,-1,28
 323 352 323 352 264 397 c 1,29,-1
 221 354 l 1,30,-1
 193 385 l 1,31,-1
 236 426 l 1,32,33
 190 481 190 481 190 555 c 0,34,35
 190 627 190 627 236 682 c 1,36,-1
 193 725 l 1,37,-1
 221 754 l 1,38,-1
 264 711 l 1,39,40
 323 756 323 756 391 756 c 128,-1,41
 459 756 459 756 518 711 c 1,16,-1
EndSplineSet
EndChar

StartChar: yen
Encoding: 165 165 125
Width: 624
VWidth: 1000
Flags: MW
LayerCount: 2
Fore
SplineSet
268 -61 m 1,0,1
 439 -57 439 -57 515 -1 c 0,2,3
 559 31 559 31 559 78 c 0,4,5
 559 111 559 111 528 134 c 0,6,7
 512 147 512 147 494 147 c 0,8,9
 427 147 427 147 268 -61 c 1,0,1
207 -145 m 1,10,11
 -182.798 -635 -182.798 -635 -291 -635 c 0,12,13
 -337 -635 -337 -635 -355 -598 c 0,14,15
 -362 -584 -362 -584 -362 -569 c 0,16,17
 -362 -507 -362 -507 -311 -448 c 0,18,19
 -285 -418 -285 -418 -279 -428 c 1,20,21
 -279 -432 -279 -432 -290 -456 c 0,22,23
 -295 -468 -295 -468 -295 -479 c 0,24,25
 -295 -512 -295 -512 -268 -534 c 0,26,27
 -254 -545 -254 -545 -240 -545 c 0,28,29
 -184 -545 -184 -545 -58 -403 c 1,30,-1
 160 -152 l 1,31,32
 -29 -160 -29 -160 -209 -160 c 1,33,-1
 -156 -61 l 1,34,-1
 171 -65 l 2,35,36
 196 -64 196 -64 225 -63 c 1,37,38
 304 45 304 45 397 140 c 0,39,40
 496 240 496 240 541 240 c 0,41,42
 615 240 615 240 640 185 c 0,43,44
 649 166 649 166 649 143 c 0,45,46
 649 57 649 57 549 -25 c 0,47,48
 401.609 -145 401.609 -145 207 -145 c 1,10,11
EndSplineSet
EndChar

StartChar: brokenbar
Encoding: 166 166 126
Width: 1232
VWidth: 1000
Flags: MW
LayerCount: 2
Fore
SplineSet
590 254 m 1,0,1
 524 123 524 123 489 77 c 0,2,3
 409 -31 409 -31 301 -31 c 0,4,5
 179 -31 179 -31 99 78 c 0,6,7
 31 170 31 170 31 281 c 0,8,9
 31 439 31 439 124 507 c 0,10,11
 129 511 129 511 135 514 c 1,12,13
 72 511 72 511 25 496 c 1,14,15
 -9 487 -9 487 -2 506 c 0,16,17
 2 516 2 516 18 535 c 1,18,19
 94 616 94 616 162 616 c 0,20,21
 193 617 193 617 379 614 c 0,22,23
 489 612 489 612 588 623 c 1,24,25
 590.963 873.832 590.963 873.832 604 1098 c 1,26,27
 618 1195 618 1195 664 1242 c 0,28,29
 691 1270 691 1270 723 1270 c 0,30,31
 754 1270 754 1270 774 1213 c 0,32,33
 782 1191 782 1191 782 1176 c 0,34,35
 782 1151 782 1151 766 1149 c 2,36,-1
 752 1149 l 2,37,38
 694 1149 694 1149 688 870 c 1,39,40
 688 669 688 669 682 483 c 1,41,42
 764 557 764 557 809 586 c 0,43,44
 897 645 897 645 967 645 c 0,45,46
 1103 645 1103 645 1163 532 c 0,47,48
 1200 462 1200 462 1200 356 c 0,49,50
 1200 243 1200 243 1151 133 c 0,51,52
 1078.53 -28.9999 1078.53 -28.9999 950 -29 c 0,53,54
 927 -29 927 -29 875 -6 c 0,55,56
 813 22 813 22 813 51 c 0,57,58
 813 68 813 68 875 107 c 0,59,60
 894 119 894 119 897 119 c 0,61,62
 902 119 902 119 925 95 c 0,63,64
 963 55 963 55 1001 55 c 0,65,66
 1070 55 1070 55 1100 172 c 0,67,68
 1114 228 1114 228 1114 289 c 0,69,70
 1114 420 1114 420 1038 493 c 0,71,72
 980 549 980 549 891 549 c 0,73,74
 807 549 807 549 723 470 c 0,75,76
 684 433 684 433 686 422 c 1,77,78
 695 -83 695 -83 696 -223 c 0,79,80
 699 -465 699 -465 679 -556 c 0,81,82
 661 -641 661 -641 621 -666 c 1,83,-1
 563 -698 l 1,84,85
 531 -713 531 -713 524 -705 c 1,86,87
 518 -694 518 -694 541 -666 c 1,88,89
 591 -603 591 -603 594 -455 c 0,90,91
 594.415 -369.02 594.415 -369.02 598 -287 c 1,92,93
 602 -235 602 -235 597 -121 c 0,94,95
 590 31 590 31 590 254 c 1,0,1
584 524 m 1,96,97
 476 508 476 508 180 514 c 1,98,99
 115 457 115 457 113 348 c 1,100,101
 113 233 113 233 179 155 c 0,102,103
 242 80 242 80 342 80 c 0,104,105
 426 80 426 80 505 201 c 0,106,107
 567 297 567 297 581 387 c 0,108,109
 582 389 582 389 582 391 c 0,110,111
 589 487 589 487 584 524 c 1,96,97
EndSplineSet
EndChar

StartChar: section
Encoding: 167 167 127
Width: 1232
VWidth: 1000
Flags: MW
LayerCount: 2
Fore
SplineSet
590 254 m 1,0,-1
 526 142 l 1,1,2
 419.271 -25 419.271 -25 272 -25 c 0,3,4
 143 -25 143 -25 73 93 c 0,5,6
 23 176 23 176 23 285 c 0,7,8
 23 423 23 423 129 546 c 0,9,10
 198 626 198 626 264 648 c 0,11,12
 279 653 279 653 291 653 c 0,13,14
 318 653 318 653 363 623 c 0,15,16
 399 599 399 599 399 578 c 0,17,18
 399 554 399 554 349 513 c 0,19,20
 328 496 328 496 322 496 c 0,21,22
 315 496 315 496 287 522 c 0,23,24
 249 557 249 557 219 557 c 0,25,26
 157 557 157 557 126 470 c 0,27,28
 106 416 106 416 106 346 c 0,29,30
 106 202 106 202 192 130 c 0,31,32
 251 80 251 80 338 80 c 0,33,34
 431 80 431 80 517 219 c 0,35,36
 572 309 572 309 590 391 c 1,37,38
 590 981 590 981 604 1098 c 1,39,40
 618 1195 618 1195 664 1242 c 0,41,42
 691 1270 691 1270 723 1270 c 0,43,44
 754 1270 754 1270 774 1213 c 0,45,46
 782 1191 782 1191 782 1176 c 0,47,48
 782 1151 782 1151 766 1149 c 2,49,-1
 752 1149 l 2,50,51
 694 1149 694 1149 688 870 c 1,52,-1
 686 481 l 1,53,54
 850 645 850 645 967 645 c 0,55,56
 1103 645 1103 645 1163 532 c 0,57,58
 1200 462 1200 462 1200 356 c 0,59,60
 1200 243 1200 243 1151 133 c 0,61,62
 1078.53 -28.9999 1078.53 -28.9999 950 -29 c 0,63,64
 927 -29 927 -29 875 -6 c 0,65,66
 813 22 813 22 813 51 c 0,67,68
 813 68 813 68 875 107 c 0,69,70
 894 119 894 119 897 119 c 0,71,72
 902 119 902 119 925 95 c 0,73,74
 963 55 963 55 1001 55 c 0,75,76
 1058 55 1058 55 1086 127 c 0,77,78
 1114 201.667 1114 201.667 1114 289 c 0,79,80
 1114 420 1114 420 1038 493 c 0,81,82
 980 549 980 549 891 549 c 0,83,84
 807 549 807 549 723 470 c 0,85,86
 684 433 684 433 686 422 c 1,87,88
 695 -83 695 -83 696 -223 c 0,89,90
 699 -465 699 -465 679 -556 c 0,91,92
 661 -641 661 -641 621 -666 c 1,93,-1
 563 -698 l 1,94,95
 531 -713 531 -713 524 -705 c 1,96,97
 518 -694 518 -694 541 -666 c 1,98,99
 591 -603 591 -603 594 -455 c 0,100,101
 594.415 -369.02 594.415 -369.02 598 -287 c 1,102,103
 602 -235 602 -235 597 -121 c 0,104,105
 590 31 590 31 590 254 c 1,0,-1
EndSplineSet
EndChar

StartChar: guillemotleft
Encoding: 171 171 131
Width: 376
VWidth: 1000
Flags: MW
LayerCount: 2
Fore
SplineSet
313 1174 m 0,0,1
 313 1005 313 1005 256 979 c 0,2,3
 202 956 202 956 199 965 c 0,4,5
 196 975 196 975 213 987 c 0,6,7
 231 999 231 999 231 1130 c 1,8,-1
 231 1251 l 1,9,10
 229 1279 229 1279 217 1280 c 0,11,12
 209 1280 209 1280 209 1286 c 0,13,14
 209 1294 209 1294 260 1319 c 1,15,16
 313 1340.2 313 1340.2 313 1174 c 0,0,1
88 1124 m 0,17,18
 88 1213 88 1213 85 1225 c 0,19,20
 81 1238 81 1238 72 1239 c 1,21,22
 67 1241 67 1241 63 1247 c 1,23,24
 63 1256 63 1256 115 1280 c 1,25,26
 168 1300.92 168 1300.92 168 1171 c 0,27,28
 168 1038 168 1038 125 1020 c 0,29,30
 83 1002 83 1002 80 1010 c 0,31,32
 78 1013 78 1013 81 1023 c 0,33,34
 88 1050 88 1050 88 1124 c 0,17,18
EndSplineSet
EndChar

StartChar: registered
Encoding: 174 174 134
Width: 798
VWidth: 1000
Flags: MW
LayerCount: 2
Fore
SplineSet
512 864 m 0,0,1
 512 930 512 930 448 985 c 0,2,3
 395 1030 395 1030 342 1030 c 0,4,5
 273 1030 273 1030 247 1017 c 0,6,7
 187.628 985.9 187.628 985.9 135 879 c 1,8,-1
 94 883 l 1,9,-1
 152 1083 l 1,10,11
 253.25 1143 253.25 1143 401 1143 c 0,12,13
 496 1143 496 1143 579 1071 c 1,14,15
 659 992 659 992 664 911 c 1,16,17
 664 780.818 664 780.818 606 707 c 0,18,19
 565 655 565 655 467 569 c 0,20,21
 383 494 383 494 357 452 c 0,22,23
 332 410 332 410 332 367 c 0,24,25
 332 336 332 336 369 293 c 1,26,-1
 334 266 l 1,27,28
 265 317 265 317 260 385 c 0,29,-1
 260 397 l 0,30,31
 260 467 260 467 334 555 c 1,32,-1
 430 665 l 1,33,34
 512 767 512 767 512 864 c 0,0,1
340 160 m 0,35,36
 391 160 391 160 418 115 c 0,37,38
 432 93 432 93 432 66 c 0,39,40
 432 13 432 13 388 -15 c 0,41,42
 366 -29 366 -29 340 -29 c 0,43,44
 289 -29 289 -29 261 15 c 0,45,46
 246 39 246 39 246 66 c 0,47,48
 246 116 246 116 289 145 c 0,49,50
 313 160 313 160 340 160 c 0,35,36
EndSplineSet
EndChar

StartChar: degree
Encoding: 176 176 136
Width: 0
VWidth: 1000
Flags: MW
LayerCount: 2
Fore
SplineSet
-502 154 m 1,0,1
 -418 131 -418 131 -345 157 c 0,2,3
 -337 160 -337 160 -264 190 c 1,4,5
 -343.959 27.1199 -343.959 27.1199 -455 41 c 0,6,7
 -498 46 -498 46 -590 71 c 0,8,9
 -666 91 -666 91 -741 77 c 0,10,11
 -785 69 -785 69 -842 51 c 1,12,13
 -781 136 -781 136 -738 161 c 0,14,15
 -665.696 202.666 -665.696 202.666 -502 154 c 1,0,1
EndSplineSet
EndChar

StartChar: plusminus
Encoding: 177 177 137
Width: 301
VWidth: 1000
Flags: MW
LayerCount: 2
Fore
SplineSet
198 1132 m 0,0,1
 173 1101 173 1101 126 1106 c 0,2,3
 101 1109 101 1109 84 1123 c 0,4,5
 54 1149 54 1149 57 1193 c 0,6,7
 59 1217 59 1217 89 1253 c 0,8,9
 121 1292 121 1292 197 1336 c 0,10,11
 258 1372 258 1372 274 1360 c 0,12,13
 283 1352 283 1352 231 1287 c 0,14,15
 190 1235 190 1235 197 1230 c 0,16,17
 221 1210 221 1210 212 1166 c 0,18,19
 209 1144 209 1144 198 1132 c 0,0,1
EndSplineSet
EndChar

StartChar: twosuperior
Encoding: 178 178 138
Width: 301
VWidth: 1000
Flags: MW
LayerCount: 2
Fore
SplineSet
115.402 1249.34 m 0,0,1
 140.402 1280.34 140.402 1280.34 187.402 1275.34 c 0,2,3
 212.402 1272.34 212.402 1272.34 229.402 1258.34 c 0,4,5
 259.402 1232.34 259.402 1232.34 256.402 1188.34 c 0,6,7
 254.402 1164.34 254.402 1164.34 224.402 1128.34 c 0,8,9
 192.402 1089.34 192.402 1089.34 116.402 1045.34 c 0,10,11
 55.4023 1009.34 55.4023 1009.34 39.4023 1021.34 c 0,12,13
 30.4023 1029.34 30.4023 1029.34 82.4023 1094.34 c 0,14,15
 123.402 1146.34 123.402 1146.34 116.402 1151.34 c 0,16,17
 92.4023 1171.34 92.4023 1171.34 101.402 1215.34 c 0,18,19
 104.402 1237.34 104.402 1237.34 115.402 1249.34 c 0,0,1
EndSplineSet
EndChar

StartChar: threesuperior
Encoding: 179 179 139
Width: 1232
VWidth: 1000
Flags: MW
LayerCount: 2
Fore
SplineSet
608 -238 m 1,0,-1
 866 -275 l 1,1,2
 1082 -299 1082 -299 1159 -236 c 1,3,4
 1172 -221 1172 -221 1178 -240 c 1,5,6
 1187 -285 1187 -285 1083 -356 c 0,7,8
 1018 -402 1018 -402 803 -372 c 1,9,-1
 458 -317 l 1,10,11
 262 -291 262 -291 168 -319 c 0,12,13
 107 -338 107 -338 80 -354 c 0,14,15
 57 -367 57 -367 57 -348 c 1,16,17
 53 -310 53 -310 163 -255 c 0,18,19
 194 -240 194 -240 219 -231 c 0,20,21
 275 -211 275 -211 402 -206 c 0,22,23
 506 -202 506 -202 555 -190 c 2,24,-1
 761 -141 l 1,25,26
 939 -92 939 -92 1012 4 c 0,27,28
 1077 90 1077 90 1077 227 c 0,29,30
 1077 328 1077 328 1053 389 c 0,31,32
 991 548 991 548 768 607 c 0,33,34
 658 637 658 637 524 637 c 0,35,36
 297 637 297 637 244 530 c 0,37,38
 229 500 229 500 229 463 c 0,39,40
 229 431 229 431 257 406 c 0,41,42
 266 397 266 397 266 393 c 0,43,44
 266 377 266 377 225 349 c 0,45,46
 199 332 199 332 186 332 c 0,47,48
 156 332 156 332 156 422 c 0,49,50
 156 552 156 552 290 642 c 0,51,52
 433.828 739 433.828 739 635 739 c 0,53,54
 932 739 932 739 1079 553 c 0,55,56
 1112 511 1112 511 1135 461 c 0,57,58
 1180 368 1180 368 1180 291 c 0,59,60
 1180 1 1180 1 918 -135 c 0,61,62
 803 -195 803 -195 608 -238 c 1,0,-1
EndSplineSet
EndChar

StartChar: paragraph
Encoding: 182 182 142
Width: 671
VWidth: 1000
Flags: MW
LayerCount: 2
Fore
SplineSet
66 725 m 0,0,1
 66 883 66 883 172 956 c 0,2,3
 238 1001 238 1001 334 1001 c 2,4,-1
 627 1001 l 1,5,-1
 627 958 l 1,6,-1
 547 958 l 1,7,-1
 547 -326 l 1,8,-1
 506 -326 l 1,9,-1
 506 958 l 1,10,-1
 393 958 l 1,11,-1
 393 -326 l 1,12,-1
 350 -326 l 1,13,-1
 350 442 l 1,14,15
 124 442 124 442 77 626 c 0,16,17
 66 670 66 670 66 725 c 0,0,1
EndSplineSet
EndChar

StartChar: cedilla
Encoding: 184 184 144
Width: 0
VWidth: 1000
Flags: MW
LayerCount: 2
Fore
SplineSet
-621 150 m 1,0,-1
 -469 139 l 1,1,2
 -414 139 -414 139 -319 152 c 1,3,4
 -337 77 -337 77 -422 62 c 0,5,6
 -454 57 -454 57 -512 57 c 1,7,-1
 -640 61 l 1,8,-1
 -641 61 l 2,9,10
 -708 61 -708 61 -809 53 c 1,11,12
 -780 132 -780 132 -686 146 c 0,13,14
 -658 150 -658 150 -621 150 c 1,0,-1
EndSplineSet
EndChar

StartChar: onesuperior
Encoding: 185 185 145
Width: 421
VWidth: 1000
Flags: MW
LayerCount: 2
Fore
SplineSet
45 78 m 0,0,1
 45 118 45 118 84 144 c 0,2,3
 105 158 105 158 127 158 c 0,4,5
 167 158 167 158 193 122 c 0,6,7
 207 101.636 207 101.636 207 55 c 0,8,9
 207 4 207 4 177 -78 c 0,10,11
 153 -145 153 -145 133 -145 c 0,12,13
 121 -145 121 -145 119 -62 c 0,14,15
 118 4 118 4 109 4 c 0,16,17
 78 4 78 4 56 43 c 0,18,19
 45 62 45 62 45 78 c 0,0,1
EndSplineSet
EndChar

StartChar: guillemotright
Encoding: 187 187 147
Width: 376
VWidth: 1000
Flags: MW
LayerCount: 2
Fore
SplineSet
313 -66 m 0,0,1
 313 -234 313 -234 256 -260 c 0,2,3
 203 -283 203 -283 199 -274 c 0,4,5
 196 -264 196 -264 213 -252 c 1,6,7
 231 -243 231 -243 231 -111 c 1,8,-1
 231 11 l 1,9,10
 229 39 229 39 217 41 c 0,11,12
 209 41 209 41 209 47 c 0,13,14
 209 54 209 54 260 80 c 1,15,16
 313 100.879 313 100.879 313 -66 c 0,0,1
88 -115 m 0,17,18
 88 -28 88 -28 87 -21 c 0,19,20
 83 0 83 0 72 0 c 0,21,22
 69 0 69 0 63 8 c 1,23,24
 63 15 63 15 115 39 c 0,25,26
 168 62.7105 168 62.7105 168 -70 c 0,27,28
 168 -201 168 -201 125 -219 c 128,-1,29
 82 -237 82 -237 80 -229 c 0,30,31
 78 -225 78 -225 80 -221 c 0,32,33
 88 -201 88 -201 88 -115 c 0,17,18
EndSplineSet
EndChar

StartChar: onequarter
Encoding: 188 188 148
Width: 806
VWidth: 1000
Flags: HMW
LayerCount: 2
Fore
SplineSet
186 549 m 1,0,1
 219 630 219 630 353 651 c 0,2,3
 410 660 410 660 510 662 c 1,4,5
 664 656 664 656 698 649 c 1,6,7
 715 643 715 643 733 620 c 0,8,9
 779 562 779 562 682 516 c 0,10,11
 653 502 653 502 643 520 c 0,12,13
 629.29 544.928 629.29 544.928 621 547 c 0,14,15
 565 567 565 567 421 558 c 0,16,17
 243.294 546.588 243.294 546.588 188 483 c 1,18,19
 201 217 201 217 187 117 c 0,20,21
 186 114 186 114 186 111 c 0,22,23
 177 47 177 47 55 -31 c 1,24,25
 47 -34 47 -34 47 -25 c 1,26,27
 84 47 84 47 90 118 c 0,28,29
 92 146 92 146 94 322 c 0,30,31
 96 471 96 471 93 490 c 0,32,33
 88 533 88 533 58 551 c 0,34,35
 49 556 49 556 37 561 c 1,36,37
 11 559 11 559 47 611 c 1,38,39
 106.111 691.889 106.111 691.889 160 638 c 0,40,41
 180 618 180 618 184 598 c 1,42,43
 190 560 190 560 186 549 c 1,0,1
EndSplineSet
EndChar

StartChar: onehalf
Encoding: 189 189 149
Width: 274
VWidth: 1000
Flags: MW
LayerCount: 2
Fore
SplineSet
123 1274 m 0,0,1
 182.171 1274 182.171 1274 190 1137 c 1,2,-1
 188 529 l 1,3,4
 191.428 329.928 191.428 329.928 197 133 c 0,5,6
 197 115 197 115 195 104 c 0,7,8
 185 39 185 39 63 -39 c 1,9,10
 55 -39 55 -39 55 -33 c 1,11,12
 92 40 92 40 98 109 c 0,13,14
 100 138 100 138 102 317 c 1,15,-1
 92 713 l 1,16,17
 95 1124 95 1124 86 1143 c 0,18,19
 80 1158 80 1158 53 1170 c 0,20,21
 37 1176 37 1176 37 1184 c 0,22,23
 37 1200 37 1200 66 1236 c 0,24,25
 97 1274 97 1274 123 1274 c 0,0,1
EndSplineSet
EndChar

StartChar: threequarters
Encoding: 190 190 150
Width: 806
VWidth: 1000
Flags: MW
LayerCount: 2
Fore
SplineSet
829 39 m 0,0,1
 829 -15.7273 829 -15.7273 750 -66 c 1,2,3
 695 -104 695 -104 516 -76 c 1,4,-1
 272 -35 l 1,5,6
 93.8347 -10.2909 93.8347 -10.2909 -2 -63 c 1,7,8
 -19 -76 -19 -76 -23 -61 c 1,9,10
 -25 -28 -25 -28 27 12 c 0,11,12
 52 32 52 32 125 53 c 1,13,14
 370 118 370 118 407 130 c 0,15,16
 600 191 600 191 656 272 c 0,17,18
 686 314 686 314 686 367 c 0,19,20
 686 472.778 686 472.778 621 545 c 1,21,22
 522 645 522 645 309 645 c 0,23,24
 210 645 210 645 149 597 c 0,25,26
 109 566 109 566 109 526 c 0,27,28
 109 500 109 500 133 478 c 0,29,30
 139 472 139 472 139 469 c 0,31,32
 139 455 139 455 97 428 c 0,33,34
 72 412 72 412 61 412 c 1,35,36
 36 417 36 417 35 475 c 0,37,38
 35 597 35 597 159 671 c 0,39,40
 266 735 266 735 408 735 c 0,41,42
 549 735 549 735 630 686 c 0,43,44
 786 589.172 786 589.172 786 420 c 0,45,46
 786 230 786 230 566 131 c 0,47,48
 463 84 463 84 285 47 c 1,49,50
 540 10 540 10 595 6 c 0,51,52
 743 -4 743 -4 807 47 c 1,53,54
 828 58 828 58 829 39 c 0,0,1
EndSplineSet
EndChar

StartChar: Agrave
Encoding: 192 192 152
Width: 806
VWidth: 1000
Flags: MW
LayerCount: 2
Fore
SplineSet
231 731 m 1,0,1
 403 824 403 824 457 867 c 0,2,3
 559 947.225 559 947.225 559 1059 c 0,4,5
 559 1144 559 1144 502 1184 c 0,6,7
 470 1206 470 1206 428 1206 c 0,8,9
 338 1206 338 1206 273 1132 c 0,10,11
 238 1093 238 1093 238 1067 c 1,12,13
 228 961 228 961 231 731 c 1,0,1
236 1137 m 1,14,15
 318 1245 318 1245 406 1288 c 0,16,17
 449 1309 449 1309 487 1309 c 0,18,19
 606 1309 606 1309 644 1205 c 0,20,21
 659 1166 659 1166 659 1116 c 0,22,23
 659 1012 659 1012 551 877 c 0,24,25
 508 822 508 822 494 817 c 1,26,27
 614 817 614 817 650 721 c 0,28,29
 662 689 662 689 662 649 c 0,30,31
 662 500 662 500 523 385 c 1,32,33
 427.859 310.641 427.859 310.641 242 213 c 1,34,35
 242 53 242 53 236 33 c 0,36,37
 228 -0 228 -0 109 -68 c 1,38,39
 101 -68 101 -68 100 -61 c 1,40,41
 133 3 133 3 140 57 c 0,42,43
 154.242 178.055 154.242 178.055 133 1041 c 0,44,45
 131 1118 131 1118 131 1143 c 0,46,47
 131 1196 131 1196 81 1210 c 2,48,-1
 45 1220 l 1,49,50
 37 1224 37 1224 37 1231 c 0,51,52
 37 1247 37 1247 66 1282 c 0,53,54
 97 1319 97 1319 123 1319 c 0,55,56
 208 1319 208 1319 227 1222 c 0,57,58
 232 1201 232 1201 236 1137 c 1,14,15
238 258 m 1,59,60
 385 333 385 333 425 360 c 0,61,62
 561 451.12 561 451.12 561 606 c 0,63,64
 561 695 561 695 512 728 c 0,65,66
 488 744 488 744 442 756 c 0,67,68
 385 771 385 771 233 682 c 1,69,-1
 238 258 l 1,59,60
EndSplineSet
EndChar

StartChar: Aacute
Encoding: 193 193 153
Width: 354
VWidth: 1000
Flags: MW
LayerCount: 2
Fore
SplineSet
178 911 m 0,0,1
 178 800 178 800 214 579 c 0,2,3
 244 399 244 399 244 315 c 0,4,5
 244 156 244 156 170 -61 c 1,6,7
 172 -10 172 -10 172 66 c 0,8,9
 172 237 172 237 125 538 c 0,10,11
 94 737 94 737 94 803 c 0,12,13
 94 950 94 950 149 1086 c 0,14,15
 161 1117 161 1117 193 1186 c 1,16,17
 178 1043 178 1043 178 911 c 0,0,1
EndSplineSet
EndChar

StartChar: Acircumflex
Encoding: 194 194 154
Width: 980
VWidth: 1000
Flags: MW
LayerCount: 2
Fore
SplineSet
18 311 m 1,0,1
 162.566 516 162.566 516 317 516 c 0,2,3
 365 516 365 516 540 483 c 0,4,5
 690 455 690 455 760 455 c 0,6,7
 845 455 845 455 954 510 c 1,8,9
 829 315 829 315 698 315 c 0,10,11
 673 315 673 315 531 345 c 0,12,13
 370 379 370 379 279 379 c 0,14,15
 180 379 180 379 18 311 c 1,0,1
EndSplineSet
EndChar

StartChar: Adieresis
Encoding: 196 196 156
Width: 806
VWidth: 1000
Flags: MW
LayerCount: 2
Fore
SplineSet
139 100 m 1,0,1
 76 258.094 76 258.094 76 356 c 0,2,3
 76 543 76 543 187 612 c 0,4,5
 241 645 241 645 317 645 c 0,6,7
 457 645 457 645 631 471 c 1,8,9
 627 563 627 563 662 598 c 1,10,11
 687 628 687 628 726 647 c 0,12,13
 747 657 747 657 762 657 c 0,14,15
 790 657 790 657 809 614 c 0,16,17
 817 595 817 595 817 580 c 0,18,19
 817 543 817 543 799 543 c 0,20,21
 740 543 740 543 726 496 c 0,22,23
 719 472 719 472 719 428 c 2,24,-1
 719 -250 l 1,25,26
 721 -494 721 -494 702 -582 c 0,27,28
 684 -664 684 -664 643 -688 c 1,29,30
 614 -710 614 -710 576 -725 c 0,31,32
 553 -733 553 -733 549 -727 c 0,33,34
 542 -720 542 -720 563 -688 c 1,35,36
 617 -622 617 -622 621 -472 c 1,37,-1
 621 -317 l 1,38,39
 624 -97 624 -97 627 -53 c 0,40,41
 630 -19 630 -19 610 -14 c 0,42,43
 509 12 509 12 367 1 c 0,44,45
 226 -10 226 -10 168 -6 c 0,46,47
 95 -0 95 -0 20 82 c 1,48,49
 -15 123 -15 123 13 121 c 0,50,51
 19 121 19 121 27 119 c 0,52,53
 86 105 86 105 139 100 c 1,0,1
631 84 m 1,54,55
 626 129 626 129 630 221 c 0,56,57
 635 305 635 305 625 401 c 1,58,59
 625 423 625 423 586 464 c 0,60,61
 506 548 506 548 389 549 c 0,62,63
 278 549 278 549 213 464 c 0,64,65
 162 396 162 396 162 299 c 0,66,67
 162 246 162 246 190 100 c 1,68,69
 591 103 591 103 631 84 c 1,54,55
EndSplineSet
EndChar

StartChar: Aring
Encoding: 197 197 157
Width: 425
VWidth: 1000
Flags: MW
LayerCount: 2
Fore
SplineSet
436 154 m 0,0,1
 436 72 436 72 336 8 c 1,2,3
 267 -33 267 -33 131 -33 c 0,4,5
 75 -33 75 -33 -138 -13 c 0,6,7
 -155 -11 -155 -11 -170 -10 c 1,8,9
 -155 61 -155 61 -111 61 c 0,10,11
 -92 61 -92 61 -28 35 c 0,12,13
 30 12 30 12 68 12 c 0,14,15
 170 12 170 12 242 58 c 0,16,17
 263 72 263 72 276 88 c 1,18,19
 309 124 309 124 309 154 c 0,20,21
 309 188 309 188 273 205 c 0,22,23
 257 213 257 213 236 213 c 0,24,25
 205 213 205 213 160 201 c 1,26,27
 210 299 210 299 276 299 c 0,28,29
 345 299 345 299 395 249 c 0,30,31
 436 208 436 208 436 154 c 0,0,1
EndSplineSet
EndChar

StartChar: AE
Encoding: 198 198 158
Width: 438
VWidth: 1000
Flags: MW
LayerCount: 2
Fore
SplineSet
303 817 m 0,0,1
 303 877 303 877 229 877 c 0,2,3
 209 877 209 877 154 866 c 1,4,5
 202 963 202 963 266 963 c 0,6,7
 341 963 341 963 391 911 c 0,8,9
 430 871 430 871 430 817 c 0,10,11
 430 736 430 736 330 674 c 0,12,13
 255 627 255 627 8 627 c 1,14,-1
 -151 629 l 1,15,-1
 -154 629 l 1,16,17
 -156 635 -156 635 -156 645 c 0,18,19
 -156 678 -156 678 -94 678 c 2,20,-1
 5 676 l 1,21,-1
 8 676 l 2,22,23
 205 676 205 676 272 752 c 0,24,25
 303 788 303 788 303 817 c 0,0,1
EndSplineSet
EndChar

StartChar: Ccedilla
Encoding: 199 199 159
Width: 591
VWidth: 1000
Flags: MW
LayerCount: 2
Fore
SplineSet
322 1118 m 1,0,-1
 379 1118 l 1,1,2
 376.901 986.784 376.901 986.784 369 922 c 1,3,-1
 317 326 l 1,4,-1
 256 293 l 1,5,6
 199 910 199 910 199 1001 c 2,7,-1
 199 1053 l 1,8,-1
 322 1118 l 1,0,-1
283 156 m 0,9,10
 337 156 337 156 364 111 c 0,11,12
 377 89 377 89 377 63 c 0,13,14
 377 9 377 9 332 -18 c 0,15,16
 310 -31 310 -31 283 -31 c 0,17,18
 230 -31 230 -31 203 14 c 0,19,20
 190 36 190 36 190 63 c 0,21,22
 190 116 190 116 234 143 c 0,23,24
 257 156 257 156 283 156 c 0,9,10
EndSplineSet
EndChar

StartChar: Oslash
Encoding: 216 216 176
Width: 0
VWidth: 1000
Flags: MW
LayerCount: 2
Fore
SplineSet
-432 1194 m 0,0,1
 -421 1194 -421 1194 -420 1180 c 0,2,3
 -420 1160 -420 1160 -518 1063 c 0,4,5
 -596 985 -596 985 -610 985 c 0,6,7
 -623 985 -623 985 -698 1062 c 0,8,9
 -778 1144 -778 1144 -778 1165 c 0,10,11
 -778 1190 -778 1190 -748 1219 c 0,12,13
 -726 1239 -726 1239 -707 1239 c 0,14,15
 -689 1239 -689 1239 -624 1173 c 0,16,17
 -561 1110 -561 1110 -543 1108 c 0,18,19
 -530 1108 -530 1108 -479 1157 c 0,20,21
 -442 1194 -442 1194 -432 1194 c 0,0,1
EndSplineSet
EndChar

StartChar: agrave
Encoding: 224 224 184
Width: 0
VWidth: 1000
Flags: MW
LayerCount: 2
Fore
SplineSet
-874 1237 m 0,0,1
 -874 1300 -874 1300 -827 1300 c 0,2,3
 -751 1300 -751 1300 -591 1121 c 0,4,5
 -494 1013 -494 1013 -460 953 c 0,6,7
 -455 943 -455 943 -455 940 c 0,8,9
 -455 934 -455 934 -463 934 c 0,10,11
 -481 934 -481 934 -535 997 c 0,12,13
 -635 1116 -635 1116 -711 1181 c 0,14,15
 -753 1217 -753 1217 -770 1217 c 0,16,17
 -786 1217 -786 1217 -794 1193 c 0,18,19
 -797 1185 -797 1185 -797 1176 c 0,20,21
 -797 1154 -797 1154 -767 1125 c 0,22,23
 -756 1114 -756 1114 -756 1110 c 0,24,25
 -756 1102 -756 1102 -766 1102 c 0,26,27
 -780 1102 -780 1102 -815 1133 c 0,28,29
 -874 1182 -874 1182 -874 1237 c 0,0,1
EndSplineSet
EndChar

StartChar: egrave
Encoding: 232 232 192
Width: 0
VWidth: 1000
Flags: MW
LayerCount: 2
Fore
SplineSet
-893 1071 m 0,0,1
 -942 1071 -942 1071 -950 1110 c 0,2,3
 -953 1126 -953 1126 -952 1151 c 0,4,5
 -952 1219 -952 1219 -891 1272 c 1,6,7
 -897 1246 -897 1246 -897 1235 c 0,8,9
 -897 1204 -897 1204 -866 1201 c 0,10,11
 -860 1200 -860 1200 -831 1200 c 2,12,-1
 -662 1206 l 1,13,14
 -407.664 1210.31 -407.664 1210.31 -285 1196 c 1,15,16
 -201 1190 -201 1190 -201 1133 c 0,17,18
 -201 1026 -201 1026 -259 917 c 0,19,20
 -295 847 -295 847 -332 827 c 1,21,22
 -291 888 -291 888 -271 960 c 0,23,24
 -257 1015 -257 1015 -270 1044 c 0,25,26
 -284 1075 -284 1075 -496 1075 c 2,27,-1
 -526 1075 l 2,28,29
 -648 1075 -648 1075 -876 1071 c 0,30,31
 -884 1071 -884 1071 -893 1071 c 0,0,1
EndSplineSet
EndChar

StartChar: eacute
Encoding: 233 233 193
Width: 0
VWidth: 1000
Flags: MW
LayerCount: 2
Fore
SplineSet
-698 1090 m 0,0,1
 -742 1090 -742 1090 -752 1121 c 0,2,3
 -756 1136 -756 1136 -756 1167 c 0,4,5
 -756 1234.67 -756 1234.67 -692 1288 c 1,6,7
 -700 1264 -700 1264 -700 1243 c 0,8,9
 -700 1217 -700 1217 -654 1218 c 0,10,11
 -563.058 1221.56 -563.058 1221.56 -470 1223 c 1,12,13
 -388 1222 -388 1222 -291 1212 c 1,14,15
 -211 1206 -211 1206 -211 1149 c 0,16,17
 -211 1035 -211 1035 -267 932 c 0,18,19
 -301 869 -301 869 -342 844 c 1,20,21
 -270 941 -270 941 -270 1040 c 0,22,23
 -270 1087 -270 1087 -389 1090 c 2,24,-1
 -438 1090 l 2,25,26
 -509 1092 -509 1092 -698 1090 c 0,0,1
EndSplineSet
EndChar

StartChar: ecircumflex
Encoding: 234 234 194
Width: 0
VWidth: 1000
Flags: MW
LayerCount: 2
Fore
SplineSet
-496 1218 m 1,0,1
 -416.071 1221.07 -416.071 1221.07 -335 1223 c 1,2,3
 -268 1222 -268 1222 -170 1212 c 0,4,5
 -90 1206 -90 1206 -90 1149 c 0,6,7
 -90 1037 -90 1037 -147 932 c 0,8,9
 -181 869 -181 869 -221 844 c 1,10,11
 -152 940 -152 940 -152 1040 c 0,12,13
 -152 1087 -152 1087 -281 1093 c 0,14,15
 -346 1096 -346 1096 -502 1090 c 1,16,-1
 -539 1090 l 2,17,18
 -583 1090 -583 1090 -592 1121 c 0,19,20
 -596 1136 -596 1136 -596 1167 c 0,21,22
 -593.757 1236.54 -593.757 1236.54 -532 1288 c 1,23,24
 -541 1265 -541 1265 -541 1243 c 0,25,26
 -541 1218 -541 1218 -496 1218 c 1,0,1
EndSplineSet
EndChar

StartChar: edieresis
Encoding: 235 235 195
Width: 0
VWidth: 1000
Flags: MW
LayerCount: 2
Fore
SplineSet
-233 1083 m 2,0,1
 -291 1083 -291 1083 -306 1091 c 0,2,3
 -331 1105 -331 1105 -328 1155 c 0,4,5
 -325 1234 -325 1234 -264 1282 c 1,6,7
 -272 1258 -272 1258 -272 1239 c 0,8,9
 -272 1206 -272 1206 -214 1210 c 1,10,11
 -96.4204 1233.52 -96.4204 1233.52 -18 1206 c 0,12,13
 5 1198 5 1198 12 1186 c 0,14,15
 27 1163 27 1163 27 1120 c 0,16,17
 27 1039 27 1039 -27 937 c 0,18,19
 -65 866 -65 866 -102 844 c 1,20,21
 -33 956 -33 956 -33 1032 c 0,22,23
 -33 1072 -33 1072 -78 1081 c 1,24,-1
 -145 1090 l 2,25,-1
 -230 1083 l 1,26,-1
 -233 1083 l 2,0,1
EndSplineSet
EndChar

StartChar: eth
Encoding: 240 240 200
Width: 808
VWidth: 1000
Flags: MW
LayerCount: 2
Fore
SplineSet
80 428 m 0,0,1
 61 428 61 428 61 455 c 0,2,3
 61 498 61 498 141 567 c 0,4,5
 259.259 670 259.259 670 393 670 c 0,6,7
 540 670 540 670 637 572 c 0,8,9
 727 483 727 483 727 360 c 0,10,11
 727 229 727 229 640 127 c 0,12,13
 527 -5 527 -5 331 -10 c 0,14,-1
 317 -10 l 0,15,16
 256 -10 256 -10 217 0 c 1,17,18
 66 57 66 57 66 100 c 0,19,20
 66 129 66 129 141 160 c 0,21,22
 169 172 169 172 178 172 c 1,23,24
 195 162 195 162 229 127 c 0,25,26
 278 78 278 78 381 78 c 0,27,28
 511 78 511 78 565 136 c 0,29,30
 585 157 585 157 602 190 c 0,31,32
 633 251 633 251 633 309 c 0,33,34
 633 419 633 419 544 493 c 0,35,36
 458 565 458 565 336 565 c 0,37,38
 231 565 231 565 153 487 c 2,39,-1
 107 441 l 1,40,41
 92 428 92 428 80 428 c 0,0,1
EndSplineSet
EndChar

StartChar: ntilde
Encoding: 241 241 201
Width: 806
VWidth: 1000
Flags: MW
LayerCount: 2
Fore
SplineSet
61 252 m 0,0,1
 61 402 61 402 202 495 c 0,2,3
 258 532 258 532 362 575 c 1,4,-1
 154 586 l 1,5,6
 110 586 110 586 78 575 c 0,7,8
 33 560 33 560 39 596 c 0,9,10
 48 642 48 642 125 668 c 0,11,12
 167 682 167 682 209 682 c 1,13,14
 526 660 526 660 727 678 c 0,15,16
 746 680 746 680 745 668 c 0,17,18
 745 661 745 661 737 649 c 0,19,20
 695.297 579.495 695.297 579.495 502 575 c 1,21,22
 379 547 379 547 281 481 c 0,23,24
 168 405 168 405 168 317 c 0,25,26
 168 185 168 185 266 118 c 0,27,28
 332 72 332 72 426 72 c 0,29,30
 512 72 512 72 579 104 c 0,31,32
 647 137 647 137 647 193 c 0,33,34
 647 222 647 222 607 267 c 0,35,36
 584 292 584 292 584 301 c 0,37,38
 584 311 584 311 616 345 c 0,39,40
 647 377 647 377 664 377 c 0,41,42
 689 377 689 377 720 328 c 0,43,44
 743 293 743 293 743 270 c 0,45,46
 743 204 743 204 664 124 c 0,47,48
 532.792 -9.99998 532.792 -9.99998 373 -10 c 0,49,50
 240 -10 240 -10 149 66 c 0,51,52
 61 139 61 139 61 252 c 0,0,1
EndSplineSet
EndChar

StartChar: ograve
Encoding: 242 242 202
Width: 1175
VWidth: 1000
Flags: MW
LayerCount: 2
Fore
SplineSet
61 252 m 0,0,1
 61 402 61 402 202 495 c 0,2,3
 258 532 258 532 362 575 c 1,4,-1
 154 586 l 1,5,6
 110 586 110 586 78 575 c 0,7,8
 33 560 33 560 39 596 c 0,9,10
 56 682 56 682 283 682 c 1,11,-1
 843 672 l 1,12,13
 1013 671 1013 671 1096 678 c 0,14,15
 1115 680 1115 680 1113 667 c 0,16,17
 1112 660 1112 660 1106 649 c 0,18,19
 1063.36 579.114 1063.36 579.114 870 575 c 1,20,21
 748 547 748 547 650 481 c 0,22,23
 537 405 537 405 537 317 c 0,24,25
 537 188 537 188 633 120 c 0,26,27
 700 72 700 72 795 72 c 0,28,29
 891 72 891 72 959 112 c 0,30,31
 1016 145 1016 145 1016 193 c 0,32,33
 1016 222 1016 222 975 267 c 0,34,35
 952 292 952 292 952 301 c 0,36,37
 952 312 952 312 988 347 c 0,38,39
 1019 377 1019 377 1034 377 c 0,40,41
 1060 377 1060 377 1090 329 c 0,42,43
 1112 295 1112 295 1112 270 c 0,44,45
 1112 213 1112 213 1042 135 c 0,46,47
 951 34 951 34 831 2 c 0,48,49
 788 -10 788 -10 745 -10 c 0,50,51
 649 -10 649 -10 563 43 c 1,52,53
 445 -12 445 -12 362 -12 c 0,54,55
 243 -12 243 -12 154 61 c 0,56,57
 61 138 61 138 61 252 c 0,0,1
430 248 m 0,58,59
 430 398 430 398 561 488 c 0,60,61
 619 528 619 528 731 575 c 1,62,63
 615 582 615 582 502 575 c 1,64,65
 379 547 379 547 281 481 c 0,66,67
 168 405 168 405 168 317 c 0,68,69
 168 201 168 201 241 135 c 0,70,71
 299 84 299 84 387 84 c 0,72,73
 412 84 412 84 506 92 c 1,74,75
 430 178 430 178 430 248 c 0,58,59
EndSplineSet
EndChar

StartChar: oacute
Encoding: 243 243 203
Width: 1544
VWidth: 1000
Flags: MW
LayerCount: 2
Fore
SplineSet
430 248 m 0,0,1
 430 406 430 406 574 495 c 0,2,3
 633 532 633 532 731 567 c 1,4,5
 666 570 666 570 489 575 c 1,6,7
 370 548 370 548 275 481 c 0,8,9
 168 405 168 405 168 317 c 0,10,11
 168 201 168 201 241 135 c 0,12,13
 299 84 299 84 387 84 c 0,14,15
 412 84 412 84 506 92 c 1,16,17
 430 178 430 178 430 248 c 0,0,1
61 252 m 0,18,19
 61 393 61 393 188 486 c 0,20,21
 240 524 240 524 362 584 c 1,22,23
 310 582 310 582 166 586 c 0,24,25
 113 588 113 588 78 575 c 0,26,27
 33 560 33 560 39 596 c 1,28,29
 62 701 62 701 474 686 c 0,30,31
 482 686 482 686 672 676 c 0,32,33
 914 663 914 663 1128 675 c 0,34,35
 1253 682 1253 682 1337 682 c 2,36,-1
 1466 682 l 1,37,38
 1492 679 1492 679 1475 649 c 0,39,40
 1433.13 579.22 1433.13 579.22 1239 575 c 1,41,42
 1114 548 1114 548 1015 479 c 0,43,44
 905 402 905 402 905 317 c 0,45,46
 905 188 905 188 1002 120 c 0,47,48
 1069 72 1069 72 1163 72 c 0,49,50
 1259 72 1259 72 1327 112 c 0,51,52
 1384 145 1384 145 1384 193 c 0,53,54
 1384 222 1384 222 1344 267 c 0,55,56
 1321 292 1321 292 1321 301 c 0,57,58
 1321 312 1321 312 1356 347 c 0,59,60
 1387 377 1387 377 1403 377 c 0,61,62
 1429 377 1429 377 1459 329 c 0,63,64
 1481 295 1481 295 1481 270 c 0,65,66
 1481 210 1481 210 1409 132 c 0,67,68
 1277.83 -12 1277.83 -12 1110 -12 c 0,69,70
 1015 -12 1015 -12 940 43 c 1,71,72
 810 -12 810 -12 733 -12 c 0,73,74
 648 -12 648 -12 563 43 c 1,75,76
 445 -12 445 -12 362 -12 c 0,77,78
 243 -12 243 -12 154 61 c 0,79,80
 61 138 61 138 61 252 c 0,18,19
799 248 m 0,81,82
 799 397 799 397 927 485 c 0,83,84
 988 527 988 527 1120 580 c 1,85,-1
 900 571 l 1,86,87
 793 562 793 562 713 518 c 0,88,89
 618 466 618 466 581 425 c 0,90,91
 537 375 537 375 537 317 c 0,92,93
 537 202 537 202 610 135 c 0,94,95
 666 84 666 84 752 84 c 0,96,97
 776 84 776 84 874 92 c 1,98,99
 799 181 799 181 799 248 c 0,81,82
EndSplineSet
EndChar

StartChar: ocircumflex
Encoding: 244 244 204
Width: 829
VWidth: 1000
Flags: MW
LayerCount: 2
Fore
SplineSet
93 568 m 1,0,1
 87.8639 963.476 87.8639 963.476 90 1113 c 0,2,3
 90 1131 90 1131 86 1143 c 0,4,5
 80 1158 80 1158 53 1170 c 0,6,7
 37 1176 37 1176 37 1184 c 0,8,9
 37 1200 37 1200 66 1236 c 0,10,11
 97 1274 97 1274 123 1274 c 0,12,13
 165 1274 165 1274 181 1190 c 1,14,15
 195.558 1126.91 195.558 1126.91 198 232 c 0,16,17
 198 36 198 36 197 -72 c 0,18,19
 195 -264 195 -264 243 -340 c 0,20,21
 295 -424 295 -424 430 -424 c 0,22,23
 533 -424 533 -424 619 -348 c 0,24,25
 679 -296 679 -296 682 -248 c 0,26,27
 682 -226 682 -226 653 -212 c 0,28,29
 618 -195.75 618 -195.75 618 -180 c 0,30,31
 618 -163 618 -163 636 -128 c 0,32,33
 659 -84 659 -84 688 -84 c 0,34,35
 735 -84 735 -84 741 -171 c 2,36,-1
 741 -186 l 2,37,38
 741 -297 741 -297 644 -399 c 0,39,40
 523.615 -526 523.615 -526 381 -526 c 0,41,42
 313 -526 313 -526 242 -494 c 1,43,44
 136 -444 136 -444 107 -324 c 0,45,46
 91 -257 91 -257 92 -86 c 2,47,-1
 92 -51 l 1,48,-1
 93 568 l 1,0,1
EndSplineSet
EndChar

StartChar: otilde
Encoding: 245 245 205
Width: 1013
VWidth: 1000
Flags: MW
LayerCount: 2
Fore
SplineSet
696 -84 m 0,0,1
 752 -84 752 -84 752 -186 c 0,2,3
 752 -297 752 -297 655 -399 c 0,4,5
 534.615 -526 534.615 -526 391 -526 c 0,6,7
 323 -526 323 -526 252 -494 c 1,8,9
 146 -444 146 -444 117 -324 c 0,10,11
 101 -257 101 -257 102 -86 c 2,12,-1
 102 -51 l 1,13,-1
 103 553 l 1,14,15
 98.8073 829.098 98.8073 829.098 95 1120 c 1,16,17
 91.3778 1156.22 91.3778 1156.22 50 1171 c 1,18,19
 37 1177 37 1177 37 1184 c 0,20,21
 37 1200 37 1200 66 1236 c 0,22,23
 97 1274 97 1274 123 1274 c 0,24,25
 158 1274 158 1274 178 1223 c 0,26,27
 192 1187 192 1187 190 1139 c 1,28,-1
 197 657 l 1,29,30
 392 686 392 686 491 679 c 0,31,32
 630 671 630 671 684 670 c 0,33,34
 870 670 870 670 942 678 c 0,35,36
 970 681 970 681 954 653 c 1,37,38
 917.712 580.425 917.712 580.425 717 575 c 1,39,40
 598 550 598 550 501 487 c 0,41,42
 383 410 383 410 383 317 c 0,43,44
 383 186 383 186 480 119 c 0,45,46
 547 72 547 72 641 72 c 0,47,48
 727 72 727 72 794 104 c 0,49,50
 862 137 862 137 862 193 c 0,51,52
 862 222 862 222 822 267 c 0,53,54
 799 292 799 292 799 301 c 0,55,56
 799 311 799 311 833 346 c 0,57,58
 864 377 864 377 879 377 c 0,59,60
 905 377 905 377 936 328 c 0,61,62
 958 294 958 294 958 270 c 0,63,64
 958 197 958 197 872 116 c 0,65,66
 775 24 775 24 651 -2 c 0,67,68
 615 -10 615 -10 580 -10 c 0,69,70
 457 -10 457 -10 368 62 c 0,71,72
 276 136 276 136 276 252 c 0,73,74
 276 402 276 402 415 494 c 0,75,76
 472 532 472 532 578 575 c 1,77,-1
 377 586 l 1,78,79
 315 586 315 586 201 555 c 1,80,81
 210 153 210 153 207 -72 c 0,82,83
 205 -266 205 -266 254 -342 c 0,84,85
 307 -424 307 -424 440 -424 c 0,86,87
 524 -424 524 -424 608 -365 c 1,88,89
 687 -304 687 -304 692 -246 c 1,90,91
 692 -225 692 -225 663 -212 c 0,92,93
 635 -199 635 -199 631 -190 c 0,94,95
 629 -185 629 -185 629 -180 c 0,96,97
 629 -162 629 -162 647 -126 c 0,98,99
 668 -84 668 -84 696 -84 c 0,0,1
EndSplineSet
EndChar

StartChar: odieresis
Encoding: 246 246 206
Width: 1382
VWidth: 1000
Flags: MW
LayerCount: 2
Fore
SplineSet
946 575 m 1,0,1
 830 582 830 582 717 575 c 1,2,3
 598 550 598 550 501 487 c 0,4,5
 383 410 383 410 383 317 c 0,6,7
 383 201 383 201 456 135 c 0,8,9
 514 84 514 84 602 84 c 0,10,11
 627 84 627 84 721 92 c 1,12,13
 645 178 645 178 645 248 c 0,14,15
 645 398 645 398 776 488 c 0,16,17
 833 528 833 528 946 575 c 1,0,1
741 -84 m 0,18,19
 795 -84 795 -84 795 -186 c 0,20,21
 795 -289 795 -289 709 -386 c 0,22,23
 585.073 -528 585.073 -528 403 -528 c 0,24,25
 321 -528 321 -528 252 -494 c 0,26,27
 146 -444 146 -444 117 -324 c 0,28,29
 101 -257 101 -257 102 -86 c 2,30,-1
 102 -51 l 1,31,-1
 103 553 l 1,32,33
 98.8758 830.161 98.8758 830.161 93 1120 c 1,34,35
 89.0871 1155.22 89.0871 1155.22 54 1169 c 0,36,37
 37 1176 37 1176 37 1184 c 0,38,39
 37 1200 37 1200 66 1236 c 0,40,41
 97 1274 97 1274 123 1274 c 0,42,43
 156 1274 156 1274 176 1217 c 0,44,45
 188 1182 188 1182 188 1139 c 1,46,-1
 197 657 l 1,47,48
 402 688 402 688 804 678 c 0,49,50
 1199.62 667.558 1199.62 667.558 1311 678 c 0,51,52
 1330 680 1330 680 1328 667 c 0,53,54
 1327 660 1327 660 1321 649 c 0,55,56
 1285 589 1285 589 1156 578 c 0,57,58
 1129 576 1129 576 1085 575 c 1,59,60
 966 549 966 549 870 487 c 0,61,62
 752 410 752 410 752 317 c 0,63,64
 752 185 752 185 850 118 c 0,65,66
 916 72 916 72 1010 72 c 0,67,68
 1106 72 1106 72 1175 113 c 0,69,70
 1231 146 1231 146 1231 193 c 0,71,72
 1231 222 1231 222 1190 267 c 0,73,74
 1167 292 1167 292 1167 301 c 0,75,76
 1167 312 1167 312 1203 347 c 0,77,78
 1234 377 1234 377 1249 377 c 0,79,80
 1276 377 1276 377 1307 327 c 0,81,82
 1327 293 1327 293 1327 270 c 0,83,84
 1327 216 1327 216 1259 138 c 0,85,86
 1168 35 1168 35 1047 1 c 0,87,88
 1002 -12 1002 -12 958 -12 c 0,89,90
 863 -12 863 -12 778 43 c 1,91,92
 660 -12 660 -12 578 -12 c 0,93,94
 457 -12 457 -12 368 63 c 0,95,96
 276 139 276 139 276 252 c 0,97,98
 276 402 276 402 415 494 c 0,99,100
 472 532 472 532 578 575 c 1,101,-1
 377 586 l 1,102,103
 315 586 315 586 201 555 c 1,104,105
 210 153 210 153 207 -72 c 0,106,107
 204 -274 204 -274 261 -349 c 0,108,109
 317 -424 317 -424 467 -424 c 0,110,111
 568 -424 568 -424 656 -363 c 0,112,113
 734 -309 734 -309 735 -250 c 0,114,115
 735 -224 735 -224 704 -210 c 0,116,117
 672 -195.778 672 -195.778 672 -182 c 0,118,119
 672 -163 672 -163 690 -127 c 0,120,121
 712 -84 712 -84 741 -84 c 0,18,19
EndSplineSet
EndChar

StartChar: divide
Encoding: 247 247 207
Width: 768
VWidth: 1000
Flags: MW
LayerCount: 2
Fore
SplineSet
43 -190 m 0,0,1
 43 -84 43 -84 100 -84 c 0,2,3
 138 -84 138 -84 163 -157 c 0,4,5
 170 -176 170 -176 170 -182 c 0,6,7
 170 -196 170 -196 144 -208 c 0,8,9
 106 -223.935 106 -223.935 106 -246 c 0,10,11
 106 -295 106 -295 170 -350 c 1,12,13
 259 -421 259 -421 356 -424 c 1,14,15
 499 -424 499 -424 551 -327 c 0,16,17
 593 -247 593 -247 590 -72 c 1,18,-1
 590 524 l 1,19,20
 588 616 588 616 584 745 c 0,21,22
 575 974 575 974 579 1121 c 0,23,24
 580 1132 580 1132 578 1143 c 1,25,26
 571 1158 571 1158 543 1170 c 0,27,28
 528 1176 528 1176 528 1184 c 0,29,30
 528 1200 528 1200 557 1236 c 0,31,32
 588 1274 588 1274 614 1274 c 0,33,34
 673.133 1274 673.133 1274 678 1128 c 1,35,36
 701.335 -200.173 701.335 -200.173 685 -300 c 0,37,38
 656.582 -467.665 656.582 -467.665 494 -513 c 0,39,40
 449 -526 449 -526 403 -526 c 0,41,42
 279 -526 279 -526 168 -425 c 0,43,44
 75 -339 75 -339 50 -240 c 0,45,46
 43 -214 43 -214 43 -190 c 0,0,1
EndSplineSet
EndChar

StartChar: oslash
Encoding: 248 248 208
Width: 1284
VWidth: 1000
Flags: MW
LayerCount: 2
Fore
SplineSet
676 479 m 1,0,1
 835.712 645 835.712 645 979 645 c 0,2,3
 1149 645 1149 645 1201 490 c 0,4,5
 1221 430 1221 430 1221 352 c 0,6,7
 1221 248.8 1221 248.8 1159 100 c 1,8,9
 1216 106 1216 106 1270 119 c 0,10,11
 1300 126 1300 126 1298 113 c 0,12,13
 1297 104 1297 104 1278 82 c 0,14,15
 1215 13 1215 13 1147 -2 c 0,16,17
 1092.73 -14.0606 1092.73 -14.0606 924 0 c 0,18,19
 790 12 790 12 682 -8 c 1,20,21
 684 -202 684 -202 683 -216 c 0,22,23
 677 -365 677 -365 617 -435 c 0,24,25
 586 -471 586 -471 537 -494 c 0,26,27
 463 -528 463 -528 395 -528 c 0,28,29
 290 -528 290 -528 184 -446 c 0,30,31
 35 -332.541 35 -332.541 35 -186 c 0,32,33
 35 -84 35 -84 90 -84 c 0,34,35
 129 -84 129 -84 154 -157 c 0,36,37
 160 -176 160 -176 160 -182 c 0,38,39
 160 -197 160 -197 134 -208 c 0,40,41
 96 -224.467 96 -224.467 96 -246 c 0,42,43
 96 -295 96 -295 160 -350 c 1,44,45
 250 -420 250 -420 346 -424 c 1,46,47
 508 -424 508 -424 559 -310 c 0,48,49
 594 -232 594 -232 588 -72 c 0,50,51
 580 108 580 108 580 376 c 0,52,53
 580 537 580 537 573 745 c 0,54,55
 564 991 564 991 576 1117 c 0,56,57
 578.88 1148.68 578.88 1148.68 543 1168 c 0,58,59
 528 1176 528 1176 528 1184 c 0,60,61
 528 1200 528 1200 557 1236 c 0,62,63
 588 1274 588 1274 614 1274 c 0,64,65
 672 1274 672 1274 674 1146 c 0,66,-1
 674 1124 l 0,67,68
 669 810 669 810 676 479 c 1,0,1
682 88 m 1,69,70
 725 103 725 103 1106 100 c 1,71,72
 1135 241 1135 241 1135 297 c 0,73,74
 1135 422 1135 422 1056 493 c 0,75,76
 994 549 994 549 901 549 c 0,77,78
 812 549 812 549 734 484 c 0,79,80
 678 437 678 437 678 399 c 1,81,-1
 682 88 l 1,69,70
EndSplineSet
EndChar

StartChar: ugrave
Encoding: 249 249 209
Width: 1710
VWidth: 1000
Flags: MW
LayerCount: 2
Fore
SplineSet
1198 352 m 0,0,1
 1198 261.615 1198 261.615 1137 88 c 1,2,3
 1358 69 1358 69 1556 92 c 1,4,5
 1587 206 1587 206 1587 289 c 0,6,7
 1587 429 1587 429 1508 500 c 0,8,9
 1452 549 1452 549 1368 549 c 0,10,11
 1285 549 1285 549 1234 508 c 0,12,13
 1215 491 1215 491 1190 463 c 1,14,15
 1198 406 1198 406 1198 352 c 0,0,1
668 471 m 1,16,17
 836 645 836 645 969 645 c 0,18,19
 1060 645 1060 645 1117 585 c 0,20,21
 1140 562 1140 562 1174 512 c 1,22,23
 1233 574 1233 574 1321 615 c 0,24,25
 1387 645 1387 645 1440 645 c 0,26,27
 1588 645 1588 645 1644 509 c 0,28,29
 1671 442 1671 442 1671 352 c 0,30,31
 1671 277 1671 277 1639 197 c 0,32,33
 1624 162 1624 162 1593 96 c 1,34,35
 1632 101 1632 101 1704 113 c 0,36,37
 1744 119 1744 119 1744 105 c 0,38,39
 1744 98 1744 98 1733 84 c 0,40,41
 1665 7 1665 7 1512 -18 c 0,42,43
 1460 -27 1460 -27 1405 -27 c 0,44,45
 1356 -27 1356 -27 1113 -10 c 0,46,47
 968 0 968 0 866 0 c 0,48,49
 763 0 763 0 682 -8 c 1,50,-1
 683 -206 l 1,51,52
 677 -361 677 -361 617 -433 c 0,53,54
 585 -470 585 -470 535 -494 c 0,55,56
 461 -528 461 -528 395 -528 c 0,57,58
 290 -528 290 -528 184 -446 c 0,59,60
 35 -332.541 35 -332.541 35 -186 c 0,61,62
 35 -84 35 -84 88 -84 c 0,63,64
 125 -84 125 -84 152 -153 c 0,65,66
 160 -175 160 -175 160 -182 c 0,67,68
 160 -196 160 -196 134 -207 c 0,69,70
 103 -221 103 -221 97 -232 c 0,71,72
 94 -238 94 -238 94 -246 c 0,73,74
 94 -298 94 -298 161 -354 c 1,75,76
 249 -422 249 -422 344 -424 c 1,77,78
 508 -424 508 -424 559 -307 c 0,79,80
 594 -228 594 -228 588 -72 c 0,81,82
 580 104 580 104 580 380 c 0,83,84
 580 544 580 544 573 745 c 0,85,86
 564 992 564 992 575 1117 c 0,87,88
 578.796 1158.75 578.796 1158.75 542 1172 c 0,89,90
 528 1177 528 1177 528 1184 c 0,91,92
 528 1200 528 1200 557 1236 c 0,93,94
 588 1274 588 1274 614 1274 c 0,95,96
 653 1274 653 1274 668 1210 c 0,97,98
 676 1175 676 1175 674 1128 c 0,99,100
 671 1062 671 1062 671 759 c 0,101,102
 671 612 671 612 668 471 c 1,16,17
682 88 m 1,103,104
 818 123 818 123 1083 100 c 1,105,106
 1116 183 1116 183 1116 274 c 0,107,108
 1116 413 1116 413 1038 490 c 0,109,110
 979 549 979 549 889 549 c 0,111,112
 804 549 804 549 725 476 c 0,113,114
 678 433 678 433 672 401 c 1,115,-1
 682 88 l 1,103,104
EndSplineSet
EndChar

StartChar: uacute
Encoding: 250 250 210
Width: 806
VWidth: 1000
Flags: MW
LayerCount: 2
Fore
SplineSet
178 549 m 0,0,1
 203 549 203 549 246 505 c 0,2,3
 270 480 270 480 270 469 c 0,4,5
 270 461 270 461 238 447 c 0,6,7
 177 421 177 421 158 385 c 0,8,9
 147 363 147 363 147 334 c 0,10,11
 147 237 147 237 235 161 c 1,12,13
 330 86 330 86 436 82 c 1,14,15
 542 82 542 82 610 163 c 0,16,17
 664 227 664 227 664 307 c 0,18,19
 664 489 664 489 389 946 c 0,20,21
 344 1021 344 1021 338 1032 c 0,22,23
 286 1123 286 1123 204 1230 c 0,24,25
 176 1266 176 1266 176 1280 c 0,26,27
 176 1288 176 1288 182 1288 c 0,28,29
 213 1288 213 1288 330 1121 c 0,30,31
 495 884 495 884 619 624 c 0,32,33
 739 371 739 371 739 248 c 0,34,35
 739 121 739 121 650 39 c 0,36,37
 574 -31 574 -31 471 -31 c 0,38,39
 367 -31 367 -31 246 75 c 0,40,41
 133 174 133 174 83 295 c 0,42,43
 59 355 59 355 59 406 c 0,44,45
 59 467 59 467 108 515 c 0,46,47
 143 549 143 549 178 549 c 0,0,1
EndSplineSet
EndChar

StartChar: ucircumflex
Encoding: 251 251 211
Width: 806
VWidth: 1000
Flags: MW
LayerCount: 2
Fore
SplineSet
186 -180 m 0,0,1
 186 -194 186 -194 161 -207 c 0,2,3
 125 -225 125 -225 125 -248 c 0,4,5
 125 -303 125 -303 198 -358 c 0,6,7
 283 -423 283 -423 387 -424 c 0,8,9
 509 -424 509 -424 577 -341 c 0,10,11
 629 -278 629 -278 629 -188 c 0,12,13
 629 -85 629 -85 565 0 c 1,14,15
 526 -18 526 -18 463 -18 c 0,16,17
 350 -18 350 -18 236 99 c 0,18,19
 137 202 137 202 99 323 c 0,20,21
 84 370 84 370 84 410 c 0,22,23
 84 471 84 471 125 506 c 0,24,25
 147 526 147 526 174 526 c 0,26,27
 205 526 205 526 240 473 c 0,28,29
 270 429 270 429 260 415 c 0,30,31
 258 412 258 412 254 412 c 1,32,-1
 217 422 l 1,33,-1
 215 422 l 2,34,35
 185 422 185 422 165 376 c 0,36,37
 152 348 152 348 152 317 c 0,38,39
 152 231 152 231 232 160 c 0,40,41
 314 87 314 87 420 86 c 0,42,43
 560 86 560 86 630 173 c 0,44,45
 676 230 676 230 676 313 c 0,46,47
 676 604.23 676 604.23 301 1051 c 0,48,49
 185 1190 185 1190 170 1210 c 0,50,51
 145 1245 145 1245 145 1260 c 0,52,53
 145 1268 145 1268 154 1268 c 0,54,55
 191 1268 191 1268 395 1006 c 0,56,57
 770 525.531 770 525.531 770 250 c 0,58,59
 770 137 770 137 689 67 c 0,60,61
 663 45 663 45 623 20 c 1,62,63
 692 -131 692 -131 707 -180 c 0,64,65
 721 -229 721 -229 721 -270 c 0,66,67
 721 -387 721 -387 628 -461 c 0,68,69
 548 -526 548 -526 438 -526 c 0,70,71
 311 -526 311 -526 193 -412 c 0,72,73
 104 -325 104 -325 75 -231 c 0,74,75
 66 -203 66 -203 66 -180 c 1,76,77
 71 -89 71 -89 119 -84 c 1,78,79
 159 -84 159 -84 181 -157 c 0,80,81
 186 -174 186 -174 186 -180 c 0,0,1
EndSplineSet
EndChar

StartChar: udieresis
Encoding: 252 252 212
Width: 0
VWidth: 1000
Flags: MW
LayerCount: 2
Fore
SplineSet
-690 -655 m 1,0,1
 -698 -525 -698 -525 -698 -481 c 0,2,3
 -698 -211 -698 -211 -600 -211 c 1,4,-1
 -587 -213 l 1,5,-1
 -586 -213 l 1,6,7
 -580 -304 -580 -304 -580 -377 c 0,8,9
 -580 -659 -580 -659 -668 -659 c 0,10,11
 -674 -659 -674 -659 -690 -655 c 1,0,1
EndSplineSet
EndChar

